<?xml version="1.0" encoding="utf-8"?>
<!-- Generator: Adobe Illustrator 27.2.0, SVG Export Plug-In . SVG Version: 6.00 Build 0)  -->
<svg version="1.1" xmlns="http://www.w3.org/2000/svg" xmlns:xlink="http://www.w3.org/1999/xlink" x="0px" y="0px"
	 viewBox="0 0 1000 1000" style="enable-background:new 0 0 1000 1000;" xml:space="preserve">
<style type="text/css">
	.st0{fill:#A19FA0;}
	.st1{fill:#20BAAC;}
</style>
<g id="Layer_1">
	<g>
		<g>
			<g>
				<polygon class="st0" points="188.8,555.1 191.7,558.2 194.9,555.1 191.7,552.1 				"/>
				<polygon class="st0" points="194.9,555.1 198.1,558.2 201,555.1 198.1,552.1 				"/>
				<g>
					<path class="st0" d="M239.5,539.8c0,1.4-0.2,2.6-0.6,3.2c-0.4,0.6-1.4,1-2.8,1h-19.8v-13.3c0.8-0.2,1.6-0.4,2.6-0.6
						s2-0.4,3.2-0.6s2.2-0.4,3.4-0.4c1.2-0.2,2.2-0.2,3.2-0.2c2.2,0,4,0.2,5.3,0.6c1.4,0.4,2.6,1,3.4,2c0.8,0.8,1.4,2,1.8,3.2
						c0.4,1.4,0.4,2.8,0.4,4.6V539.8z M174.5,539.8c0,1.4-0.2,2.6-0.6,3.2c-0.4,0.6-1.4,1-2.8,1h-19.8v-13.3
						c0.8-0.2,1.6-0.4,2.6-0.6s2-0.4,3.2-0.6c1.2-0.2,2.2-0.4,3.4-0.4c1.2-0.2,2.2-0.2,3.2-0.2c2.2,0,4,0.2,5.3,0.6
						c1.4,0.4,2.6,1,3.4,2c0.8,0.8,1.4,2,1.8,3.2c0.4,1.4,0.4,2.8,0.4,4.6V539.8z M304.3,544h-9.1h-1.4c-0.4,0-0.6,0-1-0.2
						c-0.4,0-0.8-0.2-1.2-0.4c-0.4-0.2-0.6-0.4-1-0.6c-0.2-0.2-0.4-0.4-0.4-0.8v-16.6h-4.4v14.3c0,1.4-0.2,2.6-0.6,3.2
						c-0.4,0.6-1.4,1-2.8,1h-6.3h-3c-0.6-0.8-1.2-1.8-1.4-3.2c-0.2-1.2-0.4-2.6-0.6-4c-0.2-1.4-0.4-2.8-0.6-4.2
						c-0.2-1.4-0.8-2.6-1.6-3.8c-0.8-1.2-1.8-2-3.2-2.8c-1.4-0.8-3.2-1-5.3-1c-1.4,0-2.8,0.2-3.8,0.4s-2,0.6-2.6,0.8l-0.4,3.4
						c0.6-0.2,1.8-0.6,2.8-0.8c1-0.2,2.2-0.4,3.4-0.4c1.4,0,2.6,0.2,3.6,0.8c0.8,0.6,1.6,1.2,2,2c0.4,0.8,0.8,1.8,1,3
						c0.2,1,0.4,2.2,0.4,3.4c0.2,1.2,0.4,2.2,0.6,3.4c0.2,1.2,0.6,2.2,1.2,3h-20.2l0,0h-1c-0.4,0-0.6,0-1-0.2
						c-0.4,0-0.8-0.2-1.2-0.4c-0.4-0.2-0.6-0.4-0.8-0.6c-0.2-0.2-0.4-0.4-0.4-0.8v-3.6c0-2-0.2-3.6-0.6-5.2c-0.4-1.6-1.2-3-2.2-4.2
						s-2.6-2-4.4-2.6s-4.2-1-7.1-1c-1,0-2.2,0-3.4,0.2c-1.2,0.2-2.6,0.2-3.8,0.4c-1.2,0.2-2.4,0.4-3.6,0.6c-1.2,0.2-2.2,0.4-2.8,0.6
						v-17.2h-4.4v33.7h-9.5H201c-0.4,0-0.6,0-1-0.2c-0.4,0-0.8-0.2-1.2-0.4c-0.4-0.2-0.6-0.4-1-0.6c-0.2-0.2-0.4-0.4-0.4-0.8V525
						h-4.4v14.3c0,1.4-0.2,2.6-0.6,3.2c-0.4,0.6-1.4,1-2.8,1h-6.3l0,0l0,0h-1c-0.4,0-0.6,0-1-0.2c-0.4,0-0.8-0.2-1.2-0.4
						c-0.4-0.2-0.6-0.4-0.8-0.6c-0.2-0.2-0.4-0.4-0.4-0.8v-3.6c0-2-0.2-3.6-0.6-5.2c-0.4-1.6-1-3-2.2-4.2c-1-1.2-2.6-2-4.4-2.6
						s-4.2-1-7.1-1c-1,0-2.2,0-3.4,0.2c-1.2,0.2-2.4,0.2-3.8,0.4c-1.2,0.2-2.4,0.4-3.6,0.6c-1.2,0.2-2.2,0.4-2.8,0.6v-17.2H147v33.7
						h-5l-0.6,3.6h30.5c1.8,0,3.2-0.2,4-0.8c1-0.4,1.6-1,2-1.6c0.6,0.8,1.2,1.4,2,1.8s1.6,0.4,2.6,0.4h0.6l0,0l0,0h7.3
						c1.8,0,3.2-0.2,4-0.8c1-0.4,1.6-1,2-1.6c0.6,0.8,1.2,1.4,2,1.8s1.6,0.4,2.6,0.4h1h34.7c1.8,0,3.2-0.2,4-0.8c1-0.4,1.6-1,2-1.6
						c0.6,0.8,1.2,1.4,2,1.8c0.8,0.4,1.6,0.4,2.6,0.4h0.6l0,0h27.7h7.3c1.8,0,3.2-0.2,4-0.8c1-0.4,1.6-1,2-1.6
						c0.6,0.8,1.2,1.4,2,1.8c0.8,0.4,1.6,0.4,2.6,0.4h1h13.5v-35.9h-4.4V544H304.3z"/>
				</g>
				<rect x="318.5" y="510.1" class="st0" width="4.4" height="37.4"/>
				<g>
					<path class="st0" d="M347.6,544h-2.8c-1.4,0-2.6-0.2-3.6-0.4s-2-0.6-2.8-1.2s-1.4-1.4-1.8-2.4c-0.4-1-0.6-2.2-0.6-3.6
						c0-1.8,0.4-3.4,1-4.4s1.4-1.8,2.4-2.4c1-0.6,2-0.8,3.2-1s2.2-0.2,3.2-0.2c0.4,0,0.6,0,1,0s0.6,0,0.8,0L347.6,544L347.6,544z
						 M345.7,525.2c-2.6,0-4.6,0.2-6.3,0.8c-1.8,0.6-3.2,1.4-4.4,2.4s-2,2.2-2.4,3.6c-0.6,1.4-0.8,3-0.8,4.6c0,1.2,0.2,2.4,0.4,3.6
						c0.4,1.4,1,2.6,1.8,3.6c1,1.2,2.2,2,3.8,2.8c1.6,0.8,3.8,1,6.5,1h3c-0.2,2-0.6,3.4-1.6,4.4c-1,0.8-2.4,1.4-4.6,1.4h-6.3v3.4
						h6.3c2,0,3.8-0.2,5.2-0.8c1.4-0.4,2.4-1.2,3.2-2.2s1.4-2,1.6-3.4c0.4-1.4,0.4-2.8,0.4-4.4v-20.2c-1,0-2.2-0.2-3.2-0.2
						C347.6,525.2,346.7,525.2,345.7,525.2"/>
					<path class="st0" d="M390.4,528.9c-1-1-2.4-1.8-4.4-2.4c-1.8-0.6-4.2-0.8-7.1-0.8h-4.4l-0.6,3.4h4.8c2.4,0,4.2,0.2,5.5,0.8
						c1.4,0.4,2.4,1.2,3,2s1.2,1.8,1.2,3c0.2,1.2,0.2,2.4,0.2,3.8v5.5h-17.4v3.4H393v-10.1c0-1.8-0.2-3.4-0.6-5
						C392.2,531.1,391.4,529.9,390.4,528.9"/>
					<path class="st0" d="M495,544h-9.7c-1-2.2-1.6-4-1.6-5.3c-0.2-1.2-0.2-2.2-0.2-2.8c0-2.6,0.8-4.6,2.4-5.5c1.6-1,4-1.6,7.1-1.6
						c0.2,0,0.6,0,1,0s0.6,0,1,0L495,544L495,544z M445.7,539.8c0,1.4-0.2,2.6-0.6,3.2c-0.4,0.6-1.4,1-2.8,1h-19.8v-13.3
						c0.8-0.2,1.6-0.4,2.6-0.6c1-0.2,2-0.4,3.2-0.6c1.2-0.2,2.2-0.4,3.4-0.4s2.2-0.2,3.2-0.2c2.2,0,4,0.2,5.3,0.6
						c1.4,0.4,2.6,1,3.4,2c0.8,0.8,1.4,2,1.8,3.2c0.4,1.4,0.4,2.8,0.4,4.6L445.7,539.8L445.7,539.8z M491.5,525.2
						c-2.2,0-4,0.2-5.5,0.8c-1.6,0.6-3,1.4-4,2.2c-1,1-1.8,2-2.4,3.4c-0.6,1.4-0.8,2.8-0.8,4.4c0,1.2,0.2,2.4,0.4,3.8
						c0.2,1.4,0.8,2.8,1.4,4.2h-8.5h-1.4c-0.4,0-0.6,0-1-0.2c-0.4,0-0.8-0.2-1.2-0.4s-0.6-0.4-1-0.6c-0.2-0.2-0.4-0.4-0.4-0.8v-16.6
						h-4.4v14.3c0,1.4-0.2,2.6-0.6,3.2c-0.4,0.6-1.4,1-2.8,1h-3.6l0,0h-2.4c-0.4,0-0.6,0-1.2-0.2c-0.4,0-0.8-0.2-1.2-0.4
						c-0.4-0.2-0.6-0.4-0.8-0.6c-0.2-0.2-0.4-0.4-0.4-0.8V538c0-2-0.2-3.6-0.6-5.2c-0.4-1.6-1.2-3-2.2-4.2s-2.6-2-4.4-2.6
						c-1.8-0.6-4.2-1-7.1-1c-1,0-2.2,0-3.4,0.2c-1.2,0.2-2.4,0.2-3.8,0.4c-1.2,0.2-2.4,0.4-3.6,0.6c-1.2,0.2-2.2,0.4-2.8,0.6v-1.8
						h-4.4v18.4h-8.7l0,0h-1.4c-1.6,0-2.6-0.4-3-1c-0.4-0.8-0.6-1.8-0.6-3.2v-29.3h-4.4v30.3c0,2.6,0.6,4.4,2,5.5
						c1.4,1.2,3.2,1.6,5.3,1.6h2l0,0h33.9c1.8,0,3.2-0.2,4-0.8c1-0.4,1.6-1,2-1.6c0.6,0.8,1.2,1.4,2,1.8c0.8,0.4,1.6,0.4,2.6,0.4h2
						l0,0l0,0h4.6c1.8,0,3.2-0.2,4-0.8c0.8-0.4,1.6-1,2-1.6c0.6,0.8,1.2,1.4,2,1.8c0.8,0.4,1.6,0.4,2.6,0.4h1h27.1v-21.6
						c-1.2,0-2.2-0.2-3.6-0.2C494.7,525.2,493.1,525.2,491.5,525.2"/>
				</g>
				<polygon class="st0" points="529.9,544 520.4,544 520.4,519.2 516,519.2 516,544 505.5,544 505.5,547.5 534.3,547.5 
					534.3,510.1 529.9,510.1 				"/>
				<rect x="544.2" y="510.1" class="st0" width="4.4" height="37.4"/>
				<g>
					<path class="st0" d="M585,539.6c-0.2,0.8-0.6,1.6-1.2,2.4c-0.6,0.8-1.2,1.2-2,1.6c-0.8,0.4-1.8,0.6-2.8,0.6
						c-1.2,0-2-0.2-2.8-0.6s-1.4-1-2-1.6c-0.6-0.6-1-1.4-1.2-2.4c-0.2-0.8-0.4-1.8-0.4-2.8c0-1.2,0.2-2.2,0.4-3.2
						c0.4-1,0.8-1.8,1.2-2.6c0.6-0.8,1.2-1.4,2-1.8s1.8-0.6,2.8-0.6s2,0.2,2.8,0.6c0.8,0.4,1.4,1,2,1.8c0.6,0.8,1,1.6,1.2,2.6
						c0.2,1,0.4,2,0.4,3.2C585.4,537.8,585.2,538.8,585,539.6 M587,528.7c-1-1-2-2-3.4-2.6c-1.4-0.6-3-1-4.8-1c-1.8,0-3.4,0.4-4.8,1
						c-1.4,0.6-2.6,1.6-3.4,2.6c-1,1-1.6,2.4-2,3.8c-0.4,1.4-0.8,2.8-0.8,4.4c0,1.2,0.2,2.6,0.6,3.8c0.4,1.4,1,2.6,2,3.6
						c0.8,1,2,2,3.4,2.6c1.4,0.8,3,1,5,1c2,0,3.6-0.4,5-1c1.4-0.6,2.6-1.6,3.4-2.6c0.8-1,1.6-2.2,2-3.6c0.4-1.4,0.6-2.6,0.6-3.8
						c0-1.6-0.2-3-0.6-4.4C588.8,530.9,588,529.7,587,528.7"/>
					<path class="st0" d="M599.9,546.8c0,2.2-0.4,3.8-1.2,4.8c-0.8,1-2.2,1.6-4.4,1.6h-0.6v3.6h1c2,0,3.4-0.2,4.8-0.8
						c1.2-0.6,2.2-1.2,3-2s1.2-2,1.4-3.2c0.2-1.2,0.4-2.6,0.4-4v-21.2h-4.4V546.8z"/>
				</g>
				<rect x="612.9" y="510.1" class="st0" width="4.4" height="37.4"/>
				<g>
					<path class="st0" d="M628,546.8c0,2.2-0.4,3.8-1.2,4.8c-0.8,1-2.2,1.6-4.4,1.6h-0.6v3.6h1c2,0,3.4-0.2,4.8-0.8
						c1.2-0.6,2.2-1.2,3-2c0.8-0.8,1.2-2,1.4-3.2c0.2-1.2,0.4-2.6,0.4-4v-21.2H628V546.8z"/>
					<path class="st0" d="M654.9,544h-2.8c-1.4,0-2.6-0.2-3.6-0.4s-2-0.6-2.8-1.2s-1.4-1.4-1.8-2.4s-0.6-2.2-0.6-3.6
						c0-1.8,0.4-3.4,1-4.4c0.6-1,1.4-1.8,2.4-2.4c1-0.6,2-0.8,3.2-1s2.2-0.2,3.2-0.2c0.4,0,0.6,0,1,0s0.6,0,0.8,0L654.9,544
						L654.9,544z M655.9,525.4c-1.2-0.2-2.2-0.2-3-0.2c-2.6,0-4.6,0.2-6.3,0.8s-3.2,1.4-4.4,2.4c-1.2,1-2,2.2-2.4,3.6
						c-0.6,1.4-0.8,3-0.8,4.6c0,1.2,0.2,2.4,0.4,3.6c0.4,1.4,1,2.6,1.8,3.6c1,1.2,2.2,2,3.8,2.8c1.6,0.8,3.8,1,6.5,1h3
						c0,2-0.6,3.4-1.6,4.4c-1,0.8-2.4,1.4-4.6,1.4h-6.3v3.4h6.3c2,0,3.8-0.2,5.2-0.8c1.4-0.4,2.4-1.2,3.2-2.2c0.8-1,1.4-2,1.6-3.4
						c0.4-1.4,0.4-2.8,0.4-4.4v-20.2C658.3,525.6,657.1,525.4,655.9,525.4"/>
				</g>
				
					<rect x="459.7" y="514.9" transform="matrix(0.708 -0.7062 0.7062 0.708 -230.2599 477.1719)" class="st0" width="4.4" height="4.4"/>
				
					<rect x="465.9" y="514.8" transform="matrix(0.7076 -0.7066 0.7066 0.7076 -228.4591 481.8925)" class="st0" width="4.4" height="4.4"/>
				<polygon class="st0" points="288,517 285,513.9 281.9,517 285,520 				"/>
				
					<rect x="259.9" y="514.8" transform="matrix(0.7066 -0.7076 0.7076 0.7066 -288.9365 337.1002)" class="st0" width="4.4" height="4.4"/>
				<polygon class="st0" points="294.4,517 291.2,513.9 288,517 291.2,520 				"/>
				<polygon class="st0" points="493.3,517 490.1,513.9 486.9,517 490.1,520 				"/>
				
					<rect x="494.2" y="514.8" transform="matrix(0.7062 -0.708 0.708 0.7062 -220.1923 503.3617)" class="st0" width="4.4" height="4.4"/>
				
					<rect x="573.6" y="514.9" transform="matrix(0.7076 -0.7066 0.7066 0.7076 -197.0173 558.0465)" class="st0" width="4.4" height="4.4"/>
				<polygon class="st0" points="585.2,517 582,513.9 578.9,517 582,520 				"/>
				
					<rect x="628" y="514.8" transform="matrix(0.7076 -0.7066 0.7066 0.7076 -181.0417 596.4401)" class="st0" width="4.4" height="4.4"/>
				<polygon class="st0" points="145.4,574.1 151.5,587 157.5,574.1 161.2,574.1 161.2,596.1 157.6,596.1 157.6,580.6 152.9,590.7 
					149.9,590.7 145.2,580.6 145.2,596.1 141.6,596.1 141.6,574.1 				"/>
				<rect x="166" y="574.1" class="st0" width="3.8" height="22"/>
				<polygon class="st0" points="178.1,574.1 187.6,589.7 187.6,574.1 191.1,574.1 191.1,596.1 187.8,596.1 178.3,580.4 
					178.3,596.1 174.7,596.1 174.7,574.1 				"/>
				<rect x="195.9" y="574.1" class="st0" width="3.8" height="22"/>
				<g>
					<path class="st0" d="M210,596.3c-1.2,0-2.4,0-3.6-0.2c-1.2-0.2-2.2-0.4-3-0.8l0.6-3c0.8,0.2,1.8,0.4,2.8,0.6c1,0.2,2,0.2,3,0.2
						c1.8,0,3-0.2,3.6-0.8c0.8-0.6,1-1.4,1-2.6c0-0.4,0-0.8-0.2-1.2c0-0.4-0.2-0.6-0.4-1c-0.2-0.2-0.6-0.4-1-0.6
						c-0.4-0.2-1-0.4-1.6-0.4l-2.4-0.4c-1.8-0.2-3.2-0.8-4-2c-1-1-1.4-2.4-1.4-4v-0.4c0-2.2,0.8-3.8,2-4.8c1.4-1,3.4-1.6,6.3-1.6
						c1.2,0,2.2,0,3,0.2c1,0.2,2,0.4,2.8,0.8l-0.6,3c-0.8-0.2-1.4-0.4-2.4-0.6c-0.8-0.2-1.8-0.2-2.8-0.2c-1.6,0-2.8,0.2-3.6,0.8
						c-0.8,0.4-1.2,1.4-1.2,2.4s0.2,1.6,0.8,2c0.4,0.4,1.2,0.8,2.4,1l2.4,0.4c0.8,0.2,1.6,0.4,2.2,0.6c0.6,0.2,1.2,0.6,1.8,1
						c0.6,0.4,0.8,1,1.2,1.8c0.2,0.8,0.4,1.6,0.4,2.6v0.4C218.3,594.1,215.5,596.3,210,596.3"/>
				</g>
				<polygon class="st0" points="238.5,574.1 238.1,577.3 231.5,577.3 231.5,596.1 227.8,596.1 227.8,577.3 220.8,577.3 
					221.2,574.1 				"/>
				<g>
					<path class="st0" d="M245.6,584.4h4.2c1.2,0,2.2-0.2,2.8-0.8c0.6-0.6,1-1.4,1-2.6v-0.4c0-2.4-1.2-3.4-3.6-3.4h-4.4V584.4z
						 M257.3,581.2c0,1.6-0.4,2.8-1,3.8c-0.8,1-1.8,1.8-3.2,2.2l5,8.9h-4.2l-4.6-8.5h-3.8v8.5h-3.8v-22h8.9c1.2,0,2.2,0.2,3,0.6
						s1.6,0.8,2,1.4c0.6,0.6,1,1.2,1.2,2s0.4,1.6,0.4,2.6V581.2z"/>
				</g>
				<polygon class="st0" points="268.4,584 273.4,574.1 277.3,574.1 270.2,587.2 270.2,596.1 266.4,596.1 266.4,587.2 259.3,574.1 
					263.4,574.1 				"/>
				<g>
					<path class="st0" d="M296.5,593.3c0.8,0,1.4,0,2.2-0.2c0.6-0.2,1.2-0.6,1.6-1c0.4-0.6,0.8-1.2,1-2.2c0.2-1,0.4-2,0.4-3.4v-2.8
						c0-1.4-0.2-2.6-0.4-3.6s-0.4-1.6-0.8-2.2s-1-0.8-1.6-1s-1.4-0.2-2.2-0.2s-1.4,0-2.2,0.2c-0.6,0.2-1.2,0.6-1.6,1
						c-0.4,0.6-0.8,1.2-1,2.2c-0.2,1-0.4,2-0.4,3.6v2.8c0,1.4,0.2,2.6,0.4,3.4s0.6,1.6,1,2.2c0.4,0.6,1,0.8,1.6,1
						C294.9,593.3,295.7,593.3,296.5,593.3 M296.5,573.7c1.8,0,3.2,0.2,4.4,0.8s2,1.2,2.8,2.2c0.6,1,1.2,2,1.4,3.2s0.4,2.6,0.4,4.2
						v2.6c0,1.6-0.2,3-0.4,4.2c-0.2,1.2-0.8,2.4-1.4,3.2s-1.6,1.6-2.8,2c-1.2,0.6-2.6,0.8-4.4,0.8c-1.8,0-3.2-0.2-4.4-0.8
						c-1.2-0.4-2-1.2-2.8-2.2c-0.6-1-1.2-2-1.4-3.2c-0.2-1.2-0.4-2.6-0.4-4.2v-2.6c0-1.6,0.2-3,0.4-4.2s0.8-2.4,1.4-3.2
						c0.6-1,1.6-1.6,2.8-2C293.4,573.9,294.7,573.7,296.5,573.7"/>
				</g>
				<polygon class="st0" points="323.3,574.1 322.9,577.3 313.6,577.3 313.6,583.8 321.9,583.8 321.5,587 313.6,587 313.6,596.1 
					309.6,596.1 309.6,574.1 				"/>
				<polygon class="st0" points="348.4,574.1 348,577.3 338.1,577.3 338.1,583.2 347.4,583.2 347.1,586.4 338.1,586.4 338.1,592.9 
					348.4,592.9 348,596.1 334.4,596.1 334.4,574.1 				"/>
				<g>
					<path class="st0" d="M360.7,596.3c-1.8,0-3.4-0.2-4.6-0.6c-1.2-0.4-2.2-1-2.8-1.8c-0.8-0.8-1.2-1.8-1.4-3.2
						c-0.2-1.2-0.4-2.8-0.4-4.4V584c0-1.6,0.2-3,0.4-4.2c0.4-1.2,0.8-2.4,1.6-3.2s1.8-1.6,3-2c1.2-0.6,2.8-0.8,4.6-0.8
						c0.8,0,1.8,0,2.6,0.2c0.8,0.2,1.6,0.4,2.2,0.6l-0.6,3c-0.4-0.2-1-0.2-1.6-0.4c-0.6-0.2-1.4-0.2-2-0.2c-1,0-2,0.2-2.8,0.4
						c-0.8,0.2-1.4,0.6-1.8,1c-0.4,0.6-0.8,1.2-1,2.2s-0.4,2.2-0.4,3.6v2.2c0,1.4,0,2.6,0.2,3.6c0.2,1,0.6,1.6,1,2.2
						c0.4,0.6,1.2,0.8,1.8,1c0.8,0.2,1.8,0.2,3,0.2c0.6,0,1.2,0,2-0.2c0.8,0,1.4-0.2,2.2-0.4l-0.6,3.2c-0.6,0.2-1.4,0.4-2.2,0.4
						C362.1,596.3,361.5,596.3,360.7,596.3"/>
					<path class="st0" d="M377.6,593.3c0.8,0,1.4,0,2-0.2s1.2-0.6,1.6-1c0.4-0.6,0.8-1.2,1-2.2c0.2-1,0.4-2,0.4-3.4v-2.8
						c0-1.4,0-2.6-0.2-3.6c-0.2-1-0.6-1.6-1-2.2c-0.4-0.6-1-0.8-1.6-1s-1.4-0.2-2.2-0.2c-0.8,0-1.6,0-2.2,0.2
						c-0.6,0.2-1.2,0.6-1.6,1c-0.4,0.6-0.8,1.2-1,2.2s-0.4,2-0.4,3.6v2.8c0,1.4,0.2,2.6,0.4,3.4s0.6,1.6,1,2.2c0.4,0.6,1,0.8,1.6,1
						S376.8,593.3,377.6,593.3 M377.6,573.7c1.8,0,3.2,0.2,4.4,0.8c1.2,0.6,2,1.2,2.8,2.2c0.6,1,1.2,2,1.4,3.2
						c0.2,1.2,0.4,2.6,0.4,4.2v2.6c0,1.6-0.2,3-0.4,4.2c-0.2,1.2-0.8,2.4-1.4,3.2c-0.6,0.8-1.6,1.6-2.8,2c-1.2,0.6-2.6,0.8-4.4,0.8
						c-1.8,0-3.2-0.2-4.4-0.8c-1.2-0.4-2-1.2-2.8-2.2c-0.6-1-1.2-2-1.4-3.2c-0.2-1.2-0.4-2.6-0.4-4.2v-2.6c0-1.6,0.2-3,0.4-4.2
						c0.2-1.2,0.8-2.4,1.4-3.2c0.6-1,1.6-1.6,2.8-2C374.4,573.9,375.8,573.7,377.6,573.7"/>
				</g>
				<polygon class="st0" points="394,574.1 403.5,589.7 403.5,574.1 407.1,574.1 407.1,596.1 403.7,596.1 394.2,580.4 394.2,596.1 
					390.6,596.1 390.6,574.1 				"/>
				<g>
					<path class="st0" d="M420.4,593.3c0.8,0,1.4,0,2-0.2s1.2-0.6,1.6-1c0.4-0.6,0.8-1.2,1-2.2c0.2-1,0.4-2,0.4-3.4v-2.8
						c0-1.4-0.2-2.6-0.2-3.6c-0.2-1-0.6-1.6-0.8-2.2c-0.4-0.6-1-0.8-1.6-1s-1.4-0.2-2.2-0.2c-0.8,0-1.4,0-2.2,0.2
						c-0.6,0.2-1.2,0.6-1.6,1c-0.4,0.6-0.8,1.2-1,2.2c-0.2,1-0.4,2-0.4,3.6v2.8c0,1.4,0,2.6,0.4,3.4c0.2,0.8,0.6,1.6,1,2.2
						c0.4,0.6,1,0.8,1.6,1C418.8,593.3,419.6,593.3,420.4,593.3 M420.4,573.7c1.8,0,3.2,0.2,4.4,0.8c1.2,0.6,2,1.2,2.8,2.2
						c0.6,1,1.2,2,1.4,3.2c0.2,1.2,0.4,2.6,0.4,4.2v2.6c0,1.6-0.2,3-0.4,4.2c-0.2,1.2-0.8,2.4-1.4,3.2c-0.6,0.8-1.6,1.6-2.8,2
						c-1.2,0.6-2.6,0.8-4.4,0.8c-1.8,0-3.2-0.2-4.4-0.8c-1.2-0.4-2-1.2-2.8-2.2c-0.6-1-1.2-2-1.4-3.2s-0.4-2.6-0.4-4.2v-2.6
						c0-1.6,0.2-3,0.4-4.2s0.8-2.4,1.4-3.2c0.6-1,1.6-1.6,2.8-2C417.2,573.9,418.6,573.7,420.4,573.7"/>
				</g>
				<polygon class="st0" points="437.2,574.1 443.3,587 449.1,574.1 453,574.1 453,596.1 449.3,596.1 449.3,580.6 444.7,590.7 
					441.8,590.7 437,580.6 437,596.1 433.4,596.1 433.4,574.1 				"/>
				<polygon class="st0" points="465.5,584 470.5,574.1 474.6,574.1 467.3,587.2 467.3,596.1 463.5,596.1 463.5,587.2 456.4,574.1 
					460.6,574.1 				"/>
				<g>
					<path class="st0" d="M517.6,584.8h3.8c1.2,0,2.2-0.2,2.8-0.8s1-1.4,1-2.6v-0.8c0-1.2-0.2-2-0.8-2.6c-0.6-0.6-1.4-1-2.8-1h-4
						V584.8z M517.6,588v8.1h-3.8v-22h8.7c1.2,0,2.2,0.2,3,0.6c0.8,0.4,1.6,0.8,2,1.4c0.6,0.6,1,1.2,1.2,2c0.2,0.8,0.4,1.6,0.4,2.6
						v0.8c0,2.2-0.6,3.8-1.8,5s-3,1.8-5.3,1.8h-4.4V588z"/>
				</g>
				<polygon class="st0" points="536.7,574.1 536.7,592.9 546.4,592.9 546,596.1 532.7,596.1 532.7,574.1 				"/>
				<path class="st0" d="M555.5,587.2h5.7l-3-9.3L555.5,587.2z M562.2,590.3h-7.7l-1.8,5.7h-3.8l7.5-22h4.2l7.7,22h-4L562.2,590.3z"
					/>
				<polygon class="st0" points="574.9,574.1 584.4,589.7 584.4,574.1 588,574.1 588,596.1 584.6,596.1 575.1,580.4 575.1,596.1 
					571.5,596.1 571.5,574.1 				"/>
				<polygon class="st0" points="596.3,574.1 605.8,589.7 605.8,574.1 609.2,574.1 609.2,596.1 605.8,596.1 596.3,580.4 
					596.3,596.1 592.7,596.1 592.7,574.1 				"/>
				<rect x="613.9" y="574.1" class="st0" width="4" height="22"/>
				<polygon class="st0" points="626,574.1 635.5,589.7 635.5,574.1 639.1,574.1 639.1,596.1 635.7,596.1 626.2,580.4 626.2,596.1 
					622.6,596.1 622.6,574.1 				"/>
				<g>
					<path class="st0" d="M653.7,577.1c-1.2,0-2.2,0.2-3,0.4c-0.8,0.2-1.6,0.6-2,1.2c-0.6,0.6-1,1.2-1.2,2.2c-0.2,1-0.4,2.2-0.4,3.6
						v2c0,1.4,0.2,2.6,0.4,3.4c0.2,1,0.6,1.6,1,2.2c0.4,0.6,1,0.8,1.8,1c0.8,0.2,1.6,0.4,2.8,0.4c0.4,0,0.8,0,1.2,0
						c0.4,0,0.8,0,1.2-0.2v-5.9h-3.2l0.4-3h6.3v11.3c-0.8,0.2-1.6,0.6-3,0.6c-1.2,0.2-2.4,0.2-3.8,0.2c-2,0-3.6-0.2-4.8-0.8
						c-1.2-0.4-2.2-1.2-2.8-2s-1.2-2-1.4-3.2c-0.2-1.2-0.4-2.6-0.4-4.2v-2.4c0-1.6,0.2-3,0.4-4.2c0.4-1.2,0.8-2.4,1.6-3.2
						c0.8-1,1.8-1.6,3-2.2c1.4-0.6,3-0.8,5-0.8c1,0,2,0,3,0.2s1.8,0.4,2.4,0.6l-0.6,3c-0.6-0.2-1.2-0.4-2-0.4
						C655.3,577.1,654.5,577.1,653.7,577.1"/>
					<path class="st0" d="M493.5,586c-0.6,0-1.4,0-2,0s-1.4,0.2-2,0.4s-1,0.6-1.4,1c-0.4,0.4-0.6,1-0.6,1.8s0.2,1.4,0.6,2
						c0.4,0.4,1,0.8,1.6,1s1.4,0.4,2,0.4c0.8,0,1.6,0,2.2,0h2.6v-6.9h-3V586z M492.5,596.1c-1,0-2,0-3-0.2s-2-0.4-2.8-1
						c-0.8-0.4-1.6-1.2-2.2-2c-0.6-0.8-0.8-2-0.8-3.2c0-0.8,0.2-1.6,0.4-2.4c0.2-0.6,0.6-1.2,1.2-1.8c0.4-0.4,1-0.8,1.6-1.2
						c0.2,0,0.2-0.2,0.4-0.2c-0.4-0.2-0.8-0.4-1.2-0.8s-0.8-1-1-1.6s-0.4-1.4-0.4-2.4s0.2-2,0.8-2.8c0.4-0.8,1-1.4,1.8-1.8
						c0.8-0.4,1.6-0.8,2.4-1c0.8-0.2,1.6-0.4,2.4-0.4c0.6,0,1.4,0,2,0.2c0.6,0,1.2,0.2,2,0.4l0.6,0.2l-0.6,3l-0.4-0.2
						c-0.6-0.2-1-0.2-1.6-0.4c-0.6,0-1-0.2-1.6-0.2s-1,0-1.6,0.2s-1,0.2-1.4,0.6c-0.4,0.2-0.6,0.6-1,1c-0.2,0.4-0.4,0.8-0.4,1.4
						s0.2,1.2,0.4,1.6c0.4,0.4,0.8,0.8,1.2,1c0.6,0.2,1,0.4,1.8,0.4c0.6,0,1.2,0.2,1.8,0.2h3v-4h3.8v4h3.8l-0.6,3H500v10.1h-7.5
						V596.1z"/>
				</g>
			</g>
		</g>
		<g>
			<path class="st1" d="M707.6,527.3l-3.4-3.4l50.1-50.1c0.4-0.4,0.4-1,0-1.2L714,432l3.4-3.4l40.4,40.4c2.2,2.2,2.2,5.9,0,8.1
				L707.6,527.3z"/>
			<path class="st1" d="M734.4,469.5h-54.7v-4.8h49.7l-12.9-12.9l3.4-3.4l16.4,16.4c0.8,0.8,1,2,0.6,3
				C736.6,468.7,735.6,469.5,734.4,469.5"/>
			<path class="st1" d="M719.9,497.8l-3.4-3.4l12.9-12.9h-33.7v-4.8h38.8c1.2,0,2.2,0.6,2.6,1.8c0.4,1,0.2,2.2-0.6,3L719.9,497.8z"
				/>
			<path class="st1" d="M767.1,465.5c-1.4,0-3-0.6-4-1.6L713,413.8l3.4-3.4l50.1,49.9c0.4,0.4,1,0.4,1.2,0l40.4-40.4l3.4,3.4
				L771,463.7C770,464.9,768.7,465.5,767.1,465.5"/>
			<path class="st1" d="M773.4,443.1c-0.4,0-0.8,0-1-0.2c-1-0.4-1.8-1.4-1.8-2.6v-54.7h4.8v49.7l12.9-12.9l3.4,3.4l-16.4,16.4
				C775,442.7,774.2,443.1,773.4,443.1"/>
			<path class="st1" d="M760.7,443.1c-0.8,0-1.4-0.2-2-0.8l-16.4-16.4l3.4-3.4l12.9,12.9v-33.7h4.8v38.8c0,1.2-0.6,2.2-1.8,2.6
				C761.5,443.1,761.1,443.1,760.7,443.1"/>
			<path class="st1" d="M816.8,517.6l-40.4-40.4c-2.2-2.2-2.2-5.9,0-8.1l50.1-50.3l3.4,3.4l-50.1,50.1c-0.4,0.4-0.4,1,0,1.2
				l40.4,40.4L816.8,517.6z"/>
			<path class="st1" d="M814.2,497.8l-16.4-16.4c-0.8-0.8-1-2-0.6-3c0.4-1,1.4-1.8,2.6-1.8h54.9v4.8h-49.7l12.9,12.9L814.2,497.8z"
				/>
			<path class="st1" d="M838.6,469.5h-38.8c-1.2,0-2.2-0.6-2.6-1.8c-0.4-1-0.2-2.2,0.6-3l16.4-16.4l3.4,3.4l-12.9,12.9h33.7v5H838.6
				z"/>
			<path class="st1" d="M818,535.9l-50.1-50.1c-0.2-0.2-0.4-0.2-0.6-0.2c-0.2,0-0.4,0-0.6,0.2l-40.4,40.4l-3.4-3.4l40.4-40.4
				c1-1,2.6-1.6,4-1.6c1.6,0,3,0.6,4,1.6l50.1,50.1L818,535.9z"/>
			<path class="st0" d="M762.7,603.8c0.6-0.6,1-1.4,0.8-2.2c0-0.8-0.4-1.6-1.2-2.2l-48.1-38.8l-3,3.8l46.4,37.4l-12.5,12.5h6.9
				L762.7,603.8z"/>
			<path class="st0" d="M776.4,601.8l46.6-37.4l-3-3.8l-48.1,38.8c-0.6,0.6-1,1.4-1.2,2.2c0,0.8,0.2,1.6,0.8,2.2l10.5,10.5h6.9
				L776.4,601.8z"/>
			<path class="st0" d="M758.7,580.6l-79.8-64.4l-3,3.8l82.4,66.4c0.6,0.4,1.4,0.8,2,0.8s1.4-0.2,2-0.6c1-0.6,1.4-1.8,1.4-2.8V504
				h-4.8v76.7H758.7z"/>
			<path class="st0" d="M855.4,516.4l-79.8,64.4V504h-4.8v80c0,1.2,0.4,2.2,1.4,2.8c0.6,0.4,1.2,0.6,2,0.6c0.8,0,1.4-0.2,2-0.8
				l82.4-66.4L855.4,516.4z"/>
		</g>
	</g>
</g>
<g id="Layer_2">
</g>
</svg>
