<?xml version="1.0" encoding="utf-8"?>
<!-- Generator: Adobe Illustrator 28.0.0, SVG Export Plug-In . SVG Version: 6.00 Build 0)  -->
<svg version="1.1" id="Layer_1" xmlns="http://www.w3.org/2000/svg" xmlns:xlink="http://www.w3.org/1999/xlink" x="0px" y="0px"
	 viewBox="0 0 1000 1000" style="enable-background:new 0 0 1000 1000;" xml:space="preserve">
<style type="text/css">
	.st0{fill:#1D1E1C;}
	.st1{fill:#404040;}
	.st2{fill:none;}
	.st3{fill:#9D999A;}
	.st4{fill:url(#SVGID_1_);}
	.st5{fill:url(#SVGID_00000092451441142107922020000006726136220111687330_);}
	.st6{fill:url(#SVGID_00000106868154610225298680000001522330029723456651_);}
	.st7{fill:url(#SVGID_00000008866365550989561700000000382628920662840238_);}
	.st8{fill:url(#SVGID_00000117665415937341664420000010345608930759138708_);}
	.st9{fill:url(#SVGID_00000033369754654347982880000016856555048165627009_);}
	.st10{fill:url(#SVGID_00000164509949841814193250000004460637663342909882_);}
</style>
<g>
	<g>
		<g>
			<polygon class="st0" points="156.8,434.6 159.9,431.3 163.2,434.6 163.8,434.6 167.6,430.6 163.6,426.7 163.1,426.7 159.9,430 
				156.6,426.7 156.1,426.7 152.3,430.6 156.2,434.6 			"/>
			<path class="st0" d="M154.3,463.7c2,0,4.1-0.6,5.8-1.6c0.4-1.3,0.6-2.6,0.9-3.8h0.1v0.1c1,6.8,3.4,9.5,8.9,9.5l0,0h4h1.1h2.9h1.1
				h2.9h1.1h2.9h1.1h2.9h1.1h2.9h1.1h2.9h1.1h2.9h1.1h2.9h1.1h2.9h1.1h2.9h1.1h2.9h1.1h2.9h1.1h2.9h1.1h2.9h1.1h2.9h1.1h2.9h1.1h2.9
				h1.1h2.9h1.1h2.9h1.1h2.9h1.1h2.9h1.1h2.9h1.1h2.9h1.1h2.9h1.1h4l0,0c6.7-0.1,13.9-1.1,20.6-3.1l4.9-1.4l1.5-6.2l-0.3-0.2
				l-4.8,1.2c-7.8,2-15.7-0.6-15.7-5.3c0-3.8,3.9-5.5,7.7-5.5c3.2,0,6.2,0.8,9.4,3l1.2-1.4c-2.4-5.1-5.4-7.9-9.4-7.9
				c-5.8,0-11.1,6.3-11.1,13c0,2.9,1.2,5.4,3.4,7.3c-2,0.2-4.4,0.2-7,0.2h-3h-1h-3h-1h-3h-1h-3h-1h-3h-1h-3h-1h-3h-1h-3h-1h-3h-1h-3
				h-1h-3h-1h-3h-1h-3h-1h-3h-1h-3h-1h-3h-1h-3h-1h-3h-1h-3h-1h-3h-1h-3h-1h-3h-1h-3h-1h-3h-1h-3h-1h-4c-4.8,0-6-1.8-6.7-7.3
				l-1.9-16.2h-1.7l-2,5.1l-5,3.5c-5.7,3.9-7.9,6.5-7.9,10.3C146.1,461.1,149.4,463.7,154.3,463.7z M152.7,451.1l6.9-3.4l1.2,8.4
				c-1.8,0.9-3.9,1.2-6.5,1.2c-3.4,0-5.7-0.9-5.7-2.3C148.6,453.7,149.9,452.4,152.7,451.1z"/>
			<path class="st0" d="M321.6,467.9L321.6,467.9h4h1.1h2.9h1.1h2.9h1.1h2.9h1.1h2.9h1.1h2.9h1.1h2.9h1.1h2.9h1.1h2.9h1.1h2.9h1.1h4
				l0,0c2.6-0.2,4.7-0.9,6.3-2.2c0.4-1.2,0.7-2.3,1-3.4h0.1c0.8,3.4,4.1,5.6,9,5.6v0h4h1.1h2.9h1.1h4l0,0c2.7-0.2,4.8-1.1,6.9-3.2
				c3.9,2.5,8.9,4.2,14.8,4.2c6.6,0,12.6-1,17.2-3c2.7,1.3,5.7,2,9.2,2v0c0,0,0,0,0,0c0,0,0,0,0,0l0,0c4.5,0,8.5-1.6,10.5-2.9
				c1.1-2.6,1.7-5.7,1.7-8.6V433l3-2.3v-0.2l-3-3.7v-4.5h-1.7c-3.9,2.6-4.8,5.7-2.8,8.9l0.9,29.1c-2,0.8-4.7,1.3-7.3,1.3
				c-1.8,0-3.9-0.2-5.6-0.4c0.9-2.4,1.3-4.5,1.3-6.5c0-5.6-4.2-10-9.7-10c-6.4,0-12.7,5-20.8,16.9c-1.6-0.4-3-1-4.3-1.6l2.9-4.3
				l-1.6-1.2l-2,2.8c-2.4,3.2-4.8,4.3-9.5,4.3h-3h-1h-3h-1h-4c-5.3,0-7-1.1-7-4.8v-5.5h-2l-1.5,8.9c-1.7,1-4,1.5-7,1.5h-3h-1h-3h-1
				h-3h-1h-3h-1h-3h-1h-3h-1h-3h-1h-3h-1h-3h-1h-3h-1h-4c-5.3,0-7.1-1.4-7.1-5.4v-34h-2l-2.9,5.9l0.8,28.2
				C311.9,464.9,314.5,467.9,321.6,467.9z M429.5,451c4.4,0,8.8,3.6,9.9,7.7c-5.7,2.5-13.3,3.9-20.8,3.9c-1.6,0-3.2-0.2-4.8-0.5
				C419.8,454.4,424.3,451,429.5,451z"/>
			<polygon class="st0" points="377.1,446.6 380.9,442.6 376.9,438.7 376.5,438.7 372.6,442.6 376.6,446.6 			"/>
			<polygon class="st0" points="470.6,467.9 472.5,460.9 472.5,422.3 470.6,422.3 467.6,428.2 468.7,467.9 			"/>
			<polygon class="st0" points="497.8,439.9 500.9,436.6 504.2,439.9 504.8,439.9 508.6,436 504.6,432 504.1,432 500.9,435.3 
				497.6,432 497.1,432 493.3,436 497.3,439.9 			"/>
			<path class="st0" d="M500.6,468.9c6.1,0,9.7-4.5,9.7-11.3c0-6-2.9-9.7-13.7-14.4l-0.2,0.2v6.2c-3.1,3.7-4.8,7.7-4.8,11
				C491.6,465.8,495.1,468.9,500.6,468.9z M498.9,451.3c6.7,2.9,9.1,5.4,9.1,7.5c0,2.4-2.6,3.8-7,3.8c-4.5,0-7-1.5-7-3.9
				C493.9,456.7,495.7,454,498.9,451.3z"/>
			<path class="st0" d="M510.2,476.9v2l11.6,3.7c5.9-8.1,8.6-15.4,8.6-22.3c0-4.2-1.7-9-4.4-13.3h-1.7l-2.1,5.3
				c4.4,5.4,5.9,8.1,5.9,11.4C528.1,469.3,521.6,474.1,510.2,476.9z"/>
			<polygon class="st0" points="541.2,467.9 543.1,460.9 543.1,422.3 541.1,422.3 538.2,428.2 539.2,467.9 			"/>
			<path class="st0" d="M562.8,460.3c0-4.2-1.7-9-4.4-13.3h-1.7l-2.1,5.3c4.4,5.4,5.9,8.1,5.9,11.4c0,5.6-6.4,10.4-17.8,13.2v2
				l11.6,3.7C560.1,474.5,562.8,467.2,562.8,460.3z"/>
			<polygon class="st0" points="557.1,442.3 560.9,438.3 556.9,434.4 556.4,434.4 552.5,438.3 556.5,442.3 			"/>
			<path class="st0" d="M587.5,459.7c0-8.2-4.1-14.9-9.2-14.9c-4.5,0-9.1,6.5-9.1,12.7c0,5,2.9,8.1,8.1,8.1c2.1,0,3.8-0.3,5.7-1.3
				l1.8-4.6c0.2,1,0.4,2,0.4,3.1c0,7-7.5,11.9-20.5,14.1v2l11.5,3.7C583.3,475.8,587.5,467.2,587.5,459.7z M577.9,459.3
				c-4,0-6.3-0.9-6.3-3.1c0-2.8,2.4-5.3,5.1-5.3c3.1,0,6.3,3.4,7.7,7.5C582.7,458.9,580.7,459.3,577.9,459.3z"/>
			<polygon class="st0" points="163.1,496.4 159.9,499.6 156.6,496.4 156.1,496.4 152.3,500.3 156.2,504.3 156.8,504.3 159.9,501 
				163.2,504.3 163.8,504.3 167.6,500.3 163.6,496.4 			"/>
			<polygon class="st0" points="235.9,543.1 235.4,543.1 232.2,546.4 228.9,543.1 228.4,543.1 224.5,547 228.5,551 229.1,551 
				232.2,547.7 235.5,551 236.1,551 239.9,547 			"/>
			<path class="st0" d="M265.4,537.6h2.9h1.1h2.9h1.1h4l0,0c4.2-0.2,8.9-1.3,11.2-2.8c1-2.5,1.6-5.7,1.6-8.7s-1.2-7-2.9-9.5h-1.7
				l-2.1,5.3c2.4,2.8,3.9,5.4,4.5,7.5c-2.3,1.1-6.4,1.8-10.3,1.8h-3h-1h-3h-1h-3h-1h-3h-1h-3h-1h-3h-1h-3h-1h-3h-1h-4
				c-5.3,0-7-1.1-7-4.8V521h-2l-1.5,8.9c-1.7,1-4,1.5-7,1.5h-3h-1h-3h-1h-3h-1h-3h-1h-3h-1h-3h-1h-3h-1h-3h-1h-3h-1h-3h-1h-3h-1h-3
				h-1h-4c-4.8,0-6-1.8-6.7-7.3l-1.9-16.2h-1.7l-2,5.1l-5,3.5c-5.7,3.9-7.9,6.5-7.9,10.3c0,4.2,3.2,6.8,8.1,6.8c2,0,4.1-0.6,5.8-1.6
				c0.4-1.3,0.6-2.6,0.9-3.8h0.1v0.1c1,6.8,3.4,9.5,8.9,9.5l0,0h4h1.1h2.9h1.1h2.9h1.1h2.9h1.1h2.9h1.1h2.9h1.1h2.9h1.1h2.9h1.1h2.9
				h1.1h2.9h1.1h2.9h1.1h2.9h1.1h4l0,0c2.6-0.2,4.7-0.9,6.3-2.2c0.4-1.2,0.7-2.3,1-3.4h0.1c0.8,3.4,4.1,5.6,9,5.6v0h4h1.1h2.9h1.1
				h2.9h1.1h2.9h1.1h2.9h1.1h2.9H265.4z M154.3,527.1c-3.4,0-5.7-0.9-5.7-2.3c0-1.3,1.3-2.6,4.1-4l6.9-3.4l1.2,8.4
				C158.9,526.7,156.9,527.1,154.3,527.1z"/>
			<polygon class="st0" points="281.7,508 285.6,512 286.2,512 290,508 286,504.1 285.5,504.1 			"/>
			<path class="st0" d="M416.9,491.9h-1.7c-3.9,2.6-4.8,5.7-2.8,8.9l0.9,29.1c-2,0.8-4.7,1.3-7.3,1.3c-3.3,0-4.9-1-6.4-3.9l-1.3-2.6
				c-2.4-4.7-4.1-6.1-6.7-6.1c-4,0-7.8,4.8-9.1,11.1c-1.4,0.9-3.7,1.4-5.9,1.4c-4.2,0-7.1-0.8-9.8-2.9c3.2-2.6,4.5-4.6,4.5-6.7
				c0-3.5-2.8-5.5-7.3-5.5c-2.4,0-5,0.7-7.8,2.2l-1.9,5.2l0.7,1.6c2.5,0,4.5,1,6,3.2l0.2,0.3c-3.4,1.8-6.9,2.6-10.6,2.6h-3h-1h-3h-1
				h-3h-1h-3h-1h-3h-1h-3.9c-4.7,0-6.9-2.2-9.3-9.1l-4.5-12.9H311l-2.1,5.3l4.3,10.7c0.7,1.8,1.4,3.3,2.1,4.7
				c-2,1.4-5.1,2.3-8.6,2.3c-5.5,0-7-1-7.2-4.8l-0.1-1h-1.8c-0.6,2.2-0.9,3.9-0.9,5.1c0,4.6,2.7,6.9,8.7,6.9c3.6,0,7.6-1.3,9.6-3.2
				c0.4-1.3,0.7-2.6,0.9-3.9h0.2c2.5,4.5,5.1,6.1,8.8,6.1v0h4h1.1h2.9h1.1h2.9h1.1h2.9h1.1h2.9h1.1h4l0,0c4.4-0.3,8.5-2.3,12.9-6.3
				c3.8,4.6,7.1,6.3,11.9,6.3v0c0,0,0,0,0,0c0,0,0,0,0,0l0,0c2.6,0,5.3-1.1,7.2-2.6c3.6,1.8,8.6,3.4,13.9,4.3c0.4-1,1-2.9,1.5-4.7
				c1.8,2.1,3.7,2.9,6.8,2.9l0,0c0,0,0,0,0,0c0,0,0,0,0,0l0,0c4.5,0,8.6-1.6,10.6-2.9c1.1-2.6,1.7-5.7,1.7-8.6v-23.4l3-2.3v-0.2
				l-3-3.7V491.9z M384.7,529.4c0.9-2.7,2.8-4.5,5-4.5c1.8,0,3.2,1,4.8,4.1l1.4,2.6c0.3,0.6,0.6,1.1,0.9,1.5
				C392.9,532.5,388.2,531.1,384.7,529.4z"/>
			<polygon class="st0" points="430.4,537.6 432.3,530.6 432.3,491.9 430.3,491.9 427.4,497.9 428.4,537.6 			"/>
			<path class="st0" d="M460.4,538.6c6.1,0,9.7-4.5,9.7-11.3c0-6-2.9-9.7-13.7-14.4l-0.2,0.2v6.2c-3.1,3.7-4.8,7.7-4.8,11
				C451.3,535.5,454.8,538.6,460.4,538.6z M458.6,521c6.7,2.9,9.1,5.4,9.1,7.5c0,2.4-2.6,3.8-7,3.8c-4.5,0-7-1.5-7-3.9
				C453.6,526.3,455.4,523.6,458.6,521z"/>
			<polygon class="st0" points="456.9,501.7 453,505.6 457,509.6 457.6,509.6 460.7,506.3 464,509.6 464.5,509.6 468.3,505.6 
				464.3,501.7 463.9,501.7 460.7,505 457.4,501.7 			"/>
			<path class="st0" d="M485.5,514.4c-4.5,0-9.1,6.5-9.1,12.7c0,5,2.9,8.1,8.1,8.1c2.1,0,3.8-0.3,5.7-1.3l1.8-4.6
				c0.2,1,0.4,2,0.4,3.1c0,7-7.5,11.9-20.5,14.1v2l11.5,3.7c7.1-6.8,11.4-15.4,11.4-23C494.7,521.1,490.6,514.4,485.5,514.4z
				 M485,529c-4,0-6.3-0.9-6.3-3.1c0-2.8,2.4-5.3,5.1-5.3c3.1,0,6.3,3.4,7.7,7.5C489.9,528.6,487.8,529,485,529z"/>
			<polygon class="st0" points="525.2,502.2 528.8,498.5 525.1,494.9 524.6,494.9 521,498.5 524.7,502.2 			"/>
			<polygon class="st0" points="528.2,501.9 525,505.1 521.7,501.9 521.2,501.9 517.4,505.8 521.3,509.7 521.9,509.7 525,506.4 
				528.3,509.7 528.9,509.7 532.7,505.8 528.7,501.9 			"/>
			<path class="st0" d="M533.9,537.6C533.9,537.6,533.9,537.6,533.9,537.6L533.9,537.6c4.5,0,8.5-1.6,10.6-2.9
				c1.1-2.6,1.7-5.7,1.7-8.6v-23.4l3-2.3v-0.2l-3-3.7v-4.5h-1.7c-3.9,2.6-4.8,5.7-2.8,8.9l0.9,29.1c-2,0.8-4.7,1.3-7.3,1.3
				c-4.7,0-6.4-1.8-7.3-7.3l-1.5-9.5h-1.7l-0.8,2.2c-1.8,5.2-4,6.5-6.5,6.5c-2,0-4.3-1.1-6.9-4.4h-1.7l-2.1,5.4
				c4,3.7,5.9,6.7,5.9,9.4c0,5.5-6.4,10.3-17.8,13v2l11.6,3.7c5.9-8.1,8.6-15.4,8.6-22.3c0-0.2,0-0.5,0-0.7c0.6,0.1,1.1,0.2,1.7,0.2
				c3.2,0,5.8-2.2,7-7.1l0.7,3.9C525.9,534.9,528,537.6,533.9,537.6L533.9,537.6C533.8,537.6,533.8,537.6,533.9,537.6z"/>
			<polygon class="st0" points="561.5,530.6 561.5,491.9 559.5,491.9 556.6,497.9 557.6,537.6 559.6,537.6 			"/>
			<path class="st0" d="M565.3,546.6v2l11.5,3.7c7.1-6.8,11.4-15.4,11.4-23c0-8.2-4.1-14.9-9.2-14.9c-4.5,0-9.1,6.5-9.1,12.7
				c0,5,2.9,8.1,8.1,8.1c2.1,0,3.8-0.3,5.7-1.3l1.8-4.6c0.2,1,0.4,2,0.4,3.1C585.8,539.4,578.4,544.3,565.3,546.6z M578.6,529
				c-4,0-6.3-0.9-6.3-3.1c0-2.8,2.4-5.3,5.1-5.3c3.1,0,6.3,3.4,7.7,7.5C583.4,528.6,581.4,529,578.6,529z"/>
			<polygon class="st0" points="163.9,567.6 165.9,567 165.9,566.2 160.6,566.2 160.5,567.3 156.4,577.3 151.5,566.2 146.3,566.2 
				146.3,567 148.3,567.6 148.2,580.4 146.3,580.9 146.3,581.8 152.3,581.8 152.3,580.9 149.6,580.1 149.6,568.3 154.7,579.6 
				155.2,581.1 156.2,581.1 156.6,579.6 161.5,568 161.4,580.4 159.3,580.9 159.3,581.8 166,581.8 166,580.9 164,580.4 			"/>
			<polygon class="st0" points="171.2,570.3 167.5,571.1 167.5,572 168.9,572.4 168.9,580.4 167.4,580.9 167.4,581.8 172.9,581.8 
				172.9,580.9 171.2,580.4 			"/>
			<path class="st0" d="M171.5,565.8c0-0.8-0.7-1.5-1.6-1.5c-0.8,0-1.6,0.7-1.6,1.5c0,0.9,0.7,1.6,1.6,1.6
				C170.8,567.3,171.5,566.6,171.5,565.8z"/>
			<path class="st0" d="M185,574.3c0-3-1-3.9-3.3-3.9c-1.9,0-3.3,1.6-3.8,2.1h0l-0.5-2.1h-0.1l-3.2,1.1v0.7l1.6,0.4v7.9l-1.5,0.5
				v0.9h5.3v-0.9l-1.5-0.4v-7.2c0.2-0.3,1.4-1.2,2.6-1.2c1.5,0,2.1,0.9,2.1,2.5v5.9l-1.3,0.4v0.9h5.1v-0.9l-1.5-0.5V574.3z"/>
			<polygon class="st0" points="191.6,570.3 187.9,571.1 187.9,572 189.3,572.4 189.3,580.4 187.7,580.9 187.7,581.8 193.3,581.8 
				193.3,580.9 191.6,580.4 			"/>
			<path class="st0" d="M191.9,565.8c0-0.8-0.7-1.5-1.6-1.5c-0.8,0-1.6,0.7-1.6,1.5c0,0.9,0.7,1.6,1.6,1.6
				C191.1,567.3,191.9,566.6,191.9,565.8z"/>
			<path class="st0" d="M200.2,575.4l-1.1-0.5c-1.4-0.6-1.8-1.2-1.8-2.1c0-0.9,0.7-1.6,1.7-1.6c0.8,0,1.3,0.3,1.6,0.6l1,2.1h0.8
				l-0.1-2.9c-1-0.5-2-0.7-3-0.7c-2.3,0-4.2,1.5-4.2,3.4c0,1.5,0.8,2.3,2.4,3.1l1,0.5c1.7,0.8,2.2,1.4,2.2,2.3c0,1-0.8,1.7-2,1.7
				c-1,0-1.5-0.4-1.9-0.7l-1.2-2.6h-0.8l0.4,3.4c0.9,0.5,2,0.9,3.3,0.9c2.4,0,4.5-1.6,4.5-3.6C202.9,577.3,202.3,576.3,200.2,575.4z
				"/>
			<path class="st0" d="M209.7,580.4c-0.9,0-1.6-0.1-1.6-2V572h3v-1.3H208v-3.1h-0.8l-1.3,2.9l-1.7,0.5v1h1.7l-0.1,7.5
				c0,1.5,0.5,2.7,2.5,2.7c1.8,0,3.3-1.1,3.3-1.1l-0.2-0.7C211.3,580.3,210.4,580.4,209.7,580.4z"/>
			<path class="st0" d="M219.3,570.3c-0.9,0-1.5,0.6-2.3,1.7l-0.9,1.1h0l-0.2-2.8h-0.1l-3.4,1.1v0.8l1.6,0.3v7.9l-1.5,0.5v0.9h5.8
				v-0.9l-2.1-0.4v-6.4c0.6-0.8,1.1-1.2,1.6-1.5l1.9,0.7c0.3-0.4,0.8-1,0.8-1.7C220.6,570.8,220.1,570.3,219.3,570.3z"/>
			<path class="st0" d="M228.6,571.5l1.6,0.5l-2.9,7.9h-0.1l-2.8-8l1.7-0.4v-0.8h-5.4v0.8l1.1,0.4l4.2,11l-1.3,3h0
				c-0.3-0.5-0.7-1-1.3-1c-0.7,0-1.3,0.5-1.3,1.3c0,0.9,0.7,1.5,1.6,1.5c1.3,0,1.9-0.9,2.6-3l5.1-12.9l1.1-0.4v-0.8h-4V571.5z"/>
			<path class="st0" d="M243.5,570.3c-3.1,0-5.6,2.7-5.6,6.1c0,3.1,1.9,5.7,5.6,5.7c3.2,0,5.6-2.7,5.6-6.2
				C249.1,572.4,246.9,570.3,243.5,570.3z M243.8,581c-2.3,0-3.4-2.7-3.4-5.3c0-2.4,1-4.3,2.8-4.3c2,0,3.3,1.9,3.4,5.2
				C246.7,579.1,245.6,581,243.8,581z"/>
			<path class="st0" d="M257.3,564.2c-2.7,0-5.1,2.8-5.1,6.1v0.1l-1.6,0.5v1h1.6v8.6l-1.5,0.5v0.9h5.9v-0.9l-2.1-0.5v-8.5h3.1v-1.3
				h-3.1v-1.8c0-2.6,1.1-3.5,2.4-3.5c0.6,0,1,0.2,1,0.3l0.6,2c0,0,0.3,0.1,0.6,0.1c0.9,0,1.3-0.6,1.3-1.3
				C260.4,565.4,259.2,564.2,257.3,564.2z"/>
			<polygon class="st0" points="268.3,567.6 270.3,567 270.3,566.2 263.8,566.2 263.8,567 265.8,567.6 265.8,580.4 263.8,580.9 
				263.8,581.8 270.3,581.8 270.3,580.9 268.3,580.4 			"/>
			<path class="st0" d="M282.7,574.3c0-3-1-3.9-3.3-3.9c-1.9,0-3.3,1.6-3.8,2.1h0l-0.5-2.1H275l-3.2,1.1v0.7l1.6,0.4v7.9l-1.5,0.5
				v0.9h5.3v-0.9l-1.5-0.4v-7.2c0.2-0.3,1.4-1.2,2.6-1.2c1.5,0,2.1,0.9,2.1,2.5v5.9l-1.3,0.4v0.9h5.1v-0.9l-1.5-0.5V574.3z"/>
			<path class="st0" d="M295.9,564.3l-4.5,0.6v0.8l2.2,0.4v4.5c-0.5-0.1-1.1-0.2-1.9-0.2c-3.3,0-5.9,2.6-5.9,6.5
				c0,2.7,1.6,5.4,4.7,5.4c1.6,0,2.5-0.8,3.4-1.7l0.6,1.6l3.3-0.5v-0.8l-1.8-0.5V564.3z M293.5,579.8c-0.5,0.3-1.1,0.6-1.8,0.6
				c-2.8,0-3.8-2.4-3.8-4.8c0-2.7,1.4-4.1,3.1-4.1c1.5,0,2.3,1.2,2.5,1.5V579.8z"/>
			<path class="st0" d="M309.5,570.5l-4.2,0.4v0.9l1.8,0.4v7.3c-0.3,0.2-1.1,1-2.3,1c-1.6,0-2.3-0.9-2.4-2.7v-7.3l-3.9,0.4v0.9
				l1.6,0.4v5.9c0,2.7,1.2,4.1,3.2,4.1c2.1,0,3.5-1.5,3.9-2l0.8,1.9l3.3-0.5v-0.9l-1.8-0.4V570.5z"/>
			<path class="st0" d="M318.1,575.4l-1.1-0.5c-1.4-0.6-1.8-1.2-1.8-2.1c0-0.9,0.7-1.6,1.7-1.6c0.8,0,1.3,0.3,1.6,0.6l1,2.1h0.8
				l-0.1-2.9c-1-0.5-2-0.7-3-0.7c-2.3,0-4.2,1.5-4.2,3.4c0,1.5,0.8,2.3,2.4,3.1l1,0.5c1.7,0.8,2.2,1.4,2.2,2.3c0,1-0.8,1.7-2,1.7
				c-1,0-1.5-0.4-1.9-0.7l-1.2-2.6h-0.8l0.4,3.4c0.9,0.5,2,0.9,3.3,0.9c2.4,0,4.5-1.6,4.5-3.6C320.9,577.3,320.2,576.3,318.1,575.4z
				"/>
			<path class="st0" d="M327.6,580.4c-0.9,0-1.6-0.1-1.6-2V572h3v-1.3h-3.1v-3.1h-0.8l-1.3,2.9l-1.7,0.5v1h1.7l-0.1,7.5
				c0,1.5,0.5,2.7,2.5,2.7c1.8,0,3.3-1.1,3.3-1.1l-0.2-0.7C329.2,580.3,328.3,580.4,327.6,580.4z"/>
			<path class="st0" d="M337.2,570.3c-0.9,0-1.5,0.6-2.3,1.7l-0.9,1.1h0l-0.2-2.8h-0.1l-3.4,1.1v0.8l1.6,0.3v7.9l-1.5,0.5v0.9h5.8
				v-0.9l-2.1-0.4v-6.4c0.6-0.8,1.1-1.2,1.6-1.5l1.9,0.7c0.3-0.4,0.8-1,0.8-1.7C338.5,570.8,338.1,570.3,337.2,570.3z"/>
			<path class="st0" d="M346.6,571.5l1.6,0.5l-2.9,7.9h-0.1l-2.8-8l1.7-0.4v-0.8h-5.4v0.8l1.1,0.4l4.2,11l-1.3,3h0
				c-0.3-0.5-0.7-1-1.3-1c-0.7,0-1.3,0.5-1.3,1.3c0,0.9,0.7,1.5,1.6,1.5c1.3,0,1.9-0.9,2.6-3l5.1-12.9l1.1-0.4v-0.8h-4V571.5z"/>
			<path class="st0" d="M364.7,580v-6.2c0-2.4-1-3.5-3.5-3.5c-2.5,0-4.7,1.7-4.7,2.9c0,0.7,0.4,1.1,1.2,1.1c0.4,0,1-0.1,1-0.1
				l0.1-2.3c0.2-0.1,0.8-0.4,1.4-0.4c1.3,0,2.1,0.9,2.2,2.7v1.1l-2.5,0.6c-2.4,0.6-3.8,1.5-3.8,3.4c0,1.9,1.5,2.8,2.9,2.8
				c1.5,0,2.1-0.7,3.3-1.9h0.1c0,1,0.5,1.9,1.8,1.9c1,0,2.4-0.6,2.4-0.6v-0.7h-1.1C364.8,580.7,364.7,580.6,364.7,580z M362.4,579.3
				c-0.3,0.4-0.9,1.1-1.9,1.1c-1,0-1.9-0.6-1.9-1.8c0-1,0.7-1.4,1.8-1.8l2-0.7V579.3z"/>
			<path class="st0" d="M378.6,574.3c0-3-1-3.9-3.3-3.9c-1.9,0-3.3,1.6-3.8,2.1h0l-0.5-2.1h-0.1l-3.2,1.1v0.7l1.6,0.4v7.9l-1.5,0.5
				v0.9h5.3v-0.9l-1.5-0.4v-7.2c0.2-0.3,1.4-1.2,2.6-1.2c1.5,0,2.1,0.9,2.1,2.5v5.9l-1.3,0.4v0.9h5.1v-0.9l-1.5-0.5V574.3z"/>
			<path class="st0" d="M391.7,564.3l-4.5,0.6v0.8l2.2,0.4v4.5c-0.5-0.1-1.1-0.2-1.9-0.2c-3.3,0-5.9,2.6-5.9,6.5
				c0,2.7,1.6,5.4,4.7,5.4c1.6,0,2.5-0.8,3.4-1.7l0.6,1.6l3.3-0.5v-0.8l-1.8-0.5V564.3z M389.4,579.8c-0.5,0.3-1.1,0.6-1.8,0.6
				c-2.8,0-3.8-2.4-3.8-4.8c0-2.7,1.4-4.1,3.1-4.1c1.5,0,2.3,1.2,2.5,1.5V579.8z"/>
			<polygon class="st0" points="417.4,567.6 419.4,567 419.4,566.2 414.1,566.2 414,567.3 409.9,577.3 404.9,566.2 399.8,566.2 
				399.8,567 401.8,567.6 401.7,580.4 399.7,580.9 399.7,581.8 405.7,581.8 405.7,580.9 403.1,580.1 403.1,568.3 408.2,579.6 
				408.7,581.1 409.6,581.1 410.1,579.6 414.9,568 414.9,580.4 412.8,580.9 412.8,581.8 419.4,581.8 419.4,580.9 417.5,580.4 			"/>
			<path class="st0" d="M421.8,565.8c0,0.9,0.7,1.6,1.6,1.6c0.8,0,1.6-0.7,1.6-1.6c0-0.8-0.7-1.5-1.6-1.5
				C422.5,564.2,421.8,564.9,421.8,565.8z"/>
			<polygon class="st0" points="424.7,570.3 421,571.1 421,572 422.4,572.4 422.4,580.4 420.8,580.9 420.8,581.8 426.4,581.8 
				426.4,580.9 424.7,580.4 			"/>
			<path class="st0" d="M438.4,574.3c0-3-1-3.9-3.3-3.9c-1.9,0-3.3,1.6-3.8,2.1h0l-0.5-2.1h-0.1l-3.2,1.1v0.7l1.6,0.4v7.9l-1.5,0.5
				v0.9h5.3v-0.9l-1.5-0.4v-7.2c0.2-0.3,1.4-1.2,2.6-1.2c1.5,0,2.1,0.9,2.1,2.5v5.9l-1.3,0.4v0.9h5.1v-0.9l-1.5-0.5V574.3z"/>
			<path class="st0" d="M447.6,580.2c-2.4,0-4.1-1.7-4.1-4.7h7.7c0-3.2-1.5-5.1-4.3-5.1c-3.2,0-5.6,2.7-5.6,6.3
				c0,2.2,1.3,5.5,5.2,5.5c3.4,0,4.6-3,4.7-3.3l-0.5-0.3C450.8,578.5,449.6,580.2,447.6,580.2z M446.4,571.5c1.5,0,2.2,1.4,2.2,3h-5
				C443.9,572.7,445,571.5,446.4,571.5z"/>
			<path class="st0" d="M460,570.3c-0.9,0-1.5,0.6-2.3,1.7l-0.9,1.1h0l-0.2-2.8h-0.1l-3.4,1.1v0.8l1.6,0.3v7.9l-1.5,0.5v0.9h5.8
				v-0.9l-2.1-0.4v-6.4c0.6-0.8,1.1-1.2,1.6-1.5l1.9,0.7c0.3-0.4,0.8-1,0.8-1.7C461.3,570.8,460.8,570.3,460,570.3z"/>
			<path class="st0" d="M470.8,580v-6.2c0-2.4-1-3.5-3.5-3.5c-2.5,0-4.7,1.7-4.7,2.9c0,0.7,0.4,1.1,1.2,1.1c0.4,0,1-0.1,1-0.1
				l0.1-2.3c0.2-0.1,0.8-0.4,1.4-0.4c1.3,0,2.1,0.9,2.2,2.7v1.1l-2.5,0.6c-2.4,0.6-3.8,1.5-3.8,3.4c0,1.9,1.5,2.8,2.9,2.8
				c1.5,0,2.1-0.7,3.3-1.9h0.1c0,1,0.5,1.9,1.8,1.9c1,0,2.4-0.6,2.4-0.6v-0.7h-1.1C470.9,580.7,470.8,580.6,470.8,580z M468.4,579.3
				c-0.3,0.4-0.9,1.1-1.9,1.1c-1,0-1.9-0.6-1.9-1.8c0-1,0.7-1.4,1.8-1.8l2-0.7V579.3z"/>
			<polygon class="st0" points="477.5,564.3 473.7,565 473.7,565.9 475.2,566.3 475.2,580.4 473.7,580.9 473.7,581.8 479.1,581.8 
				479.1,580.9 477.5,580.5 			"/>
			<path class="st0" d="M494.3,574.1L494.3,574.1c2-0.7,3.5-2,3.5-4c0-2.5-2.3-4-6.7-3.9l-5.7,0.1v0.8l2,0.6v12.8l-2,0.5v0.9h6.5
				v-0.9l-1.9-0.5v-5.6l1.9-0.1c0,0,0.3,0.5,1,1.5l3.9,5.5h4v-0.9l-2-0.5L494.3,574.1z M491.7,573.8h-1.8V567
				c3.3-0.1,5.1,1.3,5.1,3.5C495.1,572.3,493.6,573.6,491.7,573.8z"/>
			<path class="st0" d="M507.1,580.2c-2.4,0-4.1-1.7-4.1-4.7h7.7c0-3.2-1.5-5.1-4.3-5.1c-3.2,0-5.6,2.7-5.6,6.3
				c0,2.2,1.3,5.5,5.2,5.5c3.4,0,4.6-3,4.7-3.3l-0.5-0.3C510.3,578.5,509.1,580.2,507.1,580.2z M506,571.5c1.5,0,2.2,1.4,2.2,3h-5
				C503.4,572.7,504.5,571.5,506,571.5z"/>
			<path class="st0" d="M518.2,575.4l-1.1-0.5c-1.4-0.6-1.8-1.2-1.8-2.1c0-0.9,0.7-1.6,1.7-1.6c0.8,0,1.3,0.3,1.6,0.6l1,2.1h0.8
				l-0.1-2.9c-1-0.5-2-0.7-3-0.7c-2.3,0-4.2,1.5-4.2,3.4c0,1.5,0.8,2.3,2.4,3.1l1,0.5c1.7,0.8,2.2,1.4,2.2,2.3c0,1-0.8,1.7-2,1.7
				c-1,0-1.5-0.4-1.9-0.7l-1.2-2.6h-0.8l0.4,3.4c0.9,0.5,2,0.9,3.3,0.9c2.4,0,4.5-1.6,4.5-3.6C521,577.3,520.3,576.3,518.2,575.4z"
				/>
			<path class="st0" d="M528.5,570.3c-3.1,0-5.6,2.7-5.6,6.1c0,3.1,1.9,5.7,5.6,5.7c3.2,0,5.6-2.7,5.6-6.2
				C534.1,572.4,531.9,570.3,528.5,570.3z M528.8,581c-2.3,0-3.4-2.7-3.4-5.3c0-2.4,1-4.3,2.8-4.3c2,0,3.3,1.9,3.4,5.2
				C531.6,579.1,530.6,581,528.8,581z"/>
			<path class="st0" d="M546.1,570.5l-4.2,0.4v0.9l1.8,0.4v7.3c-0.3,0.2-1.1,1-2.3,1c-1.6,0-2.3-0.9-2.4-2.7v-7.3l-3.9,0.4v0.9
				l1.6,0.4v5.9c0,2.7,1.2,4.1,3.2,4.1c2.1,0,3.5-1.5,3.9-2l0.8,1.9l3.3-0.5v-0.9l-1.8-0.4V570.5z"/>
			<path class="st0" d="M555.7,570.3c-0.9,0-1.5,0.6-2.3,1.7l-0.9,1.1h0l-0.2-2.8h-0.1l-3.4,1.1v0.8l1.6,0.3v7.9l-1.5,0.5v0.9h5.8
				v-0.9l-2.1-0.4v-6.4c0.6-0.8,1.1-1.2,1.6-1.5l1.9,0.7c0.3-0.4,0.8-1,0.8-1.7C557,570.8,556.6,570.3,555.7,570.3z"/>
			<path class="st0" d="M564.1,580.3c-2.3,0-4-2.1-4-4.7c0-2.3,1.3-4.2,3.2-4.2c0.8,0,1.3,0.3,1.3,0.3l0.3,2.3c0,0,0.4,0.1,0.9,0.1
				c0.8,0,1.3-0.6,1.3-1.4c0-1.3-1.4-2.4-3.4-2.4c-2.9,0-5.9,2.4-5.9,6.3c0,3.5,2.3,5.5,5.1,5.5c3.1,0,4.2-2.6,4.4-2.9l-0.5-0.4
				C566.8,578.9,565.7,580.3,564.1,580.3z"/>
			<path class="st0" d="M575,580.2c-2.4,0-4.1-1.7-4.1-4.7h7.7c0-3.2-1.5-5.1-4.3-5.1c-3.2,0-5.6,2.7-5.6,6.3c0,2.2,1.3,5.5,5.2,5.5
				c3.4,0,4.6-3,4.7-3.3l-0.5-0.3C578.2,578.5,577,580.2,575,580.2z M573.8,571.5c1.5,0,2.2,1.4,2.2,3h-5
				C571.3,572.7,572.4,571.5,573.8,571.5z"/>
			<path class="st0" d="M586.1,575.4l-1.1-0.5c-1.4-0.6-1.8-1.2-1.8-2.1c0-0.9,0.7-1.6,1.7-1.6c0.8,0,1.3,0.3,1.6,0.6l1,2.1h0.8
				l-0.1-2.9c-1-0.5-2-0.7-3-0.7c-2.3,0-4.2,1.5-4.2,3.4c0,1.5,0.8,2.3,2.4,3.1l1,0.5c1.7,0.8,2.2,1.4,2.2,2.3c0,1-0.8,1.7-2,1.7
				c-1,0-1.5-0.4-1.9-0.7l-1.2-2.6h-0.8l0.4,3.4c0.9,0.5,2,0.9,3.3,0.9c2.4,0,4.5-1.6,4.5-3.6C588.9,577.3,588.2,576.3,586.1,575.4z
				"/>
		</g>
	</g>
	<g>
		<g>
			<g>
				<g>
					<path class="st1" d="M649.3,465c0,0.1,0,0.1,0,0.2l0,0C649.3,465.1,649.3,465.1,649.3,465z"/>
				</g>
				<path class="st2" d="M836.8,496.5C836.7,496.5,836.7,496.5,836.8,496.5"/>
				<path class="st2" d="M836.8,496.5C836.7,496.5,836.7,496.5,836.8,496.5"/>
				<path class="st3" d="M787.7,599.4c0.7-0.2,1.4-0.4,2.1-0.7C789.2,598.9,788.5,599.2,787.7,599.4z"/>
				
					<linearGradient id="SVGID_1_" gradientUnits="userSpaceOnUse" x1="823.6796" y1="463.7169" x2="546.5853" y2="473.5132" gradientTransform="matrix(0.9986 5.233596e-02 -5.233596e-02 0.9986 138.0479 50.1273)">
					<stop  offset="0.1266" style="stop-color:#DCD8D6"/>
					<stop  offset="0.1645" style="stop-color:#CDCAC8"/>
					<stop  offset="0.2369" style="stop-color:#A6A5A5"/>
					<stop  offset="0.2462" style="stop-color:#A1A0A0"/>
					<stop  offset="0.2793" style="stop-color:#A8A8A8"/>
					<stop  offset="0.3237" style="stop-color:#BABABA"/>
					<stop  offset="0.3554" style="stop-color:#ABABAB"/>
					<stop  offset="0.4164" style="stop-color:#838383"/>
					<stop  offset="0.4212" style="stop-color:#808080"/>
					<stop  offset="0.4832" style="stop-color:#8D8D8D"/>
					<stop  offset="0.5986" style="stop-color:#B1B1B1"/>
					<stop  offset="0.698" style="stop-color:#D4D4D4"/>
					<stop  offset="0.7251" style="stop-color:#CACBCB"/>
					<stop  offset="0.7707" style="stop-color:#B0B2B2"/>
					<stop  offset="0.8292" style="stop-color:#858989"/>
					<stop  offset="0.8953" style="stop-color:#4D5454"/>
					<stop  offset="0.9187" style="stop-color:#6F7373"/>
					<stop  offset="0.9556" style="stop-color:#9EA0A0"/>
					<stop  offset="0.9839" style="stop-color:#BCBCBC"/>
					<stop  offset="1" style="stop-color:#C7C6C6"/>
				</linearGradient>
				<path class="st4" d="M853.9,509.6c-0.9,14-6.8,39.5-14.4,51.6c-6.5,10.3-28.3,29.1-46.7,36.5c-0.1,0-0.1,0.1-0.2,0.1
					c0,0-0.1,0-0.1,0c0,0-0.1,0-0.1,0c-0.1,0-0.1,0-0.2,0.1c-0.1,0-0.1,0.1-0.2,0.1c-9,3.4-20.1-1.9-26.5-5.7
					c-0.1,0-0.2-0.1-0.2-0.1c-1.1-0.7-2.1-1.3-2.9-1.9c-1.3-0.9-2.1-1.5-2.1-1.5c-1.8-1.3-3.5-2.7-5.2-4.1c-0.5-0.4-0.9-0.8-1.4-1.1
					c-0.5-0.5-1.1-0.9-1.6-1.4c-0.8-0.7-1.6-1.4-2.4-2.2c-0.8-0.7-1.6-1.5-2.4-2.2c-0.8-0.8-1.7-1.6-2.5-2.4
					c-1.2-1.2-2.5-2.4-3.7-3.7c27.4-6,70.8-23,95-40.5c10.1-7.2,16.8-14.6,17.8-21.2C853.8,509.8,853.8,509.7,853.9,509.6z"/>
				<path class="st3" d="M853.8,509.4l0,0.2c0,0.1,0,0.2-0.1,0.3C853.7,509.8,853.8,509.6,853.8,509.4z"/>
				
					<linearGradient id="SVGID_00000027568993363018824580000005927153180700310677_" gradientUnits="userSpaceOnUse" x1="548.088" y1="350.4542" x2="816.0757" y2="873.0156" gradientTransform="matrix(0.9986 5.233596e-02 -5.233596e-02 0.9986 138.0479 50.1273)">
					<stop  offset="3.051987e-02" style="stop-color:#4E4D4D"/>
					<stop  offset="4.308575e-02" style="stop-color:#626161"/>
					<stop  offset="5.869114e-02" style="stop-color:#727272"/>
					<stop  offset="7.800617e-02" style="stop-color:#7E7E7E"/>
					<stop  offset="0.1048" style="stop-color:#848585"/>
					<stop  offset="0.1762" style="stop-color:#868787"/>
					<stop  offset="0.3476" style="stop-color:#4E4D4D"/>
					<stop  offset="0.3897" style="stop-color:#6A6969"/>
					<stop  offset="0.4445" style="stop-color:#878686"/>
					<stop  offset="0.5059" style="stop-color:#9E9D9D"/>
					<stop  offset="0.5756" style="stop-color:#B1B0B0"/>
					<stop  offset="0.6583" style="stop-color:#BDBCBC"/>
					<stop  offset="0.7668" style="stop-color:#C5C4C4"/>
					<stop  offset="1" style="stop-color:#C7C6C6"/>
				</linearGradient>
				<path style="fill:url(#SVGID_00000027568993363018824580000005927153180700310677_);" d="M792,598c-0.5,0.2-1.2,0.5-2,0.7
					c-0.6,0.2-1.3,0.5-2.1,0.7c-0.5,0.2-1.1,0.3-1.7,0.5c-0.2,0.1-0.5,0.1-0.8,0.2c-0.3,0.1-0.5,0.1-0.8,0.2
					c-0.3,0.1-0.6,0.1-0.9,0.2c-0.4,0.1-0.8,0.1-1.2,0.2c-14,1.5-53.3-4.3-77.6-15.6c-0.4-0.2-0.7-0.3-1-0.5
					c-0.4-0.2-0.7-0.4-1.1-0.5c-9-4.6-14.6-10.3-17-13.2c-16.8-20.9-37.1-71.4-36.8-100.4l0-0.1c0.1-1.7,0.7-7.4,4.4-13.5
					c0.1-0.1,0.2-0.3,0.3-0.4c0.2-0.3,0.4-0.7,0.6-1c4-6,10-12.4,17.4-17.1c7.9,39,33.6,97.1,69.3,133.3c1.2,1.2,2.5,2.5,3.7,3.7
					c1.6,1.6,3.3,3.2,4.9,4.6c0.8,0.7,1.6,1.5,2.4,2.2c0.5,0.5,1.1,0.9,1.6,1.4c0.5,0.4,0.9,0.8,1.4,1.1c1.7,1.4,3.5,2.8,5.2,4.1
					c0,0,0.8,0.6,2.1,1.5c0.8,0.5,1.8,1.2,2.9,1.9c0.1,0,0.2,0.1,0.2,0.1C771.9,596.1,783,601.3,792,598z"/>
				<g>
					
						<linearGradient id="SVGID_00000062900412869427319790000000359166538740421515_" gradientUnits="userSpaceOnUse" x1="711.1291" y1="482.9874" x2="487.6846" y2="366.7962" gradientTransform="matrix(0.9986 5.233596e-02 -5.233596e-02 0.9986 138.0479 50.1273)">
						<stop  offset="0" style="stop-color:#DCD8D6"/>
						<stop  offset="4.310433e-02" style="stop-color:#B3B2B1"/>
						<stop  offset="0.1246" style="stop-color:#6A6F6E"/>
						<stop  offset="0.1624" style="stop-color:#4D5454"/>
						<stop  offset="0.7274" style="stop-color:#7C8285"/>
						<stop  offset="0.8217" style="stop-color:#848A8E"/>
						<stop  offset="0.839" style="stop-color:#898F92"/>
						<stop  offset="0.8601" style="stop-color:#989C9F"/>
						<stop  offset="0.8832" style="stop-color:#B1B2B3"/>
						<stop  offset="0.8997" style="stop-color:#C7C6C6"/>
					</linearGradient>
					<path style="fill:url(#SVGID_00000062900412869427319790000000359166538740421515_);" d="M649.2,465.3c-0.2,1.6-0.3,3-0.3,4.2
						C649,468.3,649.1,466.9,649.2,465.3z"/>
					
						<linearGradient id="SVGID_00000091728690094508059360000011062486584466871997_" gradientUnits="userSpaceOnUse" x1="697.5082" y1="478.9259" x2="474.0637" y2="362.7347" gradientTransform="matrix(0.9986 5.233596e-02 -5.233596e-02 0.9986 138.0479 50.1273)">
						<stop  offset="0" style="stop-color:#DCD8D6"/>
						<stop  offset="4.310433e-02" style="stop-color:#B3B2B1"/>
						<stop  offset="0.1246" style="stop-color:#6A6F6E"/>
						<stop  offset="0.1624" style="stop-color:#4D5454"/>
						<stop  offset="0.3014" style="stop-color:#767B7C"/>
						<stop  offset="0.5858" style="stop-color:#D5D5D6"/>
						<stop  offset="0.6658" style="stop-color:#D3D3D4"/>
						<stop  offset="0.7118" style="stop-color:#CACBCD"/>
						<stop  offset="0.7491" style="stop-color:#BCBEC0"/>
						<stop  offset="0.7818" style="stop-color:#A9ACAE"/>
						<stop  offset="0.8112" style="stop-color:#8F9498"/>
						<stop  offset="0.8217" style="stop-color:#848A8E"/>
						<stop  offset="0.839" style="stop-color:#898F92"/>
						<stop  offset="0.8601" style="stop-color:#989C9F"/>
						<stop  offset="0.8832" style="stop-color:#B1B2B3"/>
						<stop  offset="0.8997" style="stop-color:#C7C6C6"/>
						<stop  offset="0.9219" style="stop-color:#C2C1C2"/>
						<stop  offset="0.9493" style="stop-color:#B3B4B5"/>
						<stop  offset="0.9794" style="stop-color:#9A9DA0"/>
						<stop  offset="1" style="stop-color:#848A8E"/>
					</linearGradient>
					<path style="fill:url(#SVGID_00000091728690094508059360000011062486584466871997_);" d="M648.9,470c0,0.1,0,0.2,0,0.3l0,0.5
						c0-0.1,0-0.2,0-0.3C648.9,470.3,648.9,470.1,648.9,470z"/>
					
						<linearGradient id="SVGID_00000160883389357857440440000008682038076307082144_" gradientUnits="userSpaceOnUse" x1="699.6301" y1="474.8455" x2="476.1855" y2="358.6543" gradientTransform="matrix(0.9986 5.233596e-02 -5.233596e-02 0.9986 138.0479 50.1273)">
						<stop  offset="0" style="stop-color:#DCD8D6"/>
						<stop  offset="4.310433e-02" style="stop-color:#B3B2B1"/>
						<stop  offset="0.1246" style="stop-color:#6A6F6E"/>
						<stop  offset="0.1624" style="stop-color:#4D5454"/>
						<stop  offset="0.3014" style="stop-color:#767B7C"/>
						<stop  offset="0.5858" style="stop-color:#D5D5D6"/>
						<stop  offset="0.6658" style="stop-color:#D3D3D4"/>
						<stop  offset="0.7118" style="stop-color:#CACBCD"/>
						<stop  offset="0.7491" style="stop-color:#BCBEC0"/>
						<stop  offset="0.7818" style="stop-color:#A9ACAE"/>
						<stop  offset="0.8112" style="stop-color:#8F9498"/>
						<stop  offset="0.8217" style="stop-color:#848A8E"/>
						<stop  offset="0.839" style="stop-color:#898F92"/>
						<stop  offset="0.8601" style="stop-color:#989C9F"/>
						<stop  offset="0.8832" style="stop-color:#B1B2B3"/>
						<stop  offset="0.8997" style="stop-color:#C7C6C6"/>
						<stop  offset="0.9219" style="stop-color:#C2C1C2"/>
						<stop  offset="0.9493" style="stop-color:#B3B4B5"/>
						<stop  offset="0.9794" style="stop-color:#9A9DA0"/>
						<stop  offset="1" style="stop-color:#848A8E"/>
					</linearGradient>
					<path style="fill:url(#SVGID_00000160883389357857440440000008682038076307082144_);" d="M649.3,465.2
						C649.3,465.2,649.2,465.3,649.3,465.2L649.3,465.2L649.3,465.2z"/>
					
						<linearGradient id="SVGID_00000173852100430617491910000003161439838847541120_" gradientUnits="userSpaceOnUse" x1="729.8054" y1="416.8162" x2="506.3608" y2="300.625" gradientTransform="matrix(0.9986 5.233596e-02 -5.233596e-02 0.9986 138.0479 50.1273)">
						<stop  offset="0" style="stop-color:#DCD8D6"/>
						<stop  offset="4.310433e-02" style="stop-color:#B3B2B1"/>
						<stop  offset="0.1246" style="stop-color:#6A6F6E"/>
						<stop  offset="0.1624" style="stop-color:#4D5454"/>
						<stop  offset="0.3014" style="stop-color:#767B7C"/>
						<stop  offset="0.5858" style="stop-color:#D5D5D6"/>
						<stop  offset="0.6658" style="stop-color:#D3D3D4"/>
						<stop  offset="0.7118" style="stop-color:#CACBCD"/>
						<stop  offset="0.7491" style="stop-color:#BCBEC0"/>
						<stop  offset="0.7818" style="stop-color:#A9ACAE"/>
						<stop  offset="0.8112" style="stop-color:#8F9498"/>
						<stop  offset="0.8217" style="stop-color:#848A8E"/>
						<stop  offset="0.839" style="stop-color:#898F92"/>
						<stop  offset="0.8601" style="stop-color:#989C9F"/>
						<stop  offset="0.8832" style="stop-color:#B1B2B3"/>
						<stop  offset="0.8997" style="stop-color:#C7C6C6"/>
						<stop  offset="0.9219" style="stop-color:#C2C1C2"/>
						<stop  offset="0.9493" style="stop-color:#B3B4B5"/>
						<stop  offset="0.9794" style="stop-color:#9A9DA0"/>
						<stop  offset="1" style="stop-color:#848A8E"/>
					</linearGradient>
					<path style="fill:url(#SVGID_00000173852100430617491910000003161439838847541120_);" d="M853.8,509.4l0,0.2
						c0,0.1,0,0.2-0.1,0.3C853.7,509.8,853.8,509.6,853.8,509.4z"/>
				</g>
				
					<linearGradient id="SVGID_00000049194189571863956720000018338248974825404346_" gradientUnits="userSpaceOnUse" x1="728.7589" y1="450.1358" x2="467.8424" y2="295.9702" gradientTransform="matrix(0.9986 5.233596e-02 -5.233596e-02 0.9986 138.0479 50.1273)">
					<stop  offset="3.328979e-02" style="stop-color:#676767"/>
					<stop  offset="8.797763e-02" style="stop-color:#7D7C7C"/>
					<stop  offset="0.1573" style="stop-color:#919090"/>
					<stop  offset="0.2265" style="stop-color:#9D9C9C"/>
					<stop  offset="0.2946" style="stop-color:#A1A0A0"/>
					<stop  offset="0.3503" style="stop-color:#999898"/>
					<stop  offset="0.4379" style="stop-color:#828282"/>
					<stop  offset="0.5205" style="stop-color:#676767"/>
					<stop  offset="0.5272" style="stop-color:#6C6C6C"/>
					<stop  offset="0.589" style="stop-color:#969696"/>
					<stop  offset="0.6375" style="stop-color:#B0B0B0"/>
					<stop  offset="0.6664" style="stop-color:#BABABA"/>
					<stop  offset="0.7111" style="stop-color:#B8B8B8"/>
					<stop  offset="0.7277" style="stop-color:#B1B2B3"/>
					<stop  offset="0.7396" style="stop-color:#A5A8A9"/>
					<stop  offset="0.7492" style="stop-color:#94999B"/>
					<stop  offset="0.7556" style="stop-color:#848A8E"/>
					<stop  offset="0.7877" style="stop-color:#898F92"/>
					<stop  offset="0.8267" style="stop-color:#989C9F"/>
					<stop  offset="0.8692" style="stop-color:#B1B2B3"/>
					<stop  offset="0.8997" style="stop-color:#C7C6C6"/>
					<stop  offset="0.9219" style="stop-color:#C2C1C2"/>
					<stop  offset="0.9493" style="stop-color:#B3B4B5"/>
					<stop  offset="0.9794" style="stop-color:#9A9DA0"/>
					<stop  offset="1" style="stop-color:#848A8E"/>
				</linearGradient>
				<path style="fill:url(#SVGID_00000049194189571863956720000018338248974825404346_);" d="M853.8,509.6l0-0.2
					c0,0.2,0,0.4-0.1,0.5c-1,6.6-7.7,13.9-17.8,21.2c-6.6-2.3-24.3-9.2-45.5-24.5c-37.8-27.3-62.1-72.8-93.9-75.1
					c-9.2-0.7-17.7,2.3-24.9,6.9c-7.4,4.7-13.5,11.1-17.4,17.1c-0.2,0.3-0.4,0.7-0.6,1c-0.1,0.2-0.2,0.3-0.3,0.4
					c-3.7,6.1-4.3,11.7-4.4,13.5c0-0.1,0-0.2,0-0.3c0-0.2,0-0.3,0-0.5c0-1.2,0.1-2.6,0.3-4.2c0,0,0-0.1,0-0.1l0,0c0-0.1,0-0.1,0-0.2
					c0-0.2,0-0.4,0.1-0.6c0,0,0-0.1,0-0.1c4.5-30.7,36.6-65.8,62.6-65.1c31.5,0.8,58.5,38.4,82.9,61c21,19.4,37.9,27.6,48.6,34.5
					l0,0c0,0,0,0,0,0c6.9,4.4,10.7,8.4,10.3,14.7C853.8,509.5,853.8,509.5,853.8,509.6z"/>
			</g>
		</g>
	</g>
</g>
</svg>
