<?xml version="1.0" encoding="utf-8"?>
<!-- Generator: Adobe Illustrator 27.2.0, SVG Export Plug-In . SVG Version: 6.00 Build 0)  -->
<svg version="1.1" id="Layer_1" xmlns="http://www.w3.org/2000/svg" xmlns:xlink="http://www.w3.org/1999/xlink" x="0px" y="0px"
	 viewBox="0 0 1000 1000" style="enable-background:new 0 0 1000 1000;" xml:space="preserve">
<style type="text/css">
	.st0{fill:#306782;}
	.st1{fill:#54B0D9;}
	.st2{fill:#2D6780;}
	.st3{fill:#8DC341;}
</style>
<g>
	<g>
		<path class="st0" d="M571.6,801.5c-17.1,0-30.9,11.2-30.9,31.2s13.8,31.2,30.9,31.2s30.9-12,30.9-31.2
			C602.4,812.8,588.6,801.5,571.6,801.5 M571.6,851.5c-8.3,0-15.2-7.1-15.2-18.9c0-11.7,6.8-18.9,15.2-18.9
			c8.3,0,15.2,7.3,15.2,18.9C586.8,844.5,580.1,851.5,571.6,851.5"/>
		<path class="st0" d="M438.9,801.5c-17.1,0-30.9,11.2-30.9,31.2s13.8,31.2,30.9,31.2s30.9-12,30.9-31.2
			C469.8,812.8,456,801.5,438.9,801.5 M439,851.5c-8.3,0-15.2-7.1-15.2-18.9c0-11.7,6.8-18.9,15.2-18.9c8.3,0,15.2,7.3,15.2,18.9
			C454.2,844.5,447.5,851.5,439,851.5"/>
		<path class="st0" d="M389.6,801.6l-21,24l0,0l-21-24l-10.1,0.1c0,0,0.1,43.7,0.1,60.6v1.4h14v-35.9l17,18.4v0.1l0,0l0,0v-0.1
			l17-18.4v35.9h14v-1.4c0-16.9,0.1-60.6,0.1-60.6L389.6,801.6z"/>
		<polygon class="st0" points="661.9,801.8 647.9,801.8 647.9,837.8 619.7,801.8 609.5,801.8 609.7,863.8 623.7,863.8 623.7,827.9 
			651.6,863.8 662,863.8 		"/>
		<path class="st0" d="M519.4,806.8c-5.5-3.5-11.6-4.9-18-5.1c-4.4-0.1-8.9,0.3-13.3,0.6c-3.1,0.4-6.2,1.1-9.3,1.7v57.5
			c4.5,0.6,8.9,1.4,13.4,1.9c7.1,0.7,14.2,0.6,21-1.6c8.4-2.8,14.5-8.3,17.3-16.7c2.4-7,2.4-14.2,0.7-21.4
			C529.5,816.5,525.7,810.7,519.4,806.8 M515.1,840.8c-2.3,6.9-8.1,10.9-15.4,10.6c-1.8-0.1-4.3-0.3-6.1-0.5v-36.7v-0.4
			c4-0.1,8.1,0,11.9,1.3c5.2,1.9,8.4,5.5,10,10.8C516.8,830.9,516.8,836,515.1,840.8"/>
		<polygon class="st1" points="422.2,278.1 422.2,433.3 338,474.8 338,319.4 		"/>
		<polygon class="st1" points="639.6,331.7 639.6,455.5 662.3,444.3 662.3,343 		"/>
		<polygon class="st2" points="499.3,146.7 437.6,187.9 437.6,271.7 480.6,292.8 480.6,540.9 499.3,546.6 		"/>
		<polygon class="st3" points="621.3,270.2 621.3,322.6 598.9,311.6 598.9,455.7 540.9,427.8 540.9,319.8 578.3,301.4 578.3,249.1 
					"/>
		<polygon class="st2" points="508,598.8 591.1,634.2 716.4,634.2 549.7,580.9 		"/>
		<polygon class="st1" points="365,525.9 337.3,525.9 450.3,574.2 488.7,562.8 		"/>
		<polygon class="st3" points="634.8,525.9 513.1,562.1 499.8,566.1 459.5,578.1 455.6,579.2 283.6,634.2 408.5,634.2 494.1,597.8 
			499.8,595.3 540.1,578.1 551.5,573.3 662.3,525.9 		"/>
		<path class="st0" d="M638.6,761.9c10.2-3.6,17.2-10.7,20.8-20.9c3-8.3,3.2-16.9,1.3-25.4c-2.2-10-7.6-17.8-16.8-22.7
			c-6.2-3.4-12.9-4.6-19.8-4.8c-5.2,0.1-10.1,0.7-14.9,2.4c-10.2,3.7-17.2,10.6-20.7,20.8c-1.1,3.1-1.7,6.2-2.2,9.2
			c0,0.1,0,0.1,0,0.1c-0.4,3-0.4,5.1-1,7.1c-0.7,2-1.5,3.6-2.6,4.8c-1,1.2-2.2,2.1-3.4,2.5c-1.3,0.4-2.5,1-3.8,1h-43.2
			c-0.3,0-0.5,0-0.8,0h-25.8v-13.2c0-5.3-0.5-10.2-1.7-14.7c-1.1-4.5-3.1-8.2-5.8-11.1c-3.2-3.4-7.1-5.8-11.4-7.4
			c-4.3-1.5-10.3-2.2-16.2-2.2h-22.4v18h25c2.3,0,4.4,0.4,6.4,1.3c1.9,0.9,3.4,2.1,4.6,3.5s2.1,3.1,2.6,5.1c0.5,1.9,0.8,4.1,0.8,6.7
			v14h-9.3h-46.9v18h74.7l0,0h25.1c0.4,0,0.6,0.1,1,0.1h38.5c1.6,0,3.2-0.1,5.1-0.4c1.8-0.3,3.6-0.6,5.3-1.3
			c1.7-0.6,3.3-1.5,4.9-2.7c1.5-1.1,2.9-2.6,4-4.3c3.9,7.8,10.1,13.5,18.7,16.5C618.8,765.4,628.7,765.4,638.6,761.9 M608,738.9
			c-2.1-4.1-2.7-8.5-2.7-14.3c0.1-4.3,1-9.7,4.4-14.4c7.3-10.1,22.9-9.4,29.4,1.3c3.1,5.2,4,11,3.6,17c-0.3,3.9-1.1,7.6-2.9,11.1
			c-3.3,6.4-8.6,9.7-15.9,9.7C616.4,749.2,611.2,745.5,608,738.9"/>
		<rect x="368.1" y="669.7" class="st0" width="17.7" height="17.7"/>
		<path class="st0" d="M399,687.5v31.6v6.1c0,3.9-0.4,7.1-1.3,9.9c-0.8,2.7-2.2,4.8-4.2,6.6c-2.2,1.9-5,3.1-8.3,3.9
			c-2.5,0.5-5.2,0.9-8.1,0.9s-5.6-0.4-8.1-0.9c-3.3-0.7-6.1-2-8.3-3.9c-2-1.7-3.3-4-4.2-6.6c-0.8-2.7-1.2-6-1.2-9.9v-6.1v-31.6h-18
			v39.9c0,5.2,0.6,10.1,2,14.9c1.3,4.8,3.5,8.6,6.6,11.6c2,1.9,4,3.5,6.2,4.8s4.6,2.4,7.3,3.2c2.7,0.9,5.6,1.4,8.6,1.9
			c2.3,0.3,4.8,0.4,7.5,0.5c0,0,1,0,1.5,0c0.4,0,1.5,0,1.5,0c2.7-0.1,5.2-0.2,7.5-0.5c3.1-0.4,6-1,8.6-1.9c2.7-0.9,5.1-2,7.3-3.2
			c2.2-1.3,4.2-3,6.2-4.8c3.1-3,5.4-6.8,6.6-11.6c1.3-4.8,1.9-9.7,1.9-14.9v-39.9H399z"/>
	</g>
</g>
</svg>
