<?xml version="1.0" encoding="utf-8"?>
<!-- Generator: Adobe Illustrator 28.0.0, SVG Export Plug-In . SVG Version: 6.00 Build 0)  -->
<svg version="1.1" id="Layer_1" xmlns="http://www.w3.org/2000/svg" xmlns:xlink="http://www.w3.org/1999/xlink" x="0px" y="0px"
	 viewBox="0 0 1000 1000" style="enable-background:new 0 0 1000 1000;" xml:space="preserve">
<style type="text/css">
	.st0{fill:#3A3942;}
	.st1{fill:#EEF2F8;}
	.st2{fill:#00005E;}
	.st3{fill:#5FCEF9;}
	.st4{fill:#8290F7;}
	.st5{fill:#561FCC;}
	.st6{fill:#0000F4;}
</style>
<g id="Layer_1-2">
	<g>
		<g>
			<path class="st2" d="M370.86,464.71h11.35c0.05,0,0.1,0,0.15,0c0.02,0,0.04,0,0.06,0c2.39-0.03,4.58-0.6,6.55-1.74
				c2,1.14,4.19,1.71,6.55,1.74c0.02,0,0.04,0,0.06,0c0.05,0,0.09,0,0.14,0h0.06c0.05,0,0.1,0,0.15,0c0.01,0,0.03,0,0.04,0
				c2.39-0.03,4.58-0.6,6.56-1.74c2.06,1.17,4.31,1.74,6.75,1.74h22.73c2.47,0,4.72-0.57,6.75-1.74c2.01,1.14,4.19,1.71,6.55,1.74
				c0.02,0,0.04,0,0.06,0c0.05,0,0.09,0,0.14,0h0.06c0,0,0.02,0,0.03,0c0.11,0,0.2-0.01,0.27-0.01c3.35-0.08,6.51-1.44,8.36-3.28
				v-19.85h-3.77v18.23c-1.27,0.67-3.14,1.01-4.91,1.01c-1.78,0-3.62-0.35-4.88-1.01v-10.94h-3.77v10.94
				c-1.36,0.67-2.98,1.01-4.91,1.01h-6.5c2.12-1.68,3.2-3.8,3.2-6.31c0-4.34-3.3-7.26-8.02-7.26s-8.05,2.92-8.05,7.26
				c0,2.51,1.08,4.63,3.2,6.31h-6.5c-1.81,0-3.62-0.35-4.88-1.01v-10.94h-3.77v10.94c-1.36,0.67-2.98,1.01-4.91,1.01
				c-1.81,0-3.62-0.35-4.88-1.01v-10.94h-3.77v10.94c-1.36,0.67-2.98,1.01-4.91,1.01h-4.82v-10.53c-1.65-0.92-4.28-1.74-6.94-1.74
				c-5.2,0-8.66,3.14-8.66,8.09C361.76,461.57,365.38,464.71,370.86,464.71L370.86,464.71z M420.68,450.85
				c2.51,0,4.25,1.62,4.25,4.12c0,1.24-0.44,2.35-1.3,3.27c-0.86,0.92-1.84,1.59-2.95,2.06c-1.14-0.44-2.15-1.14-3.01-2.06
				c-0.86-0.92-1.27-2.03-1.27-3.27C416.4,452.53,418.17,450.85,420.68,450.85L420.68,450.85z M370.14,452.09
				c1.3,0,2.47,0.25,3.46,0.79v7.93h-3.27c-2.92,0-4.82-1.52-4.82-4.31S367.47,452.09,370.14,452.09L370.14,452.09z"/>
			<path class="st2" d="M367.38,445.78c1.24,0,2.25-1.01,2.25-2.28c0-1.27-1.01-2.28-2.25-2.28c-1.3,0-2.32,1.01-2.32,2.28
				C365.06,444.76,366.07,445.78,367.38,445.78z"/>
			<path class="st2" d="M373.56,445.78c1.27,0,2.28-1.01,2.28-2.28c0-1.27-1.02-2.28-2.28-2.28s-2.25,1.01-2.25,2.28
				C371.31,444.76,372.29,445.78,373.56,445.78z"/>
			<path class="st2" d="M389.89,469.3c0,1.24,0.98,2.25,2.25,2.25s2.28-1.01,2.28-2.25c0-1.3-1.02-2.28-2.28-2.28
				S389.89,468,389.89,469.3z"/>
			<path class="st2" d="M385.96,471.55c1.24,0,2.25-1.01,2.25-2.25c0-1.24-0.98-2.28-2.25-2.28s-2.32,0.98-2.32,2.28
				S384.65,471.55,385.96,471.55z"/>
			<path class="st2" d="M402.6,446c1.27,0,2.28-1.01,2.28-2.28s-1.01-2.32-2.28-2.32s-2.32,1.02-2.32,2.32S401.3,446,402.6,446z"/>
			<path class="st2" d="M417.57,444.48c1.24,0,2.25-1.02,2.25-2.28c0-1.27-1.02-2.28-2.25-2.28c-1.3,0-2.32,1.02-2.32,2.28
				C415.25,443.46,416.27,444.48,417.57,444.48z"/>
			<path class="st2" d="M423.75,444.48c1.27,0,2.28-1.02,2.28-2.28c0-1.27-1.01-2.28-2.28-2.28s-2.25,1.02-2.25,2.28
				C421.5,443.46,422.48,444.48,423.75,444.48z"/>
			<path class="st2" d="M435.77,446c1.24,0,2.25-1.01,2.25-2.28s-1.01-2.28-2.25-2.28c-1.3,0-2.32,1.02-2.32,2.28
				S434.47,446,435.77,446z"/>
			<path class="st2" d="M441.95,446c1.27,0,2.28-1.01,2.28-2.28s-1.02-2.28-2.28-2.28s-2.25,1.02-2.25,2.28S440.68,446,441.95,446z"
				/>
			<rect x="460.66" y="441.56" class="st2" width="3.77" height="23.15"/>
			<path class="st2" d="M478.64,464.71h2.76c-0.22,3.14-1.84,4.63-5.49,4.63c-1.87,0-3.87-0.41-5.11-0.89l-0.67,3.58
				c1.68,0.6,3.77,0.92,5.64,0.92c5.8,0,9.38-2.88,9.38-9.35v-12.72c-2.32-1.17-4.66-1.74-6.98-1.74c-5.29,0-8.69,3.17-8.69,7.83
				S472.89,464.7,478.64,464.71L478.64,464.71z M477.97,452.66c1.17,0,2.32,0.25,3.43,0.79v7.36h-3.36c-2.82,0-4.79-1.49-4.79-4.06
				C473.25,454.18,475.21,452.66,477.97,452.66L477.97,452.66z"/>
			<path class="st2" d="M511.48,460.81h-4.6c-2.13-0.22-3.46-1.24-3.46-3.39c0-1.93,1.11-3.04,2.85-3.04c0.86,0,1.62,0.29,2.22,0.83
				l2.54-2.38c-1.17-1.11-3.01-1.84-4.95-1.84c-3.58,0-6.06,2.57-6.06,5.99c0,1.52,0.44,2.79,1.36,3.84h-3.07v3.9h13.16V460.81
				L511.48,460.81z"/>
			<path class="st2" d="M518.59,462.99c1.76,0.99,4.22,1.67,6.93,1.71c0.03,0,0.06,0,0.09,0c0.04,0,0.07,0,0.11,0h55.01
				c3.46,0,6.75-1.4,8.66-3.3v-19.85h-3.77v18.23c-1.27,0.67-3.14,1.01-4.91,1.01h-6.5c2.13-1.68,3.2-3.8,3.2-6.31
				c0-4.34-3.3-7.26-8.02-7.26s-8.05,2.92-8.05,7.26c0,2.51,1.08,4.63,3.2,6.31H553.4v-4.25c0-2.82-0.73-5.01-2.19-6.5
				c-1.43-1.49-3.33-2.25-5.71-2.25c-3.84,0-7.17,2.03-11.07,6.06v-3.8h-3.77v10.75h-4.91c-1.81,0-3.62-0.35-4.91-1.01v-18.23h-3.77
				v18.83C517.06,461.76,517.44,462.39,518.59,462.99L518.59,462.99z M569.38,450.85c2.51,0,4.25,1.62,4.25,4.12
				c0,1.24-0.44,2.35-1.3,3.27c-0.86,0.92-1.84,1.59-2.95,2.06c-1.14-0.44-2.16-1.14-3.01-2.06c-0.86-0.92-1.27-2.03-1.27-3.27
				C565.1,452.53,566.88,450.85,569.38,450.85L569.38,450.85z M534.44,458.49c4.15-4.82,7.26-7.01,10.46-7.01
				c1.68,0,2.88,0.54,3.62,1.62c0.76,1.08,1.14,2.44,1.14,4.06v3.65h-15.22V458.49L534.44,458.49z"/>
			<path class="st2" d="M538.12,444.95c1.27,0,2.28-1.02,2.28-2.28c0-1.27-1.01-2.32-2.28-2.32c-1.27,0-2.32,1.01-2.32,2.32
				S536.82,444.95,538.12,444.95z"/>
			<path class="st2" d="M569.35,444.48c1.27,0,2.28-1.02,2.28-2.28c0-1.27-1.01-2.32-2.28-2.32c-1.27,0-2.32,1.02-2.32,2.32
				S568.05,444.48,569.35,444.48z"/>
			<rect x="595.79" y="441.56" class="st2" width="3.77" height="23.15"/>
			<path class="st2" d="M613.77,464.71h2.76c-0.22,3.14-1.84,4.63-5.49,4.63c-1.87,0-3.87-0.41-5.1-0.89l-0.67,3.58
				c1.68,0.6,3.77,0.92,5.64,0.92c5.8,0,9.39-2.88,9.39-9.35v-12.72c-2.32-1.17-4.66-1.74-6.98-1.74c-5.3,0-8.69,3.17-8.69,7.83
				S608.03,464.7,613.77,464.71L613.77,464.71z M613.1,452.66c1.17,0,2.32,0.25,3.43,0.79v7.36h-3.36c-2.82,0-4.79-1.49-4.79-4.06
				C608.38,454.18,610.35,452.66,613.1,452.66L613.1,452.66z"/>
			<path class="st2" d="M642.75,464.71h12.52c4.54,0,8.15-0.79,10.27-1.93v-13.92h-3.77v11.04c-1.14,0.54-3.3,0.92-5.96,0.92H643
				c-3.8,0-5.71-1.62-5.71-4.85c0-1.08,0.19-2.35,0.6-3.77l-3.46-0.63c-0.6,1.96-0.89,3.8-0.89,5.52
				C633.55,462.61,636.91,464.71,642.75,464.71L642.75,464.71z"/>
			<path class="st2" d="M652.71,449.9c1.27,0,2.28-1.02,2.28-2.28c0-1.27-1.02-2.28-2.28-2.28c-1.27,0-2.25,1.01-2.25,2.28
				C650.46,448.88,651.44,449.9,652.71,449.9z"/>
			<path class="st2" d="M646.52,449.9c1.24,0,2.25-1.02,2.25-2.28c0-1.27-1.02-2.28-2.25-2.28c-1.3,0-2.32,1.01-2.32,2.28
				C644.21,448.88,645.22,449.9,646.52,449.9z"/>
			<path class="st2" d="M688.47,461.41v-19.85h-3.77v18.04c-1.11,0.76-2.66,1.17-4.66,1.21l-3.55-15.19h-3.74l3.49,15.19h-6.09v3.9
				h9.73C683.33,464.71,686.56,463.31,688.47,461.41L688.47,461.41z"/>
			<path class="st2" d="M696.4,462.99c1.76,0.99,4.22,1.67,6.93,1.71c0.03,0,0.06,0,0.09,0c0.04,0,0.07,0,0.11,0h32.34
				c0.03,0,0.05,0,0.08,0c0.05,0,0.1,0,0.13,0c1.61-0.02,3.18-0.23,4.67-0.66c1.55-0.44,2.82-0.98,3.77-1.65v-13.54h-3.77v11.13
				c-1.11,0.51-2.98,0.82-4.91,0.82h-4.63v-4.25c0-2.82-0.73-5.01-2.19-6.5c-1.43-1.49-3.33-2.25-5.71-2.25
				c-3.84,0-7.17,2.03-11.07,6.06v-3.8h-3.77v10.75h-4.91c-1.81,0-3.62-0.35-4.91-1.01v-18.23h-3.77v18.83
				C694.87,461.76,695.25,462.39,696.4,462.99L696.4,462.99z M712.25,458.49c4.15-4.82,7.26-7.01,10.46-7.01
				c1.68,0,2.88,0.54,3.62,1.62c0.76,1.08,1.14,2.44,1.14,4.06v3.65h-15.22L712.25,458.49L712.25,458.49z"/>
			<path class="st2" d="M739.46,446c1.24,0,2.25-1.01,2.25-2.28s-1.02-2.28-2.25-2.28c-1.3,0-2.32,1.02-2.32,2.28
				S738.15,446,739.46,446z"/>
			<path class="st2" d="M745.64,446c1.27,0,2.28-1.01,2.28-2.28s-1.01-2.28-2.28-2.28c-1.27,0-2.25,1.02-2.25,2.28
				S744.37,446,745.64,446z"/>
			<path class="st2" d="M767.45,461.41v-19.85h-3.77v18.04c-1.11,0.76-2.66,1.17-4.66,1.21l-3.55-15.19h-3.74l3.49,15.19h-6.09v3.9
				h9.73C762.31,464.71,765.54,463.31,767.45,461.41L767.45,461.41z"/>
			<rect x="773.86" y="441.56" class="st2" width="3.77" height="23.15"/>
			<path class="st2" d="M802.43,445.78c1.27,0,2.28-1.01,2.28-2.28c0-1.27-1.02-2.28-2.28-2.28s-2.25,1.01-2.25,2.28
				C800.18,444.76,801.16,445.78,802.43,445.78z"/>
			<path class="st2" d="M796.24,445.78c1.24,0,2.25-1.01,2.25-2.28c0-1.27-1.01-2.28-2.25-2.28c-1.3,0-2.32,1.01-2.32,2.28
				C793.93,444.76,794.94,445.78,796.24,445.78z"/>
			<path class="st2" d="M821.23,443.4h-1.84c-1.36,0-2-0.57-2-1.43c0-0.67,0.48-1.21,1.21-1.21c0.38,0,0.73,0.13,1.01,0.38
				l1.36-1.46c-0.6-0.6-1.52-1.08-2.63-1.08c-1.78,0-3.01,1.27-3.01,2.88c0,0.73,0.25,1.36,0.73,1.9h-1.52v2.47h6.69L821.23,443.4
				L821.23,443.4z"/>
			<path class="st2" d="M830.64,469.3c0-1.27-0.98-2.28-2.25-2.28c-1.27,0-2.32,0.98-2.32,2.28s1.01,2.25,2.32,2.25
				S830.64,470.54,830.64,469.3z"/>
			<path class="st2" d="M834.58,467.02c-1.27,0-2.25,0.98-2.25,2.28s0.98,2.25,2.25,2.25s2.28-1.01,2.28-2.25
				C836.86,468,835.84,467.02,834.58,467.02z"/>
			<path class="st2" d="M858.32,446.89c-2.44-2.12-5.64-3.2-9.64-3.2c-1.27,0-2.6,0.1-3.96,0.29v3.49c1.27-0.22,2.57-0.35,3.87-0.35
				c2.79,0,5.11,0.76,6.91,2.25c1.81,1.49,2.73,3.93,2.73,7.32v4.15h-5.17c1.17-1.24,1.74-2.73,1.74-4.54
				c0-3.84-3.01-6.34-6.75-6.34s-6.69,2.44-6.69,6.34c0,1.81,0.57,3.33,1.71,4.5h-4.88c-1.81,0-3.62-0.35-4.88-1.01v-10.94h-3.77
				v10.94c-1.36,0.67-2.98,1.01-4.91,1.01c-1.81,0-3.61-0.35-4.88-1.01v-10.94h-3.77v10.94c-1.36,0.67-2.98,1.01-4.91,1.01h-4.82
				v-10.53c-1.65-0.92-4.28-1.74-6.94-1.74c-5.2,0-8.66,3.14-8.66,8.09c0,4.95,3.62,8.09,9.1,8.09h11.35c0.05,0,0.1,0,0.15,0
				c0.02,0,0.04,0,0.05,0c2.39-0.03,4.58-0.6,6.55-1.74c2,1.14,4.19,1.71,6.55,1.74c0.02,0,0.04,0,0.06,0c0.05,0,0.09,0,0.14,0h0.06
				c0.05,0,0.1,0,0.15,0c0.02,0,0.04,0,0.05,0c2.39-0.03,4.58-0.6,6.56-1.74c2,1.14,4.19,1.71,6.55,1.74c0.02,0,0.04,0,0.06,0
				c0.05,0,0.1,0,0.15,0H862v-7.83C862,452.34,860.76,449.01,858.32,446.89L858.32,446.89z M802.46,460.81h-3.27
				c-2.92,0-4.82-1.52-4.82-4.31s1.96-4.41,4.63-4.41c1.3,0,2.47,0.25,3.46,0.79V460.81z M848.05,460.81
				c-2.13-0.29-3.27-1.84-3.27-4.03c0-2.06,1.4-3.43,3.27-3.43s3.27,1.36,3.27,3.43C851.32,459.03,850.21,460.52,848.05,460.81z"/>
			<path class="st2" d="M373.38,494.05c2.27,0,4.38,1.04,5.73,2.77l3.4-2.14c-2.11-2.77-5.48-4.47-9.16-4.47
				c-6.23-0.13-11.71,5.23-11.59,11.33c-0.13,6.11,5.35,11.46,11.59,11.33c3.68,0,7.05-1.7,9.16-4.47l-3.4-2.2
				c-1.42,1.76-3.46,2.83-5.73,2.83c-4.12,0-7.3-3.37-7.3-7.49C366.08,497.42,369.26,494.05,373.38,494.05L373.38,494.05z"/>
			<path class="st2" d="M397.97,496.51c-4.88,0-8.72,3.56-8.72,8.19c0,4.63,3.84,8.19,8.72,8.19c4.88,0.09,8.88-3.62,8.78-8.19
				C406.85,500.13,402.85,496.42,397.97,496.51z M397.97,509.61c-2.8,0-4.94-2.14-4.94-4.91c0-2.77,2.14-4.91,4.94-4.91
				c2.8,0,5.01,2.14,5.01,4.91C402.98,507.47,400.84,509.61,397.97,509.61z"/>
			<path class="st2" d="M434.27,499.63c2.01,0,3.24,1.29,3.24,3.59v9.35h3.84v-10.45c0-3.62-2.3-5.6-5.6-5.6
				c-2.42,0-4.47,0.69-6.64,2.55c-0.88-1.67-2.61-2.55-4.72-2.55c-2.11,0-4.22,0.82-6.11,2.46v-2.14h-3.84v15.74h3.84v-11.24
				c1.51-1.23,2.8-1.7,4.44-1.7c2.01,0,3.28,1.29,3.28,3.59v9.35h3.81v-9.04c0-0.79-0.06-1.54-0.22-2.2
				C430.97,500.19,432.54,499.62,434.27,499.63L434.27,499.63z"/>
			<path class="st2" d="M470.82,496.51c-2.42,0-4.47,0.69-6.64,2.55c-0.88-1.67-2.61-2.55-4.72-2.55s-4.22,0.82-6.11,2.46v-2.14
				h-3.84v15.74h3.84v-11.24c1.51-1.23,2.8-1.7,4.44-1.7c2.01,0,3.28,1.29,3.28,3.59v9.35h3.81v-9.04c0-0.79-0.06-1.54-0.22-2.2
				c1.39-1.13,2.96-1.7,4.69-1.7c2.01,0,3.24,1.29,3.24,3.59v9.35h3.84v-10.45C476.43,498.49,474.13,496.51,470.82,496.51
				L470.82,496.51z"/>
			<path class="st2" d="M496.58,507.78c-1.42,1.26-3.21,1.95-4.88,1.95c-2.27,0-3.53-1.29-3.53-3.56v-9.35h-3.81v10.45
				c0,3.49,2.17,5.6,5.73,5.6c2.27,0,4.57-0.82,6.49-2.33v2.01h3.84v-15.74h-3.84V507.78z"/>
			<path class="st2" d="M521.1,503.22v9.35h3.81v-10.45c0-3.49-2.17-5.6-5.73-5.6c-2.24,0-4.57,0.82-6.49,2.3v-1.98h-3.84v15.74
				h3.84v-10.96c1.42-1.26,3.21-1.98,4.88-1.98C519.84,499.62,521.1,500.95,521.1,503.22L521.1,503.22z"/>
			<rect x="533.38" y="496.82" class="st2" width="3.81" height="15.74"/>
			<path class="st2" d="M535.27,490.87c-1.17,0-2.11,0.85-2.11,1.95s0.94,1.95,2.11,1.95c1.16,0,2.08-0.85,2.08-1.95
				C537.35,491.79,536.4,490.87,535.27,490.87z"/>
			<path class="st2" d="M553.69,509.61c-2.68,0-4.79-2.17-4.79-4.91c0-2.74,2.11-4.91,4.79-4.91c1.57,0,2.83,0.54,3.81,1.64
				l2.93-1.64c-1.61-2.05-4.12-3.27-6.8-3.27c-4.53-0.09-8.56,3.75-8.47,8.19c-0.09,4.44,3.94,8.28,8.47,8.19
				c2.77,0,5.29-1.26,6.93-3.4l-2.96-1.64C556.68,508.98,555.32,509.61,553.69,509.61L553.69,509.61z"/>
			<path class="st2" d="M575.85,496.51c-2.55,0-5.1,0.69-7.27,2.05l1.23,2.68c1.67-1.1,3.4-1.67,5.16-1.67
				c2.49,0,3.78,1.1,3.78,3.21v0.19h-5.35c-3.78,0-6.14,1.86-6.14,4.91s2.27,5.01,5.89,5.01c2.11,0,3.97-0.69,5.6-2.05v1.73h3.81
				V502.4C582.56,498.65,580.13,496.51,575.85,496.51L575.85,496.51z M578.75,508.76c-1.38,0.88-2.86,1.32-4.47,1.32
				c-2.05,0-3.24-0.88-3.24-2.42s1.23-2.42,3.34-2.42h4.38L578.75,508.76L578.75,508.76z"/>
			<path class="st2" d="M600.66,509.07c-0.75,0.38-1.57,0.57-2.42,0.57c-1.61,0-2.74-0.98-2.74-2.83v-6.93h4.47v-3.05h-4.47v-4.38
				h-3.81v4.38h-2.49v3.05h2.49v7.52c0,3.49,2.24,5.48,5.35,5.48c1.38,0,2.77-0.38,4.12-1.1L600.66,509.07L600.66,509.07z"/>
			<rect x="608.69" y="496.82" class="st2" width="3.81" height="15.74"/>
			<path class="st2" d="M610.58,490.87c-1.17,0-2.11,0.85-2.11,1.95s0.94,1.95,2.11,1.95s2.08-0.85,2.08-1.95
				C612.66,491.79,611.71,490.87,610.58,490.87z"/>
			<path class="st2" d="M637.97,504.7c0.09-4.57-3.9-8.28-8.78-8.19c-4.88,0-8.72,3.56-8.72,8.19c0,4.63,3.84,8.19,8.72,8.19
				C634.07,512.98,638.06,509.26,637.97,504.7z M624.24,504.7c0-2.77,2.14-4.91,4.94-4.91s5.01,2.14,5.01,4.91
				c0,2.77-2.14,4.91-5.01,4.91S624.24,507.47,624.24,504.7z"/>
			<path class="st2" d="M657.93,503.22v9.35h3.81v-10.45c0-3.49-2.17-5.6-5.73-5.6c-2.24,0-4.57,0.82-6.49,2.3v-1.98h-3.84v15.74
				h3.84v-10.96c1.42-1.26,3.21-1.98,4.88-1.98C656.67,499.62,657.93,500.95,657.93,503.22L657.93,503.22z"/>
			<path class="st2" d="M677.51,503.31l-1.76-0.47c-2.17-0.6-2.71-0.94-2.71-1.86c0-1.17,0.85-1.73,2.58-1.73s3.72,0.57,5.26,1.48
				l1.29-2.49c-1.76-1.1-4.16-1.73-6.45-1.73c-3.94,0-6.33,1.8-6.33,4.82c0,1.13,0.38,2.01,1.13,2.68c0.79,0.66,2.14,1.26,4.06,1.8
				l1.98,0.54c1.98,0.6,2.46,0.94,2.46,1.86c0,1.29-0.94,1.95-2.86,1.95c-2.05,0-4.28-0.66-6.14-1.79l-1.32,2.42
				c2.01,1.36,4.66,2.11,7.34,2.11c4.16,0,6.58-1.83,6.58-4.97C682.62,505.55,681.2,504.32,677.51,503.31L677.51,503.31z"/>
			<path class="st2" d="M690.07,517.04l2.99-5.07c0.22-0.35,0.31-0.72,0.31-1.07c0-1.1-0.98-1.98-2.14-1.98
				c-1.17,0-2.11,0.88-2.11,1.98c0,0.79,0.44,1.45,1.2,1.8l-1.42,3.81L690.07,517.04L690.07,517.04z"/>
			<path class="st2" d="M723.38,499.72l-2.39-0.66c-3.49-0.94-4.12-1.45-4.12-2.61c0-1.8,1.61-2.68,3.97-2.68
				c2.24,0,5.13,0.82,7.49,2.08l1.8-3.28c-2.49-1.48-5.79-2.36-8.97-2.36c-2.58,0-4.69,0.57-6.3,1.67c-1.61,1.1-2.42,2.71-2.42,4.85
				c0.13,3.59,2.2,4.88,7.43,6.2l2.49,0.63c3.15,0.79,4,1.23,4,2.74c0,2.05-1.76,2.99-4.44,2.99c-2.67,0-5.92-0.88-8.53-2.42
				l-1.89,3.09c2.77,1.89,6.45,2.93,10.07,2.93c5.57,0,9.1-2.39,9.1-6.8C730.54,502.27,728.27,501.07,723.38,499.72L723.38,499.72z"
				/>
			<path class="st2" d="M747.47,496.51c-2.14,0-3.93,0.79-5.16,2.14v-1.83h-3.84v21.88h3.84v-8c1.23,1.36,3.02,2.17,5.16,2.17
				c4.22,0.09,7.68-3.68,7.59-8.19C755.15,500.19,751.69,496.42,747.47,496.51z M749.99,508.22c-0.85,0.91-1.95,1.38-3.3,1.38
				c-1.89,0-3.46-0.79-4.38-2.14v-5.54c0.91-1.35,2.49-2.14,4.38-2.14c1.35,0,2.46,0.47,3.3,1.42c0.85,0.91,1.29,2.08,1.29,3.49
				C751.28,506.11,750.83,507.27,749.99,508.22L749.99,508.22z"/>
			<path class="st2" d="M770.61,496.51c-2.55,0-5.1,0.69-7.27,2.05l1.23,2.68c1.67-1.1,3.4-1.67,5.16-1.67
				c2.49,0,3.78,1.1,3.78,3.21v0.19h-5.35c-3.78,0-6.14,1.86-6.14,4.91s2.27,5.01,5.89,5.01c2.11,0,3.97-0.69,5.6-2.05v1.73h3.81
				V502.4C777.31,498.65,774.89,496.51,770.61,496.51L770.61,496.51z M773.5,508.76c-1.38,0.88-2.86,1.32-4.47,1.32
				c-2.05,0-3.24-0.88-3.24-2.42s1.23-2.42,3.34-2.42h4.38L773.5,508.76L773.5,508.76z"/>
			<path class="st2" d="M800.2,509.48l-2.96-1.64c-0.91,1.13-2.27,1.76-3.9,1.76c-2.68,0-4.79-2.17-4.79-4.91
				c0-2.74,2.11-4.91,4.79-4.91c1.57,0,2.83,0.54,3.81,1.64l2.93-1.64c-1.61-2.05-4.12-3.27-6.8-3.27
				c-4.53-0.09-8.56,3.75-8.47,8.19c-0.09,4.44,3.94,8.28,8.47,8.19C796.04,512.88,798.56,511.62,800.2,509.48L800.2,509.48z"/>
			<path class="st2" d="M819.72,508.19c-1.17,1.1-2.74,1.67-4.72,1.67c-2.55,0-4.25-1.48-4.66-3.97h12.72v-1.2
				c0-4.69-3.53-8.19-8.28-8.19c-4.75,0-8.28,3.62-8.28,8.15c0,4.54,3.56,8.22,8.38,8.22c2.65,0,5.1-0.98,6.96-2.71L819.72,508.19
				L819.72,508.19z M814.81,499.47c1.29,0,2.39,0.38,3.24,1.16c0.85,0.76,1.29,1.7,1.29,2.87h-9.01
				C810.68,500.98,812.32,499.47,814.81,499.47L814.81,499.47z"/>
			<path class="st2" d="M859.2,501.73c-0.66,1.54-1.42,2.86-2.3,4.03l-4.31-4.57c3.49-1.76,4.85-3.27,4.85-5.89
				c0-2.93-2.49-5.1-5.86-5.1c-3.59,0-6.36,2.46-6.36,5.64c0,1.42,0.57,2.61,1.95,4.16l0.35,0.38c-4.03,2.01-5.57,3.87-5.57,6.52
				c0,3.75,3.05,5.98,7.93,5.98c2.68,0,4.97-0.73,6.9-2.2l1.98,2.2l2.71-2.3l-2.27-2.39c1.04-1.35,1.95-3.09,2.8-5.2L859.2,501.73
				L859.2,501.73z M851.52,493.04c1.61,0,2.68,0.91,2.68,2.33c0,1.42-0.63,2.24-3.68,3.65l-0.54-0.57c-0.79-0.85-1.38-1.98-1.38-2.9
				C848.59,494.15,849.85,493.04,851.52,493.04L851.52,493.04z M850.01,509.73c-2.52,0-4.12-1.2-4.12-3.18
				c0-1.42,0.91-2.46,3.68-3.87l4.97,5.51C853.12,509.23,851.61,509.73,850.01,509.73L850.01,509.73z"/>
			<polygon class="st2" points="361.76,536.24 368.87,536.24 368.87,554.82 372.99,554.82 372.99,536.24 380.09,536.24 
				380.09,532.63 361.76,532.63 			"/>
			<path class="st2" d="M392.62,538.65c-4.79,0-8.34,3.65-8.34,8.21c0,4.57,3.58,8.28,8.43,8.28c2.66,0,5.14-0.98,7.01-2.73l-2.13-2
				c-1.17,1.11-2.76,1.68-4.76,1.68c-2.57,0-4.28-1.49-4.69-3.99h12.81v-1.21C400.95,542.18,397.4,538.66,392.62,538.65
				L392.62,538.65z M388.15,545.69c0.35-2.54,2-4.06,4.5-4.06c1.3,0,2.41,0.38,3.27,1.17c0.86,0.76,1.3,1.71,1.3,2.88L388.15,545.69
				L388.15,545.69z"/>
			<path class="st2" d="M416.49,551.84c-2.7,0-4.82-2.19-4.82-4.95c0-2.76,2.13-4.95,4.82-4.95c1.59,0,2.85,0.54,3.84,1.65
				l2.95-1.65c-1.62-2.06-4.15-3.3-6.85-3.3c-4.57-0.1-8.62,3.77-8.53,8.24c-0.09,4.47,3.96,8.34,8.53,8.24
				c2.79,0,5.33-1.27,6.98-3.43l-2.98-1.65C419.5,551.21,418.14,551.84,416.49,551.84L416.49,551.84z"/>
			<path class="st2" d="M441.41,538.65c-2.25,0-4.6,0.82-6.53,2.32v-8.34h-3.87v22.2h3.87v-11.04c1.43-1.27,3.23-2,4.91-2
				c2.28,0,3.55,1.33,3.55,3.62v9.42h3.84V544.3C447.18,540.78,444.99,538.65,441.41,538.65L441.41,538.65z"/>
			<path class="st2" d="M465.83,538.65c-2.25,0-4.6,0.82-6.53,2.32v-2h-3.87v15.85h3.87v-11.04c1.43-1.27,3.23-2,4.91-2
				c2.28,0,3.55,1.33,3.55,3.62v9.42h3.84V544.3C471.6,540.78,469.41,538.65,465.83,538.65L465.83,538.65z"/>
			<path class="st2" d="M487.93,538.65c-4.91,0-8.78,3.58-8.78,8.24c0,4.66,3.87,8.24,8.78,8.24c4.91,0.1,8.94-3.65,8.85-8.24
				C496.87,542.3,492.84,538.56,487.93,538.65z M487.93,551.84c-2.82,0-4.98-2.15-4.98-4.95s2.16-4.95,4.98-4.95
				c2.82,0,5.04,2.16,5.04,4.95S490.81,551.84,487.93,551.84z"/>
			<rect x="504.54" y="532.63" class="st2" width="3.87" height="22.2"/>
			<path class="st2" d="M524.99,538.65c-4.91,0-8.78,3.58-8.78,8.24c0,4.66,3.87,8.24,8.78,8.24c4.91,0.1,8.94-3.65,8.85-8.24
				C533.93,542.3,529.91,538.56,524.99,538.65z M524.99,551.84c-2.82,0-4.98-2.15-4.98-4.95s2.16-4.95,4.98-4.95
				c2.82,0,5.04,2.16,5.04,4.95S527.88,551.84,524.99,551.84z"/>
			<path class="st2" d="M553.65,540.81c-1.24-1.36-3.04-2.15-5.2-2.15c-4.28-0.1-7.71,3.68-7.64,8.21
				c-0.09,4.54,3.39,8.31,7.64,8.21c2.16,0,3.96-0.79,5.2-2.15v0.7c0,3.2-1.97,4.76-4.91,4.76c-2.28,0-4.34-0.57-6.21-1.74
				l-1.24,2.7c2.25,1.36,4.91,2.06,7.99,2.06c2.44,0,4.44-0.63,5.93-1.93c1.52-1.3,2.28-3.24,2.28-5.83v-14.65h-3.84V540.81
				L553.65,540.81z M553.65,549.66c-0.92,1.36-2.51,2.15-4.41,2.15c-1.36,0-2.47-0.48-3.33-1.4c-0.86-0.95-1.3-2.12-1.3-3.55
				c0-2.79,1.96-4.95,4.63-4.95c1.9,0,3.49,0.79,4.41,2.15V549.66L553.65,549.66z"/>
			<path class="st2" d="M573.15,550.67l-4.69-11.7h-4.06l7.04,16.36l-0.25,0.51c-0.98,1.81-1.9,2.54-3.39,2.54
				c-0.79,0-1.65-0.19-2.6-0.57l-1.11,2.66c1.55,0.57,2.98,0.86,4.22,0.86c2.92,0,4.91-1.55,6.28-4.95l7.01-17.41h-4L573.15,550.67
				L573.15,550.67z"/>
			<path class="st2" d="M611.55,536.18c2.28,0,4.41,1.05,5.77,2.79l3.43-2.16c-2.12-2.79-5.52-4.5-9.23-4.5
				c-6.28-0.13-11.8,5.26-11.67,11.41c-0.13,6.15,5.39,11.54,11.67,11.41c3.71,0,7.1-1.71,9.23-4.5l-3.43-2.22
				c-1.43,1.78-3.49,2.85-5.77,2.85c-4.15,0-7.36-3.39-7.36-7.55C604.2,539.57,607.4,536.18,611.55,536.18L611.55,536.18z"/>
			<path class="st2" d="M636.31,538.65c-4.91,0-8.78,3.58-8.78,8.24c0,4.66,3.87,8.24,8.78,8.24c4.91,0.1,8.94-3.65,8.85-8.24
				C645.25,542.3,641.23,538.56,636.31,538.65z M636.31,551.84c-2.82,0-4.98-2.15-4.98-4.95s2.16-4.95,4.98-4.95
				s5.04,2.16,5.04,4.95S639.2,551.84,636.31,551.84z"/>
			<path class="st2" d="M674.36,538.65c-2.44,0-4.5,0.7-6.69,2.57c-0.89-1.68-2.63-2.57-4.76-2.57c-2.12,0-4.25,0.82-6.15,2.47
				v-2.15h-3.87v15.85h3.87V543.5c1.52-1.24,2.82-1.71,4.47-1.71c2.03,0,3.3,1.3,3.3,3.62v9.42h3.84v-9.1
				c0-0.79-0.06-1.55-0.22-2.22c1.4-1.14,2.98-1.71,4.72-1.71c2.03,0,3.27,1.3,3.27,3.62v9.42h3.87V544.3
				C680.01,540.65,677.69,538.65,674.36,538.65L674.36,538.65z"/>
			<path class="st2" d="M709.68,538.65c-2.44,0-4.5,0.7-6.69,2.57c-0.89-1.68-2.63-2.57-4.76-2.57c-2.12,0-4.25,0.82-6.15,2.47
				v-2.15h-3.87v15.85h3.87V543.5c1.52-1.24,2.82-1.71,4.47-1.71c2.03,0,3.3,1.3,3.3,3.62v9.42h3.84v-9.1
				c0-0.79-0.06-1.55-0.22-2.22c1.4-1.14,2.98-1.71,4.72-1.71c2.03,0,3.27,1.3,3.27,3.62v9.42h3.87V544.3
				C715.33,540.65,713.01,538.65,709.68,538.65L709.68,538.65z"/>
			<rect x="723.86" y="538.97" class="st2" width="3.84" height="15.85"/>
			<path class="st2" d="M725.76,532.98c-1.17,0-2.12,0.86-2.12,1.97c0,1.11,0.95,1.96,2.12,1.96c1.17,0,2.09-0.86,2.09-1.96
				C727.85,533.9,726.9,532.98,725.76,532.98z"/>
			<path class="st2" d="M744.05,545.5l-1.78-0.48c-2.19-0.6-2.73-0.95-2.73-1.87c0-1.17,0.86-1.74,2.6-1.74
				c1.74,0,3.74,0.57,5.3,1.49l1.3-2.51c-1.78-1.11-4.18-1.74-6.5-1.74c-3.96,0-6.37,1.81-6.37,4.85c0,1.14,0.38,2.03,1.14,2.7
				c0.79,0.67,2.15,1.27,4.09,1.81l2,0.54c2,0.6,2.47,0.95,2.47,1.87c0,1.3-0.95,1.96-2.88,1.96c-2.06,0-4.31-0.67-6.18-1.81
				l-1.33,2.44c2.03,1.36,4.69,2.13,7.39,2.13c4.18,0,6.63-1.84,6.63-5.01C749.19,547.75,747.76,546.52,744.05,545.5L744.05,545.5z"
				/>
			<path class="st2" d="M764.54,545.5l-1.78-0.48c-2.19-0.6-2.73-0.95-2.73-1.87c0-1.17,0.86-1.74,2.6-1.74
				c1.74,0,3.74,0.57,5.3,1.49l1.3-2.51c-1.78-1.11-4.18-1.74-6.5-1.74c-3.96,0-6.37,1.81-6.37,4.85c0,1.14,0.38,2.03,1.14,2.7
				c0.79,0.67,2.15,1.27,4.09,1.81l2,0.54c2,0.6,2.47,0.95,2.47,1.87c0,1.3-0.95,1.96-2.88,1.96c-2.06,0-4.31-0.67-6.18-1.81
				l-1.33,2.44c2.03,1.36,4.69,2.13,7.39,2.13c4.18,0,6.63-1.84,6.63-5.01C769.67,547.75,768.25,546.52,764.54,545.5L764.54,545.5z"
				/>
			<path class="st2" d="M779.56,532.98c-1.17,0-2.12,0.86-2.12,1.97c0,1.11,0.95,1.96,2.12,1.96c1.17,0,2.09-0.86,2.09-1.96
				C781.66,533.9,780.7,532.98,779.56,532.98z"/>
			<rect x="777.66" y="538.97" class="st2" width="3.84" height="15.85"/>
			<path class="st2" d="M798.3,538.65c-4.91,0-8.78,3.58-8.78,8.24c0,4.66,3.87,8.24,8.78,8.24c4.91,0.1,8.94-3.65,8.85-8.24
				C807.24,542.3,803.22,538.56,798.3,538.65z M798.3,551.84c-2.82,0-4.98-2.15-4.98-4.95s2.16-4.95,4.98-4.95
				c2.82,0,5.04,2.16,5.04,4.95S801.19,551.84,798.3,551.84z"/>
			<path class="st2" d="M825.32,538.65c-2.25,0-4.6,0.82-6.53,2.32v-2h-3.87v15.85h3.87v-11.04c1.43-1.27,3.23-2,4.91-2
				c2.28,0,3.55,1.33,3.55,3.62v9.42h3.84V544.3C831.09,540.78,828.9,538.65,825.32,538.65L825.32,538.65z"/>
		</g>
		<rect x="326.42" y="416.26" class="st2" width="2.23" height="167.49"/>
		<g>
			<path class="st2" d="M206.82,507.9c-2.03,2.03-4.83,3.28-7.92,3.28c-6.19,0-11.2-5.01-11.2-11.2s5.01-11.2,11.2-11.2
				c3.09,0,5.89,1.25,7.92,3.28l7.92-7.92c-4.05-4.05-9.65-6.56-15.84-6.56c-12.37,0-22.4,10.03-22.4,22.4s10.03,22.4,22.4,22.4
				c6.19,0,11.79-2.51,15.84-6.56L206.82,507.9z"/>
			<polygon class="st2" points="293.31,477.78 260.84,477.78 260.84,488.98 277.9,488.98 271.48,492.65 271.48,522.32 
				282.68,522.32 282.68,488.98 293.31,488.98 			"/>
			<g>
				<path class="st3" d="M146.38,472.73l-0.76-0.35c-0.17,0.35-0.35,0.71-0.51,1.06l0.7,0.36
					C145.99,473.44,146.18,473.08,146.38,472.73L146.38,472.73z"/>
				<path class="st3" d="M146.05,462.47l-1.16-0.75c-0.18,0.26-0.35,0.52-0.52,0.78l1.09,0.74
					C145.65,462.98,145.85,462.73,146.05,462.47L146.05,462.47z"/>
				<path class="st3" d="M145.83,467.79l-0.7-0.38c-0.17,0.3-0.35,0.59-0.51,0.89l0.64,0.38
					C145.44,468.38,145.63,468.08,145.83,467.79z"/>
				<path class="st3" d="M148.47,469.24l-0.89-0.49c-0.19,0.32-0.38,0.64-0.56,0.96l0.84,0.5
					C148.06,469.88,148.26,469.56,148.47,469.24L148.47,469.24z"/>
				<path class="st3" d="M147.13,477.71l-0.47-0.18c-0.13,0.34-0.27,0.68-0.39,1.03l0.39,0.17
					C146.82,478.39,146.97,478.05,147.13,477.71z"/>
				<path class="st3" d="M147.04,464.31l0.83,0.56c0.21-0.27,0.42-0.54,0.63-0.81l-0.89-0.58
					C147.42,463.76,147.23,464.03,147.04,464.31z"/>
				<path class="st3" d="M142.32,465.85c-0.15,0.27-0.31,0.54-0.46,0.82l0.94,0.55c0.17-0.27,0.35-0.55,0.52-0.82L142.32,465.85
					L142.32,465.85z"/>
				<path class="st3" d="M149.06,458.77l-1.3-0.99c-0.26,0.33-0.52,0.66-0.77,1l1.24,0.96c0.14-0.16,0.27-0.33,0.41-0.49
					C148.78,459.08,148.93,458.93,149.06,458.77L149.06,458.77z"/>
				<path class="st3" d="M144.39,476.67l-0.58-0.22c-0.12,0.29-0.23,0.59-0.34,0.88l0.52,0.23
					C144.12,477.26,144.26,476.97,144.39,476.67z"/>
				<path class="st3" d="M155.86,452.13l-1.51-1.57c-0.47,0.44-0.93,0.88-1.39,1.34l1.46,1.47
					C154.9,452.95,155.37,452.53,155.86,452.13L155.86,452.13z"/>
				<path class="st3" d="M152.9,463.35c0.29-0.33,0.58-0.66,0.88-0.99l-1.13-0.86c-0.28,0.34-0.56,0.67-0.83,1.02L152.9,463.35
					L152.9,463.35z"/>
				<path class="st3" d="M153.49,458.45c0.38-0.37,0.76-0.73,1.14-1.09l-1.21-1.08c-0.36,0.38-0.71,0.78-1.06,1.17L153.49,458.45
					L153.49,458.45z"/>
				<path class="st3" d="M151.76,467.5l1.08,0.73c0.23-0.3,0.45-0.6,0.68-0.9l-1.15-0.75C152.17,466.89,151.96,467.19,151.76,467.5
					L151.76,467.5z"/>
				<path class="st3" d="M150.99,465.69l-1.02-0.67c-0.2,0.29-0.41,0.57-0.6,0.86l0.97,0.66
					C150.56,466.26,150.78,465.97,150.99,465.69L150.99,465.69z"/>
				<path class="st3" d="M150.38,459.77c-0.15,0.18-0.3,0.36-0.44,0.54c-0.12,0.15-0.23,0.31-0.36,0.47l0.98,0.76
					c0.29-0.33,0.58-0.65,0.87-0.97L150.38,459.77L150.38,459.77z"/>
				<path class="st3" d="M143.6,471.46l-0.52-0.24c-0.16,0.32-0.3,0.65-0.45,0.97l0.45,0.23
					C143.25,472.09,143.43,471.78,143.6,471.46z"/>
				<path class="st3" d="M149.87,455.24l1.35,1.2c0.37-0.38,0.74-0.76,1.11-1.13l-1.42-1.27
					C150.56,454.44,150.22,454.84,149.87,455.24z"/>
				<path class="st3" d="M151.11,470.69l-0.96-0.53c-0.2,0.35-0.39,0.7-0.57,1.05l0.86,0.51
					C150.66,471.38,150.88,471.03,151.11,470.69L151.11,470.69z"/>
				<path class="st3" d="M149.08,473.97l-0.74-0.34c-0.19,0.39-0.37,0.78-0.55,1.18l0.64,0.33
					C148.65,474.75,148.86,474.36,149.08,473.97z"/>
				<path class="st3" d="M160.64,457.09c-0.45,0.4-0.88,0.81-1.32,1.23l1.26,1.27c0.43-0.41,0.86-0.82,1.3-1.21L160.64,457.09
					L160.64,457.09z"/>
				<path class="st3" d="M162.22,452.38c-0.56,0.42-1.12,0.85-1.66,1.29l2.9,3.33c0.51-0.43,1.03-0.85,1.56-1.26L162.22,452.38
					L162.22,452.38z"/>
				<path class="st3" d="M141.52,475.59l-0.31-0.12c-0.1,0.25-0.19,0.5-0.29,0.75l0.26,0.12
					C141.29,476.09,141.41,475.84,141.52,475.59L141.52,475.59z"/>
				<path class="st3" d="M161.92,444.36c-0.71,0.5-1.41,1.01-2.09,1.54l1.61,2.11c0.7-0.46,1.41-0.91,2.13-1.34L161.92,444.36z"/>
				<path class="st3" d="M157.63,460.03c-0.36,0.38-0.71,0.76-1.05,1.15l1.32,1.17c0.04-0.04,0.08-0.08,0.12-0.12
					c0.31-0.34,0.63-0.68,0.95-1.01L157.63,460.03L157.63,460.03z"/>
				<path class="st3" d="M166.05,441.69c-0.84,0.5-1.67,1.02-2.49,1.56l6.17,9.2c0.7-0.44,1.41-0.86,2.13-1.26L166.05,441.69
					L166.05,441.69z"/>
				<path class="st3" d="M199.24,432.85c-9.87,0-19.24,2.14-27.67,5.98l5.09,9.95c6.91-3.06,14.55-4.77,22.59-4.77
					c6.79,0,13.29,1.21,19.31,3.43l3.86-10.47C215.19,434.31,207.38,432.85,199.24,432.85L199.24,432.85z"/>
				<path class="st3" d="M170.38,439.38c-0.99,0.47-1.96,0.97-2.92,1.49l5.65,9.63c0.8-0.43,1.61-0.83,2.44-1.22L170.38,439.38
					L170.38,439.38z"/>
				<path class="st3" d="M164.04,447.34c-0.69,0.46-1.37,0.93-2.04,1.41l4.49,5.88c0.6-0.44,1.21-0.86,1.84-1.27L164.04,447.34
					L164.04,447.34z"/>
				<path class="st3" d="M138.63,475.22c0.09-0.21,0.17-0.42,0.27-0.62l-0.66-0.25c-0.08,0.2-0.15,0.4-0.23,0.6L138.63,475.22
					L138.63,475.22z"/>
				<path class="st3" d="M155.59,458.21c-0.36,0.38-0.73,0.75-1.08,1.14l1.16,1.03c0.37-0.37,0.75-0.73,1.13-1.09L155.59,458.21
					L155.59,458.21z"/>
				<path class="st3" d="M154.04,464.24l1.22,0.95c0.29-0.34,0.59-0.68,0.89-1.01l-1.29-0.98
					C154.58,463.54,154.31,463.89,154.04,464.24L154.04,464.24z"/>
				<path class="st3" d="M139.79,470.74l0.78,0.4c0.15-0.29,0.3-0.58,0.45-0.87l-0.83-0.38
					C140.05,470.17,139.92,470.45,139.79,470.74L139.79,470.74z"/>
				<path class="st3" d="M160.28,450.04c-0.57,0.45-1.14,0.9-1.69,1.36l1.36,1.57c0.58-0.42,1.16-0.83,1.75-1.22
					C161.69,451.75,160.28,450.04,160.28,450.04z"/>
				<path class="st3" d="M156.73,453.03c-0.46,0.42-0.92,0.85-1.37,1.29l1.26,1.27c0.47-0.4,0.95-0.79,1.44-1.18L156.73,453.03
					L156.73,453.03z"/>
				<path class="st3" d="M160.07,456.5l-1.28-1.33c-0.46,0.4-0.91,0.82-1.36,1.23l1.24,1.25
					C159.13,457.26,159.59,456.87,160.07,456.5L160.07,456.5z"/>
				<path class="st3" d="M159.61,449.24l-1.59-1.92c-0.58,0.48-1.16,0.96-1.72,1.46l1.53,1.76
					C158.41,450.1,159.01,449.67,159.61,449.24L159.61,449.24z"/>
			</g>
			<g>
				<path class="st4" d="M238.72,553.38l-1.1-1.46c-0.44,0.3-0.88,0.61-1.32,0.9l1.15,1.52
					C237.88,554.03,238.3,553.71,238.72,553.38L238.72,553.38z"/>
				<path class="st4" d="M236.69,550.69l-0.91-1.21c-0.44,0.29-0.89,0.58-1.34,0.86l0.98,1.3
					C235.85,551.34,236.27,551.02,236.69,550.69L236.69,550.69z"/>
				<path class="st4" d="M239.27,540.9l-0.95-0.97c-0.28,0.25-0.56,0.49-0.85,0.73l1.03,1.01
					C238.76,541.42,239.02,541.16,239.27,540.9L239.27,540.9z"/>
				<path class="st4" d="M233.65,549.3c0.43-0.3,0.86-0.61,1.29-0.92l-0.93-1.23c-0.44,0.29-0.88,0.58-1.33,0.86L233.65,549.3
					L233.65,549.3z"/>
				<path class="st4" d="M235,556.08l-1.14-1.74c-0.55,0.33-1.11,0.64-1.68,0.95l1.18,1.85C233.91,556.79,234.46,556.44,235,556.08
					L235,556.08z"/>
				<path class="st4" d="M242.24,550.44l-1.03-1.19c-0.21,0.16-0.4,0.33-0.61,0.5c-0.13,0.1-0.26,0.19-0.39,0.29l1.07,1.22
					C241.61,550.99,241.93,550.72,242.24,550.44L242.24,550.44z"/>
				<path class="st4" d="M239.53,548.43c0.19-0.16,0.37-0.33,0.55-0.49l-0.82-0.94c-0.34,0.27-0.69,0.52-1.04,0.78l0.88,1
					C239.25,548.66,239.39,548.55,239.53,548.43L239.53,548.43z"/>
				<path class="st4" d="M242.16,537.68l-0.82-0.73c-0.28,0.29-0.55,0.59-0.83,0.87l0.9,0.76
					C241.66,538.29,241.91,537.99,242.16,537.68L242.16,537.68z"/>
				<path class="st4" d="M241.28,542.93l-0.8-0.81c-0.26,0.24-0.53,0.47-0.79,0.7l0.85,0.83
					C240.78,543.42,241.03,543.18,241.28,542.93L241.28,542.93z"/>
				<path class="st4" d="M243.27,544.96l-0.71-0.72c-0.25,0.22-0.5,0.44-0.76,0.67l0.75,0.74
					C242.8,545.42,243.04,545.19,243.27,544.96L243.27,544.96z"/>
				<path class="st4" d="M234.27,543.26l1.11,1.26c0.34-0.29,0.68-0.57,1.01-0.87l-1.06-1.22
					C234.97,542.71,234.62,543,234.27,543.26L234.27,543.26z"/>
				<path class="st4" d="M229.34,555.47l-1.04-1.82c-0.66,0.3-1.32,0.6-1.99,0.88l1.06,1.97
					C228.04,556.17,228.69,555.83,229.34,555.47L229.34,555.47z"/>
				<path class="st4" d="M223.41,559.22l1.17,2.61c0.81-0.36,1.62-0.73,2.41-1.12l-1.17-2.4
					C225.02,558.63,224.22,558.93,223.41,559.22L223.41,559.22z"/>
				<path class="st4" d="M214.68,553.53c-0.9,0.27-1.8,0.52-2.72,0.74l3.14,10.83c1.1-0.28,2.18-0.58,3.26-0.91L214.68,553.53z"/>
				<path class="st4" d="M231.48,550.74l-0.97-1.46c-0.54,0.3-1.08,0.59-1.63,0.87l1,1.56
					C230.42,551.39,230.95,551.07,231.48,550.74L231.48,550.74z"/>
				<path class="st4" d="M238.21,545.77l-0.87-1.01c-0.35,0.27-0.7,0.54-1.05,0.8l0.92,1.05
					C237.54,546.34,237.88,546.06,238.21,545.77z"/>
				<path class="st4" d="M233.11,553.22l-0.99-1.51c-0.55,0.31-1.1,0.6-1.66,0.89l1.04,1.63
					C232.04,553.9,232.58,553.57,233.11,553.22L233.11,553.22z"/>
				<path class="st4" d="M231.08,558.52l-1.17-2.05c-0.67,0.33-1.35,0.65-2.04,0.96l1.19,2.21
					C229.74,559.28,230.41,558.91,231.08,558.52L231.08,558.52z"/>
				<path class="st4" d="M228.44,549.45c0.52-0.31,1.04-0.63,1.56-0.96l-1.01-1.54c-0.5,0.32-1.02,0.64-1.53,0.95L228.44,549.45
					L228.44,549.45z"/>
				<path class="st4" d="M253.31,536.45l0.6,0.37c0.1-0.16,0.2-0.33,0.31-0.5l-0.56-0.39C253.54,536.11,253.43,536.28,253.31,536.45
					z"/>
				<path class="st4" d="M251.11,540.8c0.18-0.24,0.36-0.48,0.54-0.72l-0.69-0.54c-0.2,0.24-0.39,0.49-0.59,0.73L251.11,540.8
					L251.11,540.8z"/>
				<path class="st4" d="M232.01,547.12c0.43-0.3,0.85-0.62,1.27-0.93l-1.09-1.44c-0.1,0.07-0.2,0.15-0.3,0.21l0,0
					c-0.32,0.24-0.65,0.46-0.98,0.69L232.01,547.12L232.01,547.12z"/>
				<path class="st4" d="M251.59,534.49l-0.24-0.17c-0.15,0.21-0.29,0.42-0.44,0.62l0.29,0.18
					C251.32,534.91,251.45,534.7,251.59,534.49L251.59,534.49z"/>
				<path class="st4" d="M225.92,553.8c0.65-0.31,1.29-0.63,1.92-0.96l-2.21-3.89c-0.6,0.33-1.2,0.65-1.81,0.95L225.92,553.8
					L225.92,553.8z"/>
				<path class="st4" d="M244.33,539.63l-0.68-0.61c-0.25,0.27-0.51,0.54-0.77,0.81l0.74,0.62
					C243.86,540.18,244.1,539.91,244.33,539.63L244.33,539.63z"/>
				<path class="st4" d="M219.92,563.67c0.95-0.34,1.89-0.69,2.82-1.07l-4.28-10.34c-0.79,0.3-1.6,0.58-2.41,0.84L219.92,563.67
					L219.92,563.67z"/>
				<path class="st4" d="M223.07,558.45c0.78-0.32,1.56-0.65,2.33-1.01l-3.28-6.73c-0.69,0.32-1.39,0.63-2.1,0.92L223.07,558.45
					L223.07,558.45z"/>
				<path class="st4" d="M210.76,554.54c-3.93,0.87-8.01,1.34-12.21,1.34c-10.83,0-20.94-3.05-29.52-8.35l-5.91,9.59
					c10.3,6.35,22.44,10.02,35.43,10.02c5.25,0,10.36-0.61,15.27-1.74L210.76,554.54L210.76,554.54z"/>
				<path class="st4" d="M246.43,541.51l-0.55-0.5c-0.24,0.25-0.47,0.5-0.71,0.74l0.61,0.51
					C245.99,542.02,246.21,541.77,246.43,541.51L246.43,541.51z"/>
				<path class="st4" d="M246.24,537.27c0.23-0.3,0.46-0.61,0.69-0.91l-0.55-0.44c-0.25,0.3-0.5,0.6-0.75,0.9L246.24,537.27
					L246.24,537.27z"/>
				<path class="st4" d="M245.54,547.27l-0.92-0.93c-0.23,0.21-0.48,0.42-0.71,0.63l0.98,0.96
					C245.11,547.71,245.33,547.49,245.54,547.27L245.54,547.27z"/>
				<path class="st4" d="M244.61,534.51l-0.63-0.5c-0.28,0.33-0.57,0.65-0.85,0.98l0.74,0.54
					C244.11,535.2,244.36,534.86,244.61,534.51z"/>
				<path class="st4" d="M249.28,532.88l-0.39-0.27c-0.18,0.25-0.36,0.5-0.54,0.74l0.45,0.28
					C248.97,533.38,249.13,533.13,249.28,532.88L249.28,532.88z"/>
				<path class="st4" d="M247.37,543.62l0.87,0.73c0.2-0.23,0.39-0.46,0.59-0.69l-0.8-0.72
					C247.81,543.17,247.59,543.4,247.37,543.62L247.37,543.62z"/>
				<path class="st4" d="M248.52,538.92c0.21-0.27,0.41-0.55,0.61-0.83l-0.4-0.31c-0.22,0.27-0.45,0.54-0.67,0.81L248.52,538.92
					L248.52,538.92z"/>
				<path class="st4" d="M246.39,530.85c-0.21,0.29-0.41,0.59-0.62,0.87l0.51,0.32c0.19-0.29,0.37-0.59,0.56-0.88L246.39,530.85
					L246.39,530.85z"/>
			</g>
			<g>
				<path class="st5" d="M176.28,525.42c-0.39-0.31-0.77-0.63-1.14-0.95l-1.13,1.12c0.36,0.38,0.72,0.74,1.09,1.1L176.28,525.42z"/>
				<path class="st5" d="M172.82,522.25l-0.96,0.79c0.32,0.42,0.65,0.83,0.98,1.23l1.06-0.93
					C173.54,522.99,173.18,522.62,172.82,522.25L172.82,522.25z"/>
				<path class="st5" d="M177.23,529.78c-0.45-0.27-0.9-0.56-1.34-0.86l-1.02,1.23c0.43,0.36,0.86,0.71,1.31,1.04L177.23,529.78
					L177.23,529.78z"/>
				<path class="st5" d="M169.03,522.63c-0.3-0.36-0.59-0.73-0.88-1.11l-0.46,0.32c0.25,0.41,0.51,0.81,0.78,1.2L169.03,522.63
					L169.03,522.63z"/>
				<path class="st5" d="M174.19,527.69c-0.42-0.33-0.84-0.67-1.25-1.02l-0.87,0.86c0.38,0.4,0.77,0.8,1.17,1.18L174.19,527.69
					L174.19,527.69z"/>
				<path class="st5" d="M170.78,526.08l0.78-0.69c-0.39-0.38-0.77-0.76-1.14-1.17l-0.68,0.56
					C170.08,525.23,170.43,525.66,170.78,526.08L170.78,526.08z"/>
				<path class="st5" d="M216.98,528.83c-5.39,3.42-11.81,5.33-18.67,5.17c-2.07-0.05-4.08-0.29-6.04-0.69l-2.41,10.89
					c2.65,0.56,5.38,0.89,8.19,0.95c9.14,0.21,17.71-2.34,24.9-6.9L216.98,528.83z"/>
				<path class="st5" d="M163.56,524.68l-0.66,0.45c0.27,0.43,0.56,0.85,0.85,1.27l0.72-0.52
					C164.16,525.49,163.85,525.09,163.56,524.68L163.56,524.68z"/>
				<path class="st5" d="M189.06,532.48l-3.32,10.57c0.75,0.26,1.51,0.5,2.28,0.72c0.28,0.07,0.55,0.14,0.83,0.21l2.49-10.87
					C190.57,532.92,189.8,532.72,189.06,532.48L189.06,532.48z"/>
				<path class="st5" d="M166.08,527.83l-0.8,0.66c0.38,0.48,0.76,0.95,1.15,1.41l0.87-0.76
					C166.88,528.71,166.48,528.27,166.08,527.83L166.08,527.83z"/>
				<path class="st5" d="M176.62,528.04c0.39,0.33,0.79,0.64,1.2,0.95l1.19-1.61c-0.4-0.26-0.79-0.52-1.19-0.8L176.62,528.04
					L176.62,528.04z"/>
				<path class="st5" d="M179.4,533.34l1.08-1.85c-0.55-0.25-1.09-0.51-1.62-0.79l-1.09,1.63
					C178.3,532.68,178.85,533.01,179.4,533.34L179.4,533.34z"/>
				<path class="st5" d="M166.75,524.26c-0.31-0.38-0.61-0.77-0.9-1.16l-0.45,0.31c0.26,0.42,0.54,0.82,0.82,1.23L166.75,524.26
					L166.75,524.26z"/>
				<path class="st5" d="M171.55,520.83c-0.29-0.35-0.59-0.7-0.87-1.06l-0.71,0.48c0.24,0.4,0.49,0.79,0.74,1.17L171.55,520.83
					L171.55,520.83z"/>
				<path class="st5" d="M181.31,538.53c-0.76-0.3-1.51-0.63-2.24-0.97l-1.06,1.98c0.75,0.43,1.51,0.85,2.29,1.24L181.31,538.53
					L181.31,538.53z"/>
				<path class="st5" d="M185.38,539.9c-0.88-0.24-1.74-0.51-2.6-0.81l-1,2.39c0.89,0.4,1.78,0.78,2.7,1.13L185.38,539.9
					L185.38,539.9z"/>
				<path class="st5" d="M182.63,535.61c-0.71-0.24-1.41-0.51-2.09-0.79l-1,1.87c0.69,0.38,1.4,0.74,2.12,1.08L182.63,535.61
					L182.63,535.61z"/>
				<path class="st5" d="M187.97,532.12c-0.66-0.23-1.32-0.48-1.96-0.75l-2.95,7.04c0.82,0.35,1.65,0.66,2.49,0.95L187.97,532.12z"
					/>
				<path class="st5" d="M179.3,530.03c0.49,0.32,0.98,0.63,1.49,0.92l1.02-1.73c-0.46-0.28-0.92-0.57-1.37-0.88L179.3,530.03
					L179.3,530.03z"/>
				<path class="st5" d="M169.45,527.26c-0.4-0.4-0.8-0.82-1.18-1.24l-0.64,0.53c0.36,0.46,0.72,0.9,1.1,1.34L169.45,527.26
					L169.45,527.26z"/>
				<path class="st5" d="M180.89,534.15c0.65,0.33,1.3,0.64,1.97,0.93l1.92-4.26c-0.56-0.27-1.11-0.55-1.65-0.84L180.89,534.15
					L180.89,534.15z"/>
				<path class="st5" d="M173.73,534.51c-0.25-0.17-0.51-0.33-0.75-0.51c-0.27-0.19-0.52-0.39-0.79-0.59l-1.03,1.25
					c0.5,0.43,1.01,0.85,1.53,1.26L173.73,534.51L173.73,534.51z"/>
				<path class="st5" d="M172.25,529.79c-0.45-0.36-0.88-0.74-1.32-1.12l-0.79,0.79c0.41,0.43,0.83,0.84,1.25,1.25L172.25,529.79
					L172.25,529.79z"/>
				<path class="st5" d="M178.95,534.1c-0.59-0.29-1.18-0.59-1.76-0.92l-0.98,1.46c0.58,0.4,1.16,0.78,1.75,1.15L178.95,534.1z"/>
				<path class="st5" d="M170.29,531.92c-0.47-0.4-0.93-0.8-1.38-1.22l-0.92,0.92c0.44,0.46,0.88,0.91,1.34,1.35L170.29,531.92
					L170.29,531.92z"/>
				<path class="st5" d="M177.42,536.73c-0.64-0.34-1.26-0.7-1.88-1.07l-1.07,1.6c0.62,0.44,1.25,0.87,1.9,1.28L177.42,536.73
					L177.42,536.73z"/>
				<path class="st5" d="M174.55,533.41l0.94-1.28c-0.48-0.31-0.96-0.64-1.43-0.98l-0.92,1.12c0.23,0.2,0.46,0.4,0.7,0.59
					C174.07,533.05,174.31,533.23,174.55,533.41L174.55,533.41z"/>
			</g>
			<g>
				<path class="st6" d="M193.34,463.22l-0.11-0.9c-0.59,0.06-1.18,0.14-1.76,0.23l0.17,1.06
					C192.19,463.47,192.76,463.34,193.34,463.22L193.34,463.22z"/>
				<path class="st6" d="M193.73,466.28l-0.16-1.22c-0.56,0.06-1.13,0.13-1.69,0.21l0.22,1.38
					C192.64,466.51,193.18,466.39,193.73,466.28L193.73,466.28z"/>
				<path class="st6" d="M170.35,465.32l1.81,2.21c0.64-0.59,1.31-1.15,1.98-1.69l-1.51-2.16
					C171.86,464.2,171.1,464.75,170.35,465.32L170.35,465.32z"/>
				<path class="st6" d="M178.86,466.25l-1.06-1.88c-0.67,0.38-1.33,0.78-1.97,1.19l1.3,1.98
					C177.7,467.09,178.27,466.66,178.86,466.25z"/>
				<path class="st6" d="M190.55,456.8l0.19,1.17c0.62-0.14,1.25-0.26,1.88-0.37l-0.13-1.05
					C191.84,456.62,191.19,456.7,190.55,456.8L190.55,456.8z"/>
				<path class="st6" d="M180.78,461.54l-0.79-1.8c-0.69,0.29-1.38,0.61-2.06,0.93l0.98,1.9
					C179.52,462.21,180.14,461.87,180.78,461.54L180.78,461.54z"/>
				<path class="st6" d="M177.34,463.54l-1.13-2c-0.74,0.4-1.47,0.83-2.19,1.27l1.37,2.08
					C176.02,464.42,176.67,463.97,177.34,463.54L177.34,463.54z"/>
				<path class="st6" d="M195.07,456.36l0.05,0.9c0.56-0.06,1.13-0.11,1.7-0.15l-0.03-0.8
					C196.21,456.32,195.64,456.34,195.07,456.36L195.07,456.36z"/>
				<path class="st6" d="M196.92,459.9l-0.02-0.55c-0.56,0-1.11,0.01-1.67,0.04l0.04,0.66C195.82,459.99,196.37,459.94,196.92,459.9
					L196.92,459.9z"/>
				<path class="st6" d="M169.29,466.14c-0.52,0.42-1.03,0.86-1.53,1.3c-0.26,0.24-0.52,0.49-0.77,0.73l7.86,7.92
					c0.52-0.51,1.06-1,1.62-1.48L169.29,466.14L169.29,466.14z"/>
				<path class="st6" d="M197.15,465.76l-0.03-0.85c-0.52-0.01-1.05,0-1.57,0.02l0.06,1.02
					C196.12,465.88,196.63,465.82,197.15,465.76L197.15,465.76z"/>
				<path class="st6" d="M192.98,460.41l-0.11-0.85c-0.62,0.06-1.23,0.15-1.84,0.24l0.15,0.98
					C191.77,460.64,192.37,460.52,192.98,460.41L192.98,460.41z"/>
				<path class="st6" d="M197.03,462.69l-0.02-0.56c-0.54,0-1.08,0-1.62,0.02l0.04,0.71C195.96,462.8,196.5,462.74,197.03,462.69
					L197.03,462.69z"/>
				<path class="st6" d="M188.56,458.5l-0.29-1.31c-0.64,0.13-1.28,0.27-1.91,0.44l0.38,1.43
					C187.34,458.86,187.95,458.67,188.56,458.5L188.56,458.5z"/>
				<path class="st6" d="M189.82,464.12l-0.27-1.22c-0.56,0.12-1.12,0.26-1.67,0.41l0.36,1.35
					C188.76,464.47,189.29,464.29,189.82,464.12z"/>
				<path class="st6" d="M190.49,467.1l-0.34-1.52c-0.52,0.11-1.05,0.23-1.57,0.37l0.44,1.64C189.51,467.42,190,467.25,190.49,467.1
					L190.49,467.1z"/>
				<path class="st6" d="M179.24,466.91c-0.6,0.36-1.19,0.73-1.78,1.12l2.58,3.91c0.5-0.32,1-0.63,1.52-0.92L179.24,466.91z"/>
				<path class="st6" d="M182,464.31l-0.74-1.67c-0.63,0.28-1.25,0.57-1.87,0.88l0.92,1.78C180.87,464.95,181.43,464.62,182,464.31z
					"/>
				<path class="st6" d="M183.52,467.74c-0.52,0.24-1.04,0.49-1.55,0.75l0.93,1.79c0.47-0.24,0.95-0.48,1.44-0.7L183.52,467.74
					L183.52,467.74z"/>
				<path class="st6" d="M166.25,468.91c-7.83,8.04-12.66,19.02-12.66,31.13h11.16c0-9.05,3.59-17.25,9.43-23.27L166.25,468.91
					L166.25,468.91z"/>
				<path class="st6" d="M174.55,466.42c-0.69,0.49-1.38,0.99-2.04,1.53l4.85,5.93c0.52-0.41,1.04-0.81,1.58-1.19L174.55,466.42z"/>
				<path class="st6" d="M184.02,460.05c0.15-0.06,0.29-0.11,0.44-0.17l-0.52-1.58c-0.63,0.2-1.26,0.41-1.89,0.64l0.65,1.68
					C183.14,460.42,183.57,460.23,184.02,460.05L184.02,460.05z"/>
				<path class="st6" d="M183.2,467.02l-0.78-1.76c-0.57,0.26-1.14,0.54-1.7,0.83l0.96,1.86
					C182.18,467.62,182.69,467.31,183.2,467.02L183.2,467.02z"/>
				<path class="st6" d="M185.38,462.67l-0.46-1.41c-0.13,0.04-0.27,0.08-0.4,0.12c-0.45,0.15-0.89,0.31-1.33,0.48l0.59,1.53
					C184.3,463.13,184.84,462.9,185.38,462.67L185.38,462.67z"/>
				<path class="st6" d="M187.22,468.29l-0.58-1.77c-0.49,0.16-0.97,0.33-1.45,0.51l0.72,1.85
					C186.34,468.68,186.78,468.48,187.22,468.29L187.22,468.29z"/>
				<path class="st6" d="M186.29,465.45l-0.5-1.52c-0.53,0.18-1.06,0.37-1.58,0.57l0.63,1.63
					C185.32,465.89,185.8,465.67,186.29,465.45L186.29,465.45z"/>
				<path class="st6" d="M189.19,461.31l-0.25-1.12c-0.6,0.13-1.19,0.27-1.79,0.42l0.33,1.25
					C188.05,461.66,188.62,461.48,189.19,461.31L189.19,461.31z"/>
			</g>
			<path class="st2" d="M240.18,495.36c-4.4-1-8.2-1.87-8.2-4.26c0-3.26,4.31-3.75,6.87-3.75c2.74,0,5.52,0.61,8.29,1.8l0.22,0.1
				l7.16-7.16l-0.79-0.51c-3.82-2.41-9.23-3.79-14.82-3.79c-11.13,0-18.33,5.41-18.33,13.79c0,9.71,8.72,11.74,15.76,13.38
				c4.4,1.02,8.21,1.9,8.21,4.35c0,3.01-4.38,3.46-6.99,3.46c-3.68,0-7.65-1.02-10.91-2.78l-0.23-0.13l-6.97,6.97l0.69,0.54
				c3.89,3.02,10.7,4.97,17.36,4.97c13.61,0,18.44-7.4,18.44-13.73C255.95,498.98,247.22,496.98,240.18,495.36L240.18,495.36z"/>
		</g>
	</g>
</g>
</svg>
