<?xml version="1.0" encoding="utf-8"?>
<!-- Generator: Adobe Illustrator 27.2.0, SVG Export Plug-In . SVG Version: 6.00 Build 0)  -->
<svg version="1.1" xmlns="http://www.w3.org/2000/svg" xmlns:xlink="http://www.w3.org/1999/xlink" x="0px" y="0px"
	 viewBox="0 0 1000 1000" style="enable-background:new 0 0 1000 1000;" xml:space="preserve">
<style type="text/css">
	.st0{fill:#006D46;}
</style>
<g id="Layer_1">
	<g>
		<g>
			<path class="st0" d="M401.4,495.1v-37.8h-10.5v38.4c0,8.6-3.2,11.2-8.5,11.2c-2.6,0-4.6-0.4-6.5-1l-0.9,8.4
				c2,0.5,4.2,0.8,6.7,0.8C398,515.1,401.4,505.3,401.4,495.1z"/>
			<path class="st0" d="M491.6,451.2c3,0,5.3-2.5,5.3-5.4c0-3-2.3-5.4-5.3-5.4s-5.3,2.5-5.3,5.4
				C486.3,448.8,488.6,451.2,491.6,451.2z"/>
			<path class="st0" d="M498.1,439.9c2.8,0,4.9-2.2,4.9-5c0-2.8-2.2-5-4.9-5c-2.7,0-4.9,2.2-4.9,5
				C493.3,437.7,495.4,439.9,498.1,439.9z"/>
			<path class="st0" d="M499.5,445.8c0,3,2.3,5.4,5.3,5.4c3,0,5.3-2.5,5.3-5.4c0-3-2.3-5.4-5.3-5.4
				C501.8,440.4,499.5,442.8,499.5,445.8z"/>
			<path class="st0" d="M519.9,451.2c3,0,5.3-2.5,5.3-5.4c0-3-2.3-5.4-5.3-5.4c-3,0-5.3,2.5-5.3,5.4
				C514.6,448.8,517,451.2,519.9,451.2z"/>
			<path class="st0" d="M533.2,451.2c3,0,5.3-2.5,5.3-5.4c0-3-2.3-5.4-5.3-5.4c-3,0-5.3,2.5-5.3,5.4
				C527.9,448.8,530.2,451.2,533.2,451.2z"/>
			<path class="st0" d="M604.2,476.2c0-7.9-1-15.7-2.6-22.1l-10.3,1.4c1.4,6.1,2.3,13.4,2.3,21.4c0,2.5-0.2,6.4-0.6,9.6h-2.8
				c-7,0-8.8-2.2-8.8-8.9v-18.8h-10.1V478c0,5.7-1.3,9.2-5.9,9.2c-4.7,0-6.1-3.3-6.1-9.3v-15.8H549v14.4c0,7.9-2,10-7.2,10h-1.4
				h-1.2h-5.9v-29.2h-10.5v29.2h-10h-1.2H505v-29.2h-10.5v29.2h-9.9h-1.3h-5.5v-11.3c0-11.7-5.6-19-18.4-19
				c-13.4,0-20.4,9.3-20.4,20.7c0,7.3-2.2,9.6-6,9.6h-0.4h-1.2h-6.8v-48h-10.5v56.3h17.3h1.2h0v0c4.8,0,8.5-2,10.5-6.1
				c2.4,3.9,7,6.1,16.4,6.1h23.7h1.3h27h1.2h26.4h1.2h1.3c5.9,0,9.2-2.1,10.6-5.9c1.4,4.2,5.5,6.6,11.3,6.6c5,0,9.7-2.2,11.6-6.6
				c1.8,4.3,6,5.9,12.9,5.9H603C603.7,489.1,604.2,482,604.2,476.2z M467.5,486.5h-6.9c-8.2,0-11.3-3.5-11.3-10.5
				c0-6.8,3.4-11.4,9.3-11.4s8.9,3.5,8.9,11.9V486.5z"/>
			<polygon class="st0" points="650.6,438.5 640.1,438.5 640.1,486.5 615.4,486.5 615.4,494.8 650.6,494.8 			"/>
			<polygon class="st0" points="634.3,480.5 622.6,438 612.2,439.4 623.6,480.5 			"/>
			<rect x="664.1" y="438.5" class="st0" width="10.5" height="56.3"/>
			<path class="st0" d="M742.8,494.8v-20.2c0-11.2-5.6-18.4-18-18.4c-13.9,0-20.8,9.3-20.8,20.1c0,11.3,5.8,18.4,21.4,18.4H742.8z
				 M714.5,475.3c0-6.2,3.5-10.8,9.5-10.8c5.3,0,8.5,3.4,8.5,11.3v10.6h-6.1C718.1,486.5,714.5,482.8,714.5,475.3z"/>
			<path class="st0" d="M730.7,451.2c3,0,5.3-2.5,5.3-5.4c0-3-2.3-5.4-5.3-5.4c-3,0-5.3,2.5-5.3,5.4
				C725.4,448.8,727.7,451.2,730.7,451.2z"/>
			<path class="st0" d="M717.4,451.2c3,0,5.3-2.5,5.3-5.4c0-3-2.3-5.4-5.3-5.4c-3,0-5.3,2.5-5.3,5.4
				C712.2,448.8,714.5,451.2,717.4,451.2z"/>
			<path class="st0" d="M765.1,495.1v-37.8h-10.5v38.4c0,8.6-3.2,11.2-8.5,11.2c-2.6,0-4.6-0.4-6.5-1l-0.9,8.4
				c2,0.5,4.2,0.8,6.7,0.8C761.6,515.1,765.1,505.3,765.1,495.1z"/>
			<rect x="777.8" y="438.5" class="st0" width="10.5" height="56.3"/>
			<path class="st0" d="M785.4,514.3c2,0.5,4.2,0.8,6.7,0.8c16.3,0,19.7-9.7,19.7-20v-37.8h-10.5v38.4c0,8.6-3.2,11.2-8.5,11.2
				c-2.6,0-4.6-0.4-6.5-1L785.4,514.3z"/>
			<path class="st0" d="M806.6,450.6c3,0,5.5-2.5,5.5-5.5c0-3-2.5-5.5-5.5-5.5s-5.5,2.5-5.5,5.5
				C801.1,448.2,803.5,450.6,806.6,450.6z"/>
			<path class="st0" d="M841.9,456.3c-14.7,0-21.2,9.6-21.2,20c0,11.3,5.8,18.5,21.4,18.5h6.2v1.2c0,7.5-5.5,10.6-13.8,10.6
				c-6.2,0-12.5-1.4-12.5-1.4l-0.6,8.6c0,0,6.1,1,12.1,1c17.9,0,25-8.9,25-20V459C858.6,459,851.3,456.3,841.9,456.3z M848.4,486.5
				h-5.1c-8.4,0-12-3.9-12-11.2c0-6.2,3.5-10.8,9.5-10.8c4.6,0,7.6,1.4,7.6,1.4V486.5z"/>
			<path class="st0" d="M403.1,525.1l-5.7,17c-0.8,2.4-1.4,4.3-1.9,6.8h-0.1c-0.4-2.3-1-4.6-1.8-6.9l-5.5-16.9h-7.4l-5.1,33h6.4
				l1.9-15.2c0.4-2.9,0.7-5.5,0.9-8.4h0.1c0.4,2.6,1.2,5.6,2.1,8.3l5,15.3h6.3l5.2-16.6c0.8-2.6,1.4-4.9,1.8-7h0.1
				c0.2,2.3,0.5,4.7,1,7.9l2.3,15.7h6.7l-5.1-33H403.1z"/>
			<path class="st0" d="M423.6,523.1c-2.2,0-3.9,1.7-3.9,3.8c0,2.1,1.7,3.8,3.9,3.8c2.2,0,3.9-1.7,3.9-3.8
				C427.5,524.7,425.8,523.1,423.6,523.1z"/>
			<rect x="420.5" y="533.8" class="st0" width="6.3" height="24.3"/>
			<path class="st0" d="M447.4,533.2c-4,0-6.8,2-8.3,4.9l0,0c0.2-1.3,0.3-3.2,0.3-4.3h-5.9v24.3h6.3v-11.7c0-4.2,2.5-7.9,5.7-7.9
				c2.3,0,3,1.5,3,4.1v15.5h6.2v-17C454.6,536.8,452.8,533.2,447.4,533.2z"/>
			<rect x="461.4" y="533.8" class="st0" width="6.3" height="24.3"/>
			<path class="st0" d="M464.5,523.1c-2.1,0-3.9,1.7-3.9,3.8c0,2.1,1.7,3.8,3.9,3.8c2.1,0,3.9-1.7,3.9-3.8
				C468.4,524.7,466.7,523.1,464.5,523.1z"/>
			<path class="st0" d="M479.5,540.5c0-1.5,1.2-2.5,3.6-2.5c1.5,0,3.1,0.2,4.5,0.6l0.2-4.9c-1.5-0.2-3-0.4-4.4-0.4
				c-6.8,0-10.3,3.5-10.3,7.8c0,8.3,9.8,5.8,9.8,10.1c0,1.6-1.6,2.6-4,2.6c-1.9,0-3.7-0.3-5.2-0.7l-0.1,5.1c1.6,0.2,3.3,0.4,5.1,0.4
				c6.6,0,10.8-3.2,10.8-8C489.4,542.7,479.5,544.4,479.5,540.5z"/>
			<path class="st0" d="M502.1,524.6l-6.3,1.7v7.5h-4.2v4.8h4.2v12.3c0,5.7,1.7,7.6,7,7.6c1.7,0,3.5-0.2,5.1-0.6v-5
				c-0.9,0.2-2,0.4-3,0.4c-2.1,0-2.9-0.9-2.9-4v-10.6h5.9v-4.8h-5.9V524.6z"/>
			<path class="st0" d="M518.6,538.7L518.6,538.7c0.2-1.7,0.3-3.7,0.3-4.9h-5.9v24.3h6.3v-9.9c0-6.7,2.2-9.7,6.7-8.7l0.3-6.2
				C522.1,532.9,519.8,535.6,518.6,538.7z"/>
			<path class="st0" d="M541.8,542c-0.8,2.3-1.8,5.5-2.3,7.7h0c-0.5-2.2-1.2-4.6-1.9-6.7l-3.3-9.3h-6.9l8.9,24.3l-0.8,2.3
				c-1.3,3.6-2.6,4.5-4.7,4.5c-1.2,0-2.2-0.2-3.3-0.5l-0.4,5.4c1,0.2,2.3,0.4,3.4,0.4c5.6,0,8.1-2.3,11-9.9l10-26.5h-6.7L541.8,542z
				"/>
			<path class="st0" d="M576.2,533.3c-7.4,0-12.4,5.5-12.4,13c0,8.6,4.4,12.2,11.3,12.2c7.3,0,12.4-5.5,12.4-13.1
				C587.5,537.1,583.1,533.3,576.2,533.3z M575.7,553.2c-3.6,0-5.4-2.5-5.4-7.5c0-5,2.7-7.1,5.5-7.1c3.7,0,5.3,2.5,5.3,7.2
				C581.1,550.7,578.7,553.2,575.7,553.2z"/>
			<path class="st0" d="M593.8,531.8v2h-4.2v4.8h4.2v19.4h6.2v-19.4h5.7v-4.8H600v-2.1c0-3.2,1.2-4.6,4-4.6c0.9,0,2.1,0.1,3,0.4
				l0.4-5.1c-1.3-0.3-2.6-0.4-4-0.4C596.9,522,593.8,525.2,593.8,531.8z"/>
			<rect x="620.5" y="525.1" class="st0" width="6.4" height="33"/>
			<path class="st0" d="M647.6,533.2c-4,0-6.8,2-8.3,4.9l0,0c0.2-1.3,0.3-3.2,0.3-4.3h-5.9v24.3h6.3v-11.7c0-4.2,2.5-7.9,5.7-7.9
				c2.3,0,3,1.5,3,4.1v15.5h6.2v-17C654.8,536.8,653,533.2,647.6,533.2z"/>
			<path class="st0" d="M672.2,544.9c-0.6,1.7-1.1,3.5-1.5,5.2h-0.1c-0.4-1.8-1-3.7-1.6-5.4l-3.9-10.9h-6.8l9,24.3h6.4l9.1-24.3
				h-6.6L672.2,544.9z"/>
			<path class="st0" d="M696,533.2c-7.3,0-11.4,5.5-11.4,12.9c0,8.5,4.3,12.4,12,12.4c3,0,6.1-0.5,8.7-1.6l-0.6-4.8
				c-2.1,1-4.7,1.5-7.1,1.5c-4.5,0-6.7-2.2-6.7-6.7h15c0.1-1,0.2-2,0.2-2.8C706.2,538.1,703,533.2,696,533.2z M691,542.7
				c0.3-2.9,2.2-4.8,4.7-4.8c2.6,0,4.3,1.8,4.2,4.8H691z"/>
			<path class="st0" d="M716.5,540.5c0-1.5,1.2-2.5,3.6-2.5c1.5,0,3.1,0.2,4.5,0.6l0.2-4.9c-1.5-0.2-3-0.4-4.4-0.4
				c-6.8,0-10.3,3.5-10.3,7.8c0,8.3,9.8,5.8,9.8,10.1c0,1.6-1.6,2.6-4,2.6c-1.9,0-3.7-0.3-5.2-0.7l-0.1,5.1c1.6,0.2,3.3,0.4,5.1,0.4
				c6.6,0,10.8-3.2,10.8-8C726.4,542.7,716.5,544.4,716.5,540.5z"/>
			<path class="st0" d="M739.1,524.6l-6.3,1.7v7.5h-4.2v4.8h4.2v12.3c0,5.7,1.7,7.6,7,7.6c1.7,0,3.5-0.2,5.1-0.6v-5
				c-0.9,0.2-2,0.4-3,0.4c-2.1,0-2.9-0.9-2.9-4v-10.6h5.9v-4.8h-5.9V524.6z"/>
			<path class="st0" d="M778.4,533.2c-4.1,0-6.8,2.5-7.9,4.9c-0.6-2.3-2.4-4.9-6.7-4.9c-3.6,0-6.5,1.9-8,4.9h-0.1
				c0.2-1.4,0.3-3.2,0.3-4.3h-5.9v24.3h6.3v-11.6c0-4.5,2.7-8,5.6-8c2.4,0,2.9,1.8,2.9,4.2v15.4h6.2v-11.6c0-4.7,2.8-8,5.6-8
				c2.3,0,2.9,1.6,2.9,4.2v15.4h6.3v-16.7C785.6,535.8,783,533.2,778.4,533.2z"/>
			<path class="st0" d="M802,533.2c-7.3,0-11.4,5.5-11.4,12.9c0,8.5,4.3,12.4,12,12.4c3,0,6.1-0.5,8.7-1.6l-0.6-4.8
				c-2.1,1-4.7,1.5-7.1,1.5c-4.5,0-6.7-2.2-6.7-6.7h15c0.1-1,0.2-2,0.2-2.8C812.2,538.1,809.1,533.2,802,533.2z M797.1,542.7
				c0.3-2.9,2.2-4.8,4.7-4.8c2.6,0,4.3,1.8,4.2,4.8H797.1z"/>
			<path class="st0" d="M831.3,533.2c-4,0-6.8,2-8.3,4.9l0,0c0.2-1.3,0.3-3.2,0.3-4.3h-5.9v24.3h6.3v-11.7c0-4.2,2.5-7.9,5.7-7.9
				c2.3,0,3,1.5,3,4.1v15.5h6.2v-17C838.6,536.8,836.8,533.2,831.3,533.2z"/>
			<path class="st0" d="M852.7,524.6l-6.3,1.7v7.5h-4.2v4.8h4.2v12.3c0,5.7,1.7,7.6,7,7.6c1.7,0,3.5-0.2,5.1-0.6v-5
				c-0.9,0.2-2,0.4-3,0.4c-2.1,0-2.9-0.9-2.9-4v-10.6h5.9v-4.8h-5.9V524.6z"/>
		</g>
		<g>
			<g>
				<path class="st0" d="M215.8,450c-16.3,6-13.7,21.4-13.7,21.4c0.7-2.3,5.8-12.4,15.5-14.8c-10.8,11.1-7.7,24.9-7.7,24.9
					c0.4-1.8,3.4-15.9,14.2-18.9c-6.7,8.8-4,20.1-3.3,22.5c0-4.4,4.4-12,7.1-15.4c2.7,5.7,2.4,16.5,2.4,16.5h-2l2,12.9h-1.6L230,512
					h-1.3l1.7,16.5l-5.8,3.1v0.8h16.2v-0.8l-5.8-3.1l1.7-16.5h-1.3l1.5-12.9h-1.6l2-12.9h-2c0,0-0.4-10.9,2.4-16.5
					c2.7,3.5,7.1,11.1,7.1,15.4c0.7-2.4,3.4-13.8-3.3-22.5c10.7,3,13.8,17.1,14.2,18.9c0,0,3.1-13.8-7.8-24.9
					c9.7,2.4,14.7,12.5,15.5,14.8c0,0,2.6-15.3-13.7-21.4c0.3,0,1-0.2,2.2-0.2c3.6,0,8.9,1.5,12.6,3.3c0,0-3.6-9.2-17.6-9.2
					c-0.6,0-1,0-1,0s0.5-3.5,6.9-3.5c2.1,0,3.9,0.3,3.9,0.3s-3.7-3.4-9.2-3.4c-6.4,0-10.5,5.1-11.2,5.8c-2.8-2,0.6-5.3,2-6.3
					c0,0-0.5-0.3-1.4-0.3c-1,0-2,0.6-2.3,1c0,0-0.3-2.7,2.1-3.8c-1.7,0-3.9,1.6-3.9,2.2c0-0.5-2.2-2.2-3.9-2.2
					c2.4,1.1,2.1,3.8,2.1,3.8c-0.3-0.4-1.3-1-2.3-1c-0.8,0-1.4,0.3-1.4,0.3c1.4,0.9,4.8,4.2,2,6.3c-0.7-0.7-4.8-5.8-11.2-5.8
					c-5.5,0-9.2,3.4-9.2,3.4s1.7-0.3,3.9-0.3c6.4,0,6.9,3.5,6.9,3.5s-0.5,0-1,0c-14,0-17.6,9.2-17.6,9.2c3.7-1.7,9.1-3.3,12.6-3.3
					C214.8,449.8,215.5,450,215.8,450 M280.3,521.8c-18.6,0-47.5,19.1-47.5,19.1l-0.1,0l0,0c0,0-29-19.1-47.5-19.1
					c-10,0-15.1,3.5-16.7,4.9c2.5-1.5,9.7-1.4,9.7-1.4c6.4,0,15.5,2.3,22.2,5.5c14.7,7,26.2,13.9,26.2,13.9l0.1,0.1l-14.3,9.1
					c0,0-4.9-5.8-9.2-5.8c-2.8,0-3.3,1.6-3.3,2.4c0,0.7,0.4,2.2,2.3,2.2c1.8,0,1.9-1.3,1.9-1.7c0.2,0.1,0.4,0.1,0.7,0.4
					c0.2,0.3,3.1,4.8,3.1,4.8s-9.1,5-9.7,5c-0.5,0-1.4-1.1-2.2-1.1c-0.9,0-0.9,0.8-0.9,0.9c0,0.5,2.2,4.3,5.4,4.3
					c0.5,0,2.1,0.1,3-0.2c3.5-1.3,7.4-3.3,8.2-3.7c0,0,3.1,3.9,5.3,3.9c0,0,0.8,0,1.1,0c1.1,0,2.3-0.3,2.3-0.3s1.7,1.2,2.9,1.2
					c1.3,0,2.7-0.7,2.7-2.2s-1-2.4-2.3-2.4c-1.3,0-2,1.1-2,1.6c-0.3,0-0.6,0-0.6,0l-4.4-4.7l16.2-10l16.2,10l-4.4,4.7
					c0,0-0.2,0-0.6,0c0-0.5-0.7-1.6-2-1.6c-1.3,0-2.3,1-2.3,2.4s1.4,2.2,2.7,2.2c1.3,0,2.9-1.2,2.9-1.2s1.2,0.3,2.3,0.3
					c0.3,0,1.1,0,1.1,0c2.2,0,5.3-3.9,5.3-3.9c0.9,0.5,4.8,2.4,8.2,3.7c0.9,0.3,2.5,0.2,3,0.2c3.2,0,5.4-3.8,5.4-4.3
					c0-0.1,0-0.9-0.9-0.9c-0.9,0-1.8,1.1-2.2,1.1c-0.6,0-9.7-5-9.7-5s2.8-4.5,3.1-4.8c0.2-0.3,0.4-0.3,0.7-0.4
					c0,0.4,0.1,1.7,1.9,1.7c1.8,0,2.3-1.5,2.3-2.2c0-0.7-0.5-2.4-3.3-2.4c-4.3,0-9.2,5.8-9.2,5.8l-14.3-9.1l0.1-0.1
					c0,0,11.5-6.9,26.2-13.9c6.6-3.2,15.7-5.5,22.2-5.5c0,0,7.1-0.1,9.7,1.4C295.4,525.3,290.4,521.8,280.3,521.8"/>
			</g>
			<g>
				<path class="st0" d="M324,602.1H141.4V397.9H324V602.1z M151.8,591.7h161.9V408.3H151.8V591.7z"/>
			</g>
		</g>
	</g>
</g>
<g id="Layer_2">
</g>
</svg>
