<?xml version="1.0" encoding="UTF-8"?>
<svg xmlns="http://www.w3.org/2000/svg" version="1.1" viewBox="0 0 1000 1000">
  <defs>
    <style>
      .cls-1 {
        fill: #007297;
      }

      .cls-2 {
        fill: #76777a;
      }
    </style>
  </defs>
  <!-- Generator: Adobe Illustrator 28.6.0, SVG Export Plug-In . SVG Version: 1.2.0 Build 709)  -->
  <g>
    <g id="Layer_1">
      <g>
        <path class="cls-2" d="M510.6,584.8c-3.1-2.2-7.2-3.3-12.3-3.3h-19.4c-2.2,0-3.8-.5-4.7-1.6-1-1.1-1.5-2.5-1.5-4.4v-2.4c0-2,.4-3.5,1.3-4.3s2.1-1.3,3.9-1.3h34.9v-12.5h-32.7c-3.2,0-6,.3-8.3.8-2.5.6-4.7,1.6-6.3,3.2-1.7,1.6-3,3.5-3.7,6-.7,2.4-1.1,5.2-1.1,8.7v2.7c0,6.1,1.7,10.3,5,12.8,3.2,2.3,7.5,3.5,13.1,3.5h19.1c1.8,0,3.2.4,4.2,1.3.9.8,1.3,2,1.3,3.7v4.8c0,3.7-1.6,5.2-5.5,5.2h-35.9v12.5h36.3c6.1,0,10.6-1.7,13.4-4.9,2.7-3.2,4-8,4-14.3v-3.9c-.2-5.8-1.8-9.9-5.1-12.2"/>
        <path class="cls-2" d="M635.8,554.9h-26.9v13.1h26.9c4.9,0,7.2,2.6,7.2,8.4v2.8h-21.3c-10.5,0-16,5.4-16,15.5v8.9c0,5.2,1.3,9.3,4,12.1,2.7,2.8,6.7,4.2,12.1,4.2h33.5v-44c-.1-13.8-6.8-21.1-19.4-21.1M642.9,590.8v16.8h-20.7c-3.5,0-4.9-1.5-4.9-5.2v-6.2c0-3.8,1.4-5.4,4.9-5.4h20.7Z"/>
        <polygon class="cls-2" points="670.7 565.2 679.2 565.2 682.4 541.5 667.5 541.5 670.7 565.2"/>
        <path class="cls-2" d="M724.1,554.6h-26.9v13.1h26.9c4.9,0,7.2,2.6,7.2,8.4v2.8h-21.3c-10.5,0-16,5.4-16,15.5v8.9c0,5.2,1.3,9.3,4,12.1,2.7,2.8,6.7,4.2,12.1,4.2h33.5v-44c0-13.7-6.8-21.1-19.4-21.1M731.2,590.5v16.8h-20.7c-3.5,0-4.9-1.5-4.9-5.2v-6.2c0-3.8,1.4-5.4,4.9-5.4h20.7Z"/>
        <path class="cls-2" d="M795.4,566.5v-11.6h-15.1v-20.5h-12.5v64.1c0,17.7,10,21.5,18.5,21.5h8.8v-12.3h-8.1c-3.2,0-6.8-1-6.8-8.9v-32.3h15.1Z"/>
        <path class="cls-2" d="M347.1,554.7h-15.2c-10.9,0-19.8,9.1-19.8,20.3v24.6c0,11.2,8.9,20.3,19.8,20.3h15.2c10.9,0,19.8-9.1,19.8-20.3v-24.6c0-11.2-8.9-20.3-19.8-20.3M354.8,575v24.6c0,4.3-3.4,7.8-7.6,7.8h-15.2c-4.2,0-7.6-3.5-7.6-7.8v-24.6c0-4.3,3.4-7.8,7.6-7.8h15.2c4.1,0,7.6,3.5,7.6,7.8"/>
        <path class="cls-2" d="M438,581.6c0-18.4-12.4-26.7-23.8-26.7h-26.7v65h12.2v-52.5h14.5c5.9,0,11.6,5.8,11.6,11.9v40.6h12.3v-38.1h0Z"/>
        <path class="cls-2" d="M295.6,581.7h0c0-16.5-10-25-20.2-26.5l-.2-.3h-12.9.1c-5.8.8-11.2,3.6-15.1,8.1-4.5-5.1-10.9-8.1-17.7-8.1h-26.6v65h12.2v-52.5h14.4c6.3,0,11.6,5.3,11.6,11.6v40.9h12.2v-40.9c0-6.4,5.2-11.6,11.6-11.6h6.9c5.9,0,11.6,5.8,11.6,11.9v40.6h12.3v-38.2h-.2Z"/>
        <path class="cls-2" d="M587.6,581.7h0c0-18.5-12.4-26.8-23.8-26.8h-14.5v-20.5h-12.2v85.5h12.2v-52.5h14.5c5.9,0,11.6,5.8,11.6,11.9v40.6h12.3v-38.2h0Z"/>
        <path class="cls-1" d="M688.7,398.6c0-9-18.9-17.9-18.9-17.9,0,0-19.2,18.5-18.5,19.1l21.3,17.8c0,0,16.2-10,16.2-19"/>
        <path class="cls-1" d="M579.1,399.8l21.3,17.8s16.2-10,16.2-19-18.8-17.8-18.8-17.8c0,0-19.3,18.5-18.6,19"/>
        <path class="cls-1" d="M568.7,398.6c0-9-18.9-17.9-18.9-17.9,0,0-19.2,18.5-18.5,19.1l21.3,17.8c0,0,16.2-10,16.2-19"/>
        <path class="cls-1" d="M587.6,362.4c0-9-18.9-17.9-18.9-17.9,0,0-19.2,18.5-18.5,19l21.3,17.9s16.2-10,16.2-19"/>
        <path class="cls-1" d="M795.4,434.4c-.2-5.2-3.4-24.2-29-24.2h-15.2l-38.3,40.3v34.7c0,1.8.2,3.6.6,5.2-11.2,0-24.5,0-31-11.1-2.7-4.5-3.5-9.8-3.5-14.9v-32.5l-20.2,20.6v32.7c0,1.8.1,3.5.4,5.2-11.2,0-24.4,0-30.9-11.1-2.7-4.5-3.5-9.8-3.5-14.9v-49.2l-20.2,20.7v49.3c0,1.8.1,3.5.4,5.2-5.2-.5-10.3-3-14.3-6.4-5.8-4.8-9.3-11.8-9.4-19.5v-39l-20.2,20.6v39c0,1.8.2,3.5.6,5.2-5.2-.4-10.4-3-14.5-6.4-5.8-4.8-9.3-11.8-9.4-19.5v-49.3l-20.1,20.6v49.3c0,1.8.2,3.5.6,5.2-11.2,0-24.5,0-31-11.1-2.7-4.5-3.5-9.8-3.5-14.9v-125.3l-20.2,20.6v126.6h0c.3,7.9,2.9,15.7,9.8,20.2,5.4,3.5,12,4.4,18.2,4.6,2.7,0,5.3,0,8,0s3-2.1,3.5-2.5c2.5-2.2,4.9-4.7,7.3-7.1,2.4-2.4,4.7-4.9,6.9-7.5.1-.1.7-1.1,1.3-1.9,1.4,4.9,4.3,9.3,8.4,12.7,4.4,3.6,10.2,6.4,16,6.4,1,0,3-2.1,3.5-2.5,2.5-2.2,4.9-4.7,7.3-7.1,2.4-2.4,4.7-4.9,6.9-7.5.1-.1.8-1.1,1.4-1.9,1.4,4.9,4.3,9.3,8.3,12.6,4.4,3.6,10.2,6.4,16,6.4,1,0,3-2.1,3.5-2.5,2.5-2.2,4.9-4.7,7.3-7.1,2.4-2.4,4.7-4.9,6.9-7.5.1-.1.6-.8,1.1-1.6,1.2,5.7,3.9,10.8,9,14.1,5.4,3.5,12,4.4,18.2,4.6,2.7,0,5.3,0,8,0s3-2.1,3.5-2.5c2.5-2.2,4.9-4.7,7.3-7.1,2.4-2.4,4.7-4.9,6.9-7.5.1-.1.6-.8,1.1-1.6h0c1.2,5.8,3.9,10.9,9,14.2,5.4,3.5,12,4.4,18.2,4.6,2.7,0,5.3,0,8,0s3-2.1,3.5-2.5c2.5-2.2,4.9-4.7,7.3-7.1,2.4-2.4,4.7-4.9,6.9-7.5.1-.1.7-1,1.3-1.8,4.2,14.2,21.4,19,35.2,19h4.7l41.7-42c0,0,0-34.1,0-34.6M751,488.4c-19,0-18-16.3-18.1-23.8v-34.1h29c10,0,13.3,15.2,13.3,33.1v24.8h-24.2"/>
        <path class="cls-1" d="M330.5,413.8l21.9,18.4s17-10.5,17-19.9-19.8-18.8-19.8-18.8c0,0-16.2,15.5-19.1,19.2-.3-9.4-19.8-18.5-19.8-18.5,0,0-20.2,19.4-19.5,19.9l22.3,18.8c0,0,15.9-9.8,16.9-19.1"/>
        <polygon class="cls-1" points="487.8 323.6 512.3 299.8 512.3 292.2 496.3 307.4 462 295.9 460.2 295.4 436.4 318.9 436.4 326.4 451.1 311.6 486.2 323.1 487.8 323.6"/>
        <path class="cls-1" d="M437.3,437.4c-1.4-2.5-4.7-7.4-4.7-7.4l-22.1,21.4s9.5,16.1,9.7,26.1c0,4.1,0-.1,0,4v8.1h-174.1c-15.6,0-21.9-4.4-21.9-25.6l10.6-11v-12.3l-31.8,32.7c0,.1,0,11.7,0,12,.2,5.5,1.4,11,4.6,15.6,2.7,3.8,6.6,6.4,10.9,7.9,7.2,2.6,14.7,2.2,22.2,2.1h169.2l32.4-29.2v-9.3c0-11.9,1.1-24.2-4.9-35.2"/>
        <path class="cls-2" d="M213,691.3h0c-.2,0-1.1-.3-2.7-.7-1.5-.4-2.5-.7-3.1-1-.6-.2-1-.5-1.1-.8-.2-.3-.3-.7-.3-1.3v-.4c0-.7.3-1.3,1-1.8s1.6-.8,2.9-.8,2.5.3,3.2.8c.7.5,1,1.3,1,2.4v.3h2.7v-.3c0-.8-.1-1.6-.4-2.1-.2-.7-.6-1.2-1-1.6-.4-.4-1-.8-1.6-1-.6-.3-1.3-.4-1.9-.6s-1.3-.1-2.1-.1c-1.9,0-3.5.4-4.7,1.3-1.3.9-1.8,2.1-1.8,3.6v.2c0,1.3.3,2.4.8,3.2s1.6,1.5,3,1.9c.2,0,1,.3,2.7.7,1.5.4,2.5.7,3.1,1,.6.2,1,.5,1.1.9s.3.8.3,1.3v.6c0,.7-.3,1.3-1,1.8-.6.5-1.6.8-2.9.8s-2.5-.3-3.2-.8c-.7-.5-1-1.3-1-2.4v-.8h-2.7v.8c0,.8.1,1.6.4,2.1.2.7.6,1.2,1,1.6.4.4,1,.8,1.6,1,.6.3,1.2.4,1.9.6.7,0,1.3.1,2.1.1,1.9,0,3.5-.4,4.7-1.3,1.3-.9,1.8-2.1,1.8-3.6v-.4c0-1.3-.3-2.4-.8-3.2-.7-.9-1.6-1.5-3-1.9"/>
        <path class="cls-2" d="M249.8,686.9c-.6.1-1.2.4-1.8.7-.6.3-1,.7-1.5,1.2-.4.5-.7,1.1-1,1.9-.2.7-.4,1.6-.4,2.6v1.6c0,1,.1,1.8.4,2.6s.6,1.4,1,1.9c.4.4.9.9,1.5,1.2.6.3,1.1.5,1.8.7.6.1,1.2.2,1.9.2h6.1v-14.8h-6.1c-.7,0-1.3,0-1.8.2M247.8,693.8c0-1.7.3-3,1-3.7.6-.7,1.6-1.1,3-1.1h3.5v10h-3.5c-1.3,0-2.3-.4-3-1-.6-.7-1-2-1-3.7v-.4h0Z"/>
        <rect class="cls-2" x="262.5" y="681.2" width="2.6" height="20.2"/>
        <rect class="cls-2" x="269.8" y="681.2" width="2.6" height="20.2"/>
        <path class="cls-2" d="M283.1,689.4c-.6-.5-.8-1.1-.8-2v-.4c0-.7.3-1.3.9-1.8.6-.4,1.5-.7,2.7-.7s2.1.2,2.7.7c.6.4.9,1,.9,1.8v1.1h2.6v-1.1c0-.4,0-.7,0-1s-.2-.8-.5-1.3c-.2-.4-.6-.9-1-1.3-.4-.4-1-.7-1.8-.9-.7-.2-1.6-.4-2.7-.4s-1.9.1-2.7.4-1.4.6-1.8,1c-.4.4-.7.8-1,1.3-.3.5-.4.9-.5,1.3,0,.4,0,.7,0,1v.5c0,.3,0,.6,0,1,0,.3.1.7.3,1s.4.8.7,1.2c.2.3.4.5.7.7-1.3.9-1.8,2.2-1.8,4v.9c0,.5,0,1,.1,1.5.1.4.4,1,.7,1.4.3.4.7.8,1.2,1.2.4.3,1.1.6,1.8.8s1.6.3,2.4.3h6v-8.9h2.1v-2.4h-8.3c-1.2-.1-2.1-.4-2.7-.8M286,699c-1.2,0-2.1-.3-2.7-.8-.6-.5-.9-1.2-.9-2.1v-.8c0-.8.2-1.5.8-2.1.5-.5,1.3-.8,2.1-.8h4.1v6.5h-3.5Z"/>
        <polygon class="cls-2" points="310.8 697.4 305.4 682.6 305.4 682.4 301.4 682.4 301.4 701.4 304.1 701.4 304.1 686.5 309.4 701.3 309.5 701.4 312 701.4 317.6 686.4 317.6 701.4 320.3 701.4 320.3 682.4 316.2 682.4 310.8 697.4"/>
        <path class="cls-2" d="M335.9,688.4h0c-.4-.5-.9-.9-1.5-1.2-.5-.3-1.1-.5-1.8-.7-1.2-.2-2.7-.2-3.8,0-.6.1-1.2.4-1.8.7s-1,.7-1.5,1.2c-.4.5-.7,1.1-1,1.9-.2.7-.4,1.6-.4,2.6v2.2c0,1,.1,1.8.4,2.6s.6,1.4,1,1.9c.4.4.9.9,1.5,1.2.6.3,1.1.5,1.8.7.6.1,1.2.1,1.9.1s1.4,0,2.1-.2,1.3-.4,1.8-.8,1.1-.9,1.6-1.6c.4-.7.7-1.5.8-2.4v-.3c0,0-2.6,0-2.6,0v.2c-.3,1-.7,1.6-1.3,2-.6.4-1.4.7-2.4.7s-2.3-.4-2.9-1-.9-1.8-1-3.3h10.3v-2.1c0-1-.1-1.8-.4-2.6-.2-.7-.5-1.3-1-1.8M334.7,692.6h-7.8c0-1.3.4-2.3,1-2.9.6-.7,1.6-1,2.8-1s2.2.3,2.9,1c.5.6.9,1.6,1,2.9"/>
        <path class="cls-2" d="M350.9,686.6h-3.5c-.7,0-1.3,0-1.9.2-.6.1-1.2.4-1.8.7s-1,.7-1.5,1.3c-.4.5-.7,1.1-1,1.9-.2.7-.4,1.6-.4,2.6v1.6c0,1,.1,1.8.4,2.6s.6,1.4,1,1.9c.4.4.9.9,1.5,1.2.6.3,1.1.5,1.8.7.6.1,1.2.2,1.9.2h6.1v-20.2h-2.5v5.5h0ZM343.6,693.8c0-1.7.3-3,1-3.7.6-.7,1.6-1.1,3-1.1h3.5v10h-3.5c-1.3,0-2.3-.4-3-1-.6-.7-1-2-1-3.7v-.4Z"/>
        <rect class="cls-2" x="358.2" y="686.6" width="2.6" height="14.8"/>
        <path class="cls-2" d="M375.5,694.6c0,1.8-.3,3-.8,3.7s-1.6,1-2.9,1-2.4-.4-2.9-1c-.5-.7-.8-1.9-.8-3.7v-7.9h-2.6v8.5c0,1,0,1.8.3,2.6s.5,1.4.9,1.9c.4.5.8.9,1.4,1.3.5.3,1.1.5,1.7.7s1.3.1,1.9.1,1.3,0,1.9-.1c.6-.1,1.2-.4,1.7-.7.5-.3,1-.7,1.4-1.3s.7-1.1.9-1.9c.2-.7.3-1.6.3-2.6v-8.5h-2.5v7.9h0Z"/>
        <polygon class="cls-2" points="414 701.4 425 701.4 425 699 416.8 699 416.8 693 424.5 693 424.5 690.6 416.8 690.6 416.8 684.8 425 684.8 425 682.4 414 682.4 414 701.4"/>
        <path class="cls-2" d="M466.8,688.4h0c-.4-.5-.9-.9-1.5-1.2-.6-.3-1.2-.5-1.8-.7-1.2-.2-2.7-.2-3.8,0-.6.1-1.2.4-1.8.7s-1,.7-1.5,1.2c-.4.5-.7,1.1-1,1.9-.2.7-.4,1.6-.4,2.6v2.2c0,1,.1,1.8.4,2.6s.6,1.4,1,1.9c.4.4.9.9,1.5,1.2.6.3,1.1.5,1.8.7.6.1,1.2.1,1.9.1s1.4,0,2.1-.2,1.3-.4,1.8-.8,1.1-.9,1.5-1.6c.4-.7.7-1.5.9-2.4v-.3c0,0-2.6,0-2.6,0v.2c-.3,1-.7,1.6-1.3,2-.6.4-1.4.7-2.4.7s-2.3-.4-2.9-1-.9-1.8-1-3.3h10.3v-2.1c0-1-.1-1.8-.4-2.6-.2-.7-.5-1.3-1-1.8M465.6,692.6h-7.7c0-1.3.4-2.3,1-2.9.6-.7,1.6-1,2.8-1s2.2.3,2.9,1c.4.6.8,1.6,1,2.9"/>
        <path class="cls-2" d="M493.8,688.8c-.4-.5-.9-.9-1.5-1.2-.5-.3-1.1-.5-1.8-.7-.6-.1-1.2-.2-1.9-.2h-6.1v20.2h2.6v-5.5h3.5c.7,0,1.3,0,1.9-.2.6-.1,1.2-.4,1.8-.7s1-.7,1.5-1.2c.4-.5.7-1.1,1-1.9.2-.7.4-1.6.4-2.6v-1.6c0-1-.1-1.8-.4-2.6-.2-.8-.5-1.5-1-1.9M492.6,693.8v.4c0,1.7-.3,3-1,3.7-.6.7-1.6,1.1-3,1.1h-3.5v-10h3.5c1.3,0,2.4.4,3,1.1.6.7,1,1.9,1,3.6"/>
        <rect class="cls-2" x="509.7" y="686.6" width="2.6" height="14.8"/>
        <path class="cls-2" d="M525.3,693.3c-.3,0-1.1-.3-2.3-.6-1.3-.3-2.1-.5-2.6-.7-.7-.2-1-.4-1-.6-.1-.1-.2-.5-.2-.9h0c0-.5.2-1,.7-1.3.5-.4,1.4-.5,2.5-.5,3.3,0,3.3,1.5,3.3,2v.3h2.6v-.3c0-.7-.1-1.5-.5-2.1-.3-.6-.7-1-1.3-1.4-.6-.3-1.2-.6-1.8-.7s-1.4-.2-2.2-.2c-1.6,0-3,.4-4.1,1-1.1.7-1.7,1.7-1.7,3h0c0,1.2.2,2.1.7,2.7.4.6,1.3,1.1,2.3,1.4.2,0,1,.3,2.3.6,1.3.3,2.1.5,2.6.7.7.2,1,.4,1.1.6s.2.5.2.9v.3c0,.5,0,2-3.1,2s-3.3-1.6-3.3-2v-1.2h-2.6v1.2c0,.7.1,1.5.4,2.1.3.6.8,1,1.3,1.4.5.3,1.2.6,1.8.7s1.4.2,2.2.2,1.5,0,2.1-.2,1.3-.4,1.8-.7c.5-.3,1-.8,1.3-1.4.3-.6.4-1.3.4-2.1v-.2c0-1-.2-1.9-.7-2.5-.6-.6-1.3-1-2.4-1.4"/>
        <path class="cls-2" d="M543.5,688.4c-.4-.5-.9-.9-1.5-1.2-.6-.3-1.1-.5-1.8-.7-1.2-.2-2.7-.2-3.8,0-.6.1-1.2.4-1.7.7-.6.3-1,.7-1.5,1.2-.4.5-.7,1.1-1,1.9-.2.7-.4,1.6-.4,2.6v2.2c0,1,.1,1.8.4,2.6s.6,1.4,1,1.9c.4.4.9.9,1.5,1.2.6.3,1.1.5,1.8.7.6.1,1.3.1,1.9.1s1.4,0,2.1-.2c.7-.1,1.3-.4,1.8-.8s1.1-.9,1.5-1.6c.4-.7.7-1.5.9-2.4v-.3c0,0-2.6,0-2.6,0v.2c-.3,1-.7,1.6-1.3,2-.6.4-1.4.7-2.4.7s-2.3-.4-3-1c-.6-.7-.9-1.8-1-3.3h10.3v-2.1c0-1-.1-1.8-.4-2.6-.1-.7-.4-1.3-.9-1.8M542.2,692.6h-7.7c0-1.3.4-2.3,1-2.9.6-.7,1.6-1,2.8-1s2.2.3,2.8,1c.6.6,1,1.6,1,2.9"/>
        <path class="cls-2" d="M557.3,693.3c-.3,0-1.2-.3-2.3-.6-1.3-.3-2.1-.5-2.6-.7-.7-.2-1-.4-1-.5-.1-.2-.2-.5-.2-1h0c0-.5.2-1,.7-1.3.5-.4,1.4-.5,2.5-.5,3.3,0,3.3,1.5,3.3,2v.3h2.6v-.3c0-.7-.1-1.5-.4-2.1-.3-.6-.7-1-1.3-1.4-.6-.3-1.2-.6-1.8-.7s-1.4-.2-2.2-.2c-1.7,0-3.1.4-4.1,1-1.1.7-1.7,1.7-1.7,3h0c0,1.2.2,2.1.7,2.7.4.6,1.3,1.1,2.3,1.4.3,0,1,.3,2.3.6,1.3.3,2.1.5,2.6.7.7.2,1,.4,1.1.6s.2.5.2.9v.3c0,.5,0,2-3.1,2s-3.3-1.6-3.3-2v-1.2h-2.6v1.2c0,.7.1,1.5.5,2.1.3.6.7,1,1.3,1.4.6.3,1.2.6,1.8.7s1.4.2,2.2.2,1.5,0,2.1-.2,1.3-.4,1.8-.7c.5-.3,1-.8,1.3-1.4.3-.6.4-1.3.4-2.1v-.2c0-1-.2-1.9-.7-2.5-.6-.6-1.4-1-2.4-1.4"/>
        <path class="cls-2" d="M574.3,685.6c.7-.7,1.8-1.1,3.2-1.1s2.4.3,3,1,1.1,1.7,1.2,3.1v.2h2.7v-.3c0-1-.1-1.8-.4-2.5-.3-.7-.6-1.4-1-1.8-.4-.5-1-.9-1.6-1.2-.6-.3-1.3-.5-1.8-.7-1.3-.3-2.9-.2-4.1,0-.7.1-1.3.4-1.9.7-.6.3-1.1.7-1.6,1.3-.4.4-.8,1.1-1,1.9-.2.7-.4,1.6-.4,2.6v6.5c0,1,.1,1.8.4,2.6.3.7.6,1.4,1,1.9.4.5,1,.9,1.6,1.3.6.3,1.3.5,1.9.7.7.1,1.3.2,2.1.2,1.6,0,3-.1,4.1-.5s2.1-.9,2.9-1.7h0v-8.4h-6.1v2.4h3.4v4.8c-.5.3-1,.5-1.6.7-.6.1-1.6.2-2.7.2s-2.5-.4-3.2-1.1c-.7-.7-1-2-1-3.8v-5.2c0-1.6.3-2.8,1-3.6"/>
        <path class="cls-2" d="M599.9,688.4h0c-.4-.5-.9-.9-1.5-1.2-.6-.3-1.2-.5-1.8-.7s-1.2-.2-1.9-.2-1.3,0-1.9.2-1.2.4-1.8.7c-.6.3-1,.7-1.5,1.2-.4.5-.7,1.1-1,1.9-.2.7-.4,1.6-.4,2.6v2.2c0,1,.1,1.8.4,2.6s.6,1.4,1,1.9c.4.4.9.9,1.5,1.2.6.3,1.2.5,1.8.7.6.1,1.2.1,1.9.1s1.4,0,2.1-.2c.7-.1,1.3-.4,1.8-.8s1.1-.9,1.5-1.6c.4-.7.7-1.5.9-2.4v-.3c0,0-2.6,0-2.6,0v.2c-.3,1-.7,1.6-1.3,2-.6.4-1.4.7-2.4.7s-2.3-.4-2.9-1c-.6-.7-.9-1.8-1-3.3h10.3v-2.1c0-1-.1-1.8-.4-2.6-.1-.7-.4-1.3-.9-1.8M598.6,692.6h-7.7c0-1.3.4-2.3,1-2.9.6-.7,1.6-1,2.8-1s2.2.3,2.9,1c.5.6.9,1.6,1,2.9"/>
        <path class="cls-2" d="M616.3,688.1c-.5-.5-1.2-.9-2.1-1.1-.8-.2-1.8-.4-3.2-.4h-5.5v14.8h2.6v-12.3h3.3c.8,0,1.5,0,2,.2s.9.3,1.1.6c.3.3.4.6.6,1,0,.4.1,1,.1,1.6v9h2.6v-8.7c0-1,0-2-.3-2.7-.3-.7-.7-1.3-1.2-1.8"/>
        <path class="cls-2" d="M633.3,688.4h0c-.4-.5-.9-.9-1.5-1.2-.6-.3-1.2-.5-1.8-.7-1.2-.2-2.7-.2-3.8,0-.6.1-1.2.4-1.8.7-.6.3-1,.7-1.5,1.2-.4.5-.7,1.1-1,1.9-.2.7-.4,1.6-.4,2.6v2.2c0,1,.1,1.8.4,2.6s.6,1.4,1,1.9c.4.4.9.9,1.5,1.2.6.3,1.1.5,1.8.7.6.1,1.2.1,1.9.1s1.4,0,2.1-.2c.7-.1,1.3-.4,1.8-.8s1.1-.9,1.5-1.6c.4-.7.7-1.5.9-2.4v-.3c0,0-2.6,0-2.6,0v.2c-.3,1-.7,1.6-1.3,2-.6.4-1.4.7-2.4.7s-2.3-.4-2.9-1c-.6-.7-.9-1.8-1-3.3h10.3v-2.1c0-1-.1-1.8-.4-2.6-.2-.7-.6-1.3-1-1.8M632,692.6h-7.7c0-1.3.4-2.3,1-2.9.6-.7,1.6-1,2.8-1s2.2.3,2.9,1c.5.6.9,1.6,1,2.9"/>
        <polygon class="cls-2" points="638.8 701.4 641.4 701.4 641.4 689.1 645.5 689.1 645.5 686.6 638.8 686.6 638.8 701.4"/>
        <path class="cls-2" d="M652.2,686.9c-.6.1-1.2.4-1.8.7-.6.3-1,.7-1.5,1.2-.4.5-.7,1.1-1,1.9-.2.7-.4,1.6-.4,2.6v1.6c0,1,.1,1.8.4,2.6s.6,1.4,1,1.9c.4.4.9.9,1.5,1.2.6.3,1.1.5,1.8.7.6.1,1.3.2,1.9.2h6.1v-14.8h-6.1c-.7,0-1.3,0-1.9.2M650.2,693.8c0-1.7.3-3,1-3.7.6-.7,1.6-1.1,3-1.1h3.5v10h-3.5c-1.3,0-2.3-.4-3-1-.6-.7-1-2-1-3.7v-.4Z"/>
        <rect class="cls-2" x="664.9" y="681.2" width="2.6" height="20.2"/>
        <path class="cls-2" d="M684.7,682.4h-3.3l-6,18.6v.4c-.1,0,2.7,0,2.7,0l1.3-4h7.2l1.3,4h2.9l-6.1-18.8h0ZM685.8,695.1h-5.7l2.8-8.9,2.9,8.9Z"/>
        <path class="cls-2" d="M703.7,694.6c0,1.8-.3,3-.8,3.7-.5.7-1.6,1-2.9,1s-2.4-.4-2.9-1-.8-1.9-.8-3.7v-7.9h-2.6v8.5c0,1,0,1.8.3,2.6.2.7.5,1.4.9,1.9.4.5.8.9,1.4,1.3.5.3,1.1.5,1.7.7s1.3.1,1.9.1,1.3,0,1.9-.1c.6-.1,1.2-.4,1.7-.7s1-.7,1.4-1.3.7-1.1.9-1.9c.2-.7.3-1.6.3-2.6v-8.5h-2.4v7.9Z"/>
        <path class="cls-2" d="M731.8,688.1c-.5-.5-1.2-.9-2.1-1.1-.8-.2-1.9-.3-3.2-.3h-3v-5.5h-2.6v20.2h2.6v-12.3h3.3c.8,0,1.5,0,2,.2s.9.3,1.1.6c.3.3.4.6.6,1,.1.4.1.9.1,1.6v9h2.6v-8.9c0-1.1,0-2-.3-2.7-.3-.7-.7-1.3-1.2-1.8"/>
        <path class="cls-2" d="M748.8,688.4h0c-.4-.5-.9-.9-1.5-1.2-.6-.3-1.2-.5-1.8-.7-1.2-.2-2.7-.2-3.8,0-.6.1-1.2.4-1.8.7-.6.3-1,.7-1.5,1.2-.4.5-.7,1.1-1,1.9-.2.7-.4,1.6-.4,2.6v2.3c0,1,.1,1.8.4,2.6s.6,1.4,1,1.9c.4.4.9.9,1.5,1.3.6.3,1.1.5,1.8.7.6.1,1.3.1,1.9.1s1.3,0,1.9-.1c.6-.1,1.2-.4,1.8-.7.6-.3,1-.7,1.5-1.3s.7-1.1,1-1.9c.2-.7.4-1.6.4-2.6v-2.3c0-1-.1-1.8-.4-2.6s-.7-1.4-1-1.9M747.6,693.5v1.1c0,1.7-.3,3-1,3.7-.6.7-1.6,1.1-3,1.1s-2.3-.4-3-1.1c-.6-.7-1-1.9-1-3.7v-1.1c0-1.7.3-3,1-3.7.6-.7,1.6-1,3-1s2.4.4,3,1c.7.7,1,1.9,1,3.7"/>
        <rect class="cls-2" x="764.7" y="686.6" width="2.6" height="14.8"/>
        <polygon class="cls-2" points="776.1 682.4 773.5 682.4 773.5 686.6 771.1 686.6 771.1 689.1 773.5 689.1 773.5 701.4 776.1 701.4 776.1 689.1 778.5 689.1 778.5 686.6 776.1 686.6 776.1 682.4"/>
        <path class="cls-2" d="M792.7,686.6l-4.5,11.9-4.4-11.7h0c0-.1-2.7-.1-2.7-.1l5.3,14c.1.4.4.7.8.9l-2.1,5.3h2.7l7.7-20.2h-2.8Z"/>
        <polygon class="cls-2" points="754.4 701.4 756.9 701.4 756.9 689.1 761.1 689.1 761.1 686.6 754.4 686.6 754.4 701.4"/>
        <polygon class="cls-2" points="499.4 701.4 501.9 701.4 501.9 689.1 506.1 689.1 506.1 686.6 499.4 686.6 499.4 701.4"/>
        <polygon class="cls-2" points="472.4 701.4 475 701.4 475 689.1 479 689.1 479 686.6 472.4 686.6 472.4 701.4"/>
        <polygon class="cls-2" points="714.7 682.4 712.1 682.4 712.1 686.6 709.7 686.6 709.7 689.1 712.1 689.1 712.1 701.4 714.7 701.4 714.7 689.1 717.1 689.1 717.1 686.6 714.7 686.6 714.7 682.4"/>
        <polygon class="cls-2" points="450.4 682.4 447.8 682.4 447.8 686.6 445.4 686.6 445.4 689.1 447.8 689.1 447.8 701.4 450.4 701.4 450.4 689.1 452.8 689.1 452.8 686.6 450.4 686.6 450.4 682.4"/>
        <path class="cls-2" d="M440,688.1c-.5-.5-1.2-.9-2.1-1.1-.8-.2-1.8-.4-3.2-.4h-5.5v14.8h2.6v-12.3h3.3c.8,0,1.5,0,2,.2s.9.3,1.1.6c.3.3.4.6.6,1,.1.4.1,1,.1,1.6v9h2.6v-8.7c0-1,0-2-.3-2.7-.3-.7-.7-1.3-1.2-1.8"/>
        <path class="cls-2" d="M512.3,683c0-.2-.3-.4-.5-.5-.4-.2-1.2-.2-1.6,0-.2.1-.4.3-.5.4,0,.1-.1.3-.1.4s0,.3,0,.4,0,.2,0,.4c0,.1,0,.3.1.4,0,.2.3.4.5.4h0c.2,0,.5.1.8.1s.6,0,.8-.1c.2,0,.4-.3.5-.4,0-.1.1-.3.1-.4v-.7c0-.1,0-.3-.1-.4"/>
        <path class="cls-2" d="M360.9,683c0-.2-.3-.4-.5-.4-.4-.2-1.2-.2-1.6,0-.2.1-.4.3-.5.4,0,.1-.1.3-.1.4s0,.2,0,.4v.4c0,.1,0,.2.1.4s.3.4.5.4c.2,0,.5.1.8.1s.6,0,.8-.1c.2,0,.4-.3.5-.4,0-.1.1-.3.1-.4v-.7c0-.2,0-.4,0-.5"/>
        <path class="cls-2" d="M767.3,683c0-.2-.3-.4-.5-.5-.4-.2-1.2-.2-1.6,0-.2.1-.4.3-.5.4,0,.1-.1.3-.1.4s0,.3,0,.4,0,.2,0,.4c0,.1,0,.3.1.4,0,.2.3.4.5.4s.5.1.8.1.6,0,.8-.1c.2,0,.4-.3.5-.4,0-.1.1-.3.1-.4v-.7c0-.1,0-.3-.1-.4"/>
        <path class="cls-2" d="M401.4,688.2c-.4-.5-1.2-.9-2-1.2-.8-.2-1.8-.4-3-.4h-13.7v14.8h2.6v-12.3h6v12.3h2.6v-12.3h2.6c.8,0,1.5,0,2,.2.4.1.9.3,1.1.6.3.3.4.6.6,1,0,.4.1.9.1,1.6v9h2.6v-8.7c0-1,0-1.9-.3-2.7-.3-.7-.6-1.3-1.1-1.8"/>
        <path class="cls-2" d="M239.9,688.2c-.4-.5-1.1-.9-2-1.2-.8-.2-1.8-.4-3-.4h-13.7v14.8h2.6v-12.3h6v12.3h2.6v-12.3h2.5c.8,0,1.5,0,2,.2s.9.3,1.1.6c.3.3.4.6.6,1,0,.4.1,1,.1,1.6v9h2.6v-8.7c0-1,0-1.9-.3-2.7-.2-.7-.5-1.3-1-1.8"/>
        <rect class="cls-2" x="792.8" y="643.1" width="2.7" height="26.1"/>
        <path class="cls-2" d="M784.3,643.1v23.4h-6.3v-5.8c0-1.7-.1-3-.4-4.1-.3-1.1-.7-2-1.4-2.6-.7-.7-1.4-1.1-2.4-1.4-.9-.3-2.1-.4-3.5-.4h-4.4v2.7h4.6c.9,0,1.6,0,2.1.2.6.1,1,.4,1.5.8.4.4.7,1,.9,1.7s.3,1.6.3,2.7v6.1h-2.7v-3.8c0-.8,0-1.6-.3-2.3-.2-.7-.5-1.2-.8-1.6s-.7-.7-1.3-1-1-.4-1.5-.6c-.5,0-1-.1-1.6-.1s-1.1,0-1.6.1c-.5.1-1,.3-1.5.6-.4.3-.9.6-1.3,1-.4.4-.6,1-.8,1.6s-.3,1.4-.3,2.3h0c0,1,0,2.4.3,3,0,.3.2.5.4.7h-8.1v-13.7h-2.7v13.7h-9.8v-13.7h-2.7v13.7h-9.2v-8c0-.8,0-1.6-.3-2.3-.2-.7-.4-1.2-.8-1.6-.4-.4-.7-.7-1.3-1s-1-.4-1.5-.6-1-.1-1.6-.1h-2.4c-.5,0-1,0-1.6.1-.5,0-1,.3-1.5.6-.5.3-.9.6-1.3,1-.4.4-.6,1-.8,1.6s-.3,1.4-.3,2.3v5c0,.8,0,1.6.3,2.3.2.7.5,1.2.8,1.6.4.4.7.7,1.3,1,.4.3,1,.4,1.5.6s1,.1,1.6.1h64.9v-26.1h-2.8ZM727.2,666.5h-5.1c-1,0-1.7-.3-2.2-.8-.4-.5-.7-1.4-.7-2.7v-4c0-1.3.2-2.1.7-2.7.4-.5,1.1-.8,2.1-.8h2.4c1,0,1.7.3,2.2.8.4.5.7,1.4.7,2.7v7.5ZM770.1,666.5h-2.9c-1,0-1.7-.3-2.2-.8-.7-.7-.7-1.8-.7-1.8v-1c0-1,.3-1.8.7-2.3.4-.5,1.2-.8,2.2-.8s1.7.3,2.2.8c.4.5.7,1.4.7,2.7v3.3Z"/>
        <path class="cls-2" d="M743.1,650.3h.3v-1.9h-2.2c-.4-.2-.7-.7-.6-1.1.1-.6.9-1,1.9-1h1.1v-1.8h-1.3c-2.4,0-3.5.9-3.6,2.7,0,.4,0,.8.2,1.3h-1.6v1.8h5.8Z"/>
        <path class="cls-2" d="M754.6,675.2c.2.1.5.1.9.1s.7,0,.9-.1c.2-.1.4-.3.5-.4,0-.2.1-.4.2-.5,0-.1,0-.3,0-.4s0-.3,0-.4c0-.1,0-.3-.2-.5,0-.1-.3-.4-.5-.4s-.5-.1-.9-.1-.7,0-.9.1c-.2.1-.4.3-.5.4,0,.2-.1.4-.2.5,0,.1,0,.3,0,.4s0,.3,0,.4c0,.1,0,.3.2.5.1.1.3.3.5.4"/>
        <path class="cls-2" d="M751.2,675.2c.2-.1.4-.3.5-.4,0-.2.1-.4.2-.5,0-.1,0-.3,0-.4s0-.3,0-.4c0-.1,0-.3-.2-.5,0-.1-.3-.4-.5-.4s-.5-.1-.9-.1-.7,0-.9.1c-.2.1-.4.3-.5.4,0,.2-.1.4-.2.5,0,.1,0,.3,0,.4s0,.3,0,.4c0,.1,0,.3.2.5,0,.2.3.4.5.4.2.1.5.1.9.1s.7,0,.9-.1"/>
        <path class="cls-2" d="M724.4,649.4c0,.2.3.4.5.4s.5.1.9.1.7,0,.9-.1c.2-.1.4-.3.5-.4,0-.2.1-.4.2-.5,0-.1,0-.3,0-.4s0-.3,0-.4c0-.1,0-.3-.2-.5,0-.2-.3-.4-.5-.4s-.5-.1-.9-.1-.7,0-.9.1c-.2.1-.4.3-.5.4,0,.2-.1.4-.2.5,0,.1,0,.3,0,.4s0,.3,0,.4c0,.1,0,.3.2.5"/>
        <path class="cls-2" d="M719.2,649.4c0,.2.3.4.5.4s.6.1.9.1.7,0,.9-.1c.2-.1.4-.3.5-.4,0-.2.1-.4.2-.5,0-.1,0-.3,0-.4s0-.3,0-.4c0-.1,0-.3-.2-.5,0-.2-.3-.4-.5-.4s-.5-.1-.9-.1-.7,0-.9.1c-.2.1-.4.3-.5.4,0,.2-.1.4-.2.5,0,.1,0,.3,0,.4s0,.3,0,.4c0,.1,0,.3.2.5"/>
        <path class="cls-2" d="M604.9,643.1v23.4h-7v-23.4h-2.7v23.4h-5.5v-8c0-.8,0-1.6-.3-2.3-.2-.7-.4-1.2-.8-1.6s-.7-.7-1.3-1-1-.4-1.5-.6-1-.1-1.6-.1h-2.4c-.5,0-1,0-1.6.1-.5,0-1,.3-1.5.6-.5.3-.9.6-1.3,1-.4.4-.6,1-.8,1.6-.2.6-.3,1.3-.3,2.1h0v1.8c0,2.2-.4,3.8-1.2,4.8-.8,1-2.1,1.6-4.1,1.6h-3.2v-13.7h-2.7v13.7h-11.4v-13.7h-2.7v13.7h-2.5c-1.9,0-3.3-.5-4.1-1.6-.8-1-1.2-2.7-1.2-5.2v-5.5h-2.7v5.5c0,2.4-.4,4.1-1.2,5.2s-2.2,1.6-4.1,1.6h-2.5v-12.3h-2.7v12.3h-12.3v-23.4h-2.7v26.1h20.1c.9,0,1.7,0,2.5-.2.7-.1,1.5-.4,2.1-.9.7-.4,1.3-1,1.8-1.6,0-.1.1-.3.2-.4,0,.1.1.3.2.4.4.6,1,1.1,1.8,1.6.7.4,1.4.7,2.2.9.7.1,1.4.2,2.2.2h22.7c.9,0,1.7,0,2.5-.2.7-.1,1.5-.4,2.1-.9.6-.4,1-.8,1.5-1.3,0,.2.1.4.3.6.4.4.7.7,1.3,1,.4.3,1,.4,1.5.6s1,.1,1.6.1h25.7v-26.1h-2.7ZM587,666.5h-5.1c-1,0-1.7-.3-2.2-.8-.4-.5-.7-1.4-.7-2.7v-4c0-1.3.2-2.1.7-2.7.4-.5,1.1-.8,2.1-.8h2.4c1,0,1.7.3,2.2.8.4.5.7,1.4.7,2.7v7.5Z"/>
        <path class="cls-2" d="M511.8,639.4l2.6-2c.8.8,1.7,1.2,2.7,1.2s2.1-.4,3.1-1.3v2.1c-.8.7-1.9,1.1-3.2,1.1s-2-.3-2.7-1l-1.6,1.1-1-1.3Z"/>
        <path class="cls-2" d="M507.4,666.5h-18c-1.9,0-3.3-.5-4.1-1.6-.8-1-1.2-2.7-1.2-5.2v-3.1h-2.7v4.1c0,1.3.1,2.4.4,3.3s.7,1.8,1.1,2.4c.4.6,1,1.1,1.8,1.6.7.4,1.4.7,2.1.9.7.1,1.4.2,2.2.2h21v-16.4h-2.7v13.7h0Z"/>
        <path class="cls-2" d="M543.5,647.4c0,.2-.1.4-.2.5,0,.1,0,.3,0,.4s0,.3,0,.4c0,.1,0,.3.2.5,0,.1.3.4.5.4s.6.1.9.1.7,0,.9-.1c.2-.1.4-.3.5-.4,0-.2.1-.4.2-.5,0-.1,0-.3,0-.4s0-.3,0-.4c0-.1,0-.3-.2-.5,0-.2-.3-.4-.5-.4s-.5-.1-.9-.1-.7,0-.9.1c-.2.1-.4.3-.5.4"/>
        <path class="cls-2" d="M565.1,649.4c0,.2.3.4.5.4s.5.1.9.1.7,0,.9-.1c.2-.1.4-.3.5-.4,0-.2.1-.4.2-.5,0-.1,0-.3,0-.4s0-.3,0-.4c0-.1,0-.3-.2-.5,0-.2-.3-.4-.5-.4s-.6-.1-.9-.1-.7,0-.9.1c-.2.1-.4.3-.5.4,0,.2-.1.4-.2.5,0,.1,0,.3,0,.4s0,.3,0,.4c0,.1.1.3.2.5"/>
        <path class="cls-2" d="M541.2,645.3c0,.2.3.4.5.4s.5.1.9.1.7,0,.9-.1c.2-.1.4-.3.5-.4,0-.2.1-.4.2-.5,0-.1,0-.3,0-.4s0-.3,0-.4c0-.1,0-.3-.2-.5,0-.1-.3-.4-.5-.4s-.6-.1-.9-.1-.7,0-.9.1c-.2.1-.4.3-.5.4,0,.2-.1.4-.2.5,0,.1,0,.3,0,.4s0,.3,0,.4c0,.1,0,.3.2.5"/>
        <path class="cls-2" d="M538.2,649.4c0,.2.3.4.5.4s.6.1.9.1.7,0,.9-.1c.2-.1.4-.3.5-.4,0-.2.1-.4.2-.5,0-.1,0-.3,0-.4s0-.3,0-.4c0-.1,0-.3-.2-.5,0-.2-.3-.4-.5-.4s-.5-.1-.9-.1-.7,0-.9.1c-.2.1-.4.3-.5.4,0,.2-.1.4-.2.5,0,.1,0,.3,0,.4s0,.3,0,.4c0,.1,0,.3.2.5"/>
        <path class="cls-2" d="M496.9,649.4c0,.2.3.4.5.4.2,0,.5.1.9.1s.7,0,.9-.1c.2-.1.4-.3.5-.4,0-.2.1-.4.2-.5,0-.1,0-.3,0-.4s0-.3,0-.4c0-.1,0-.3-.2-.5,0-.2-.3-.4-.5-.4-.2,0-.6-.1-.9-.1s-.7,0-.9.1c-.2.1-.4.3-.5.4,0,.2-.1.4-.2.5,0,.1,0,.3,0,.4s0,.3,0,.4c0,.1.1.3.2.5"/>
        <path class="cls-2" d="M491.7,649.4c0,.2.3.4.5.4.2,0,.5.1.9.1s.7,0,.9-.1c.2-.1.4-.3.5-.4,0-.2.1-.4.2-.5,0-.1,0-.3,0-.4s0-.3,0-.4c0-.1,0-.3-.2-.5,0-.2-.3-.4-.5-.4-.2,0-.6-.1-.9-.1s-.7,0-.9.1c-.2.1-.4.3-.5.4,0,.2-.1.4-.2.5,0,.1,0,.3,0,.4s0,.3,0,.4c0,.1.1.3.2.5"/>
        <rect class="cls-2" x="466.4" y="643.1" width="2.7" height="26.1"/>
        <path class="cls-2" d="M458.1,643.1v23.4h-6.2v-6.9c0-2.4-1.6-4.7-4.1-5.9-1.9-.9-5.8-1.8-11.2,1.7v-2.5h-2.7v13.7h-6.1c-1.7,0-3.2-.1-4.5-.5,2.6-2.4,4.5-4.7,4.7-7.4.2-3-1.6-5.1-4.9-5.6-3.5-.5-7.9.7-8.1.8l-.7.2-.2.7c-.7,2.2-.9,5.9,1.7,9.5.6.8,1.3,1.6,2.1,2.2-.4,0-.7.1-1,.1h-10.9v-13.7h-2.7v13.7h-10.1v-13.6h-2.7v13.4c0,1.1,0,2.1-.2,2.8-.1.7-.4,1.3-.8,1.8-.4.4-.8.7-1.3,1-.5.2-1.1.4-1.8.4v3c.8,0,1.5-.1,2.1-.3s1.3-.4,1.8-.8,1.1-.9,1.6-1.5c.4-.6.7-1.4,1-2.4,0-.4.1-.7.2-1.1h23.7c1.3,0,2.6-.4,3.8-1.3,2,.8,4.4,1.3,7.1,1.3h33v-26.1h-2.7ZM420.4,664.9c-1-.6-1.9-1.4-2.6-2.3-1.8-2.4-1.8-4.6-1.5-6.4,1.3-.3,4.1-.9,6.3-.5,2.5.4,2.7,1.7,2.7,2.7-.2,2.5-2.4,4.7-4.9,6.5M449.2,666.5h-12.6v-7.8c3.8-2.9,7.5-3.8,10.1-2.5,1.8.8,2.5,2.4,2.5,3.5v6.9Z"/>
        <path class="cls-2" d="M418.6,649.4c0,.2.3.4.5.4.2,0,.5.1.9.1s.7,0,.9-.1c.2-.1.4-.3.5-.4,0-.2.1-.4.2-.5,0-.1,0-.3,0-.4s0-.3,0-.4c0-.1,0-.3-.2-.5,0-.2-.3-.4-.5-.4-.2,0-.6-.1-.9-.1s-.7,0-.9.1c-.2.1-.4.3-.5.4,0,.2-.1.4-.2.5,0,.1,0,.3,0,.4s0,.3,0,.4c0,.1.1.3.2.5"/>
        <path class="cls-2" d="M379.2,649.4c0,.2.3.4.5.4.2,0,.6.1.9.1s.7,0,.9-.1c.2-.1.4-.3.5-.4,0-.2.1-.4.2-.5,0-.1,0-.3,0-.4s0-.3,0-.4c0-.1,0-.3-.2-.5,0-.2-.3-.4-.5-.4-.2,0-.5-.1-.9-.1s-.7,0-.9.1c-.2.1-.4.3-.5.4,0,.2-.1.4-.2.5,0,.1,0,.3,0,.4s0,.3,0,.4c0,.1,0,.3.2.5"/>
        <path class="cls-2" d="M373.9,649.4c0,.2.3.4.5.4.2,0,.5.1.9.1s.7,0,.9-.1c.2-.1.4-.3.5-.4,0-.2.1-.4.2-.5,0-.1,0-.3,0-.4s0-.3,0-.4c0-.1,0-.3-.2-.5,0-.2-.3-.4-.5-.4-.2,0-.6-.1-.9-.1s-.7,0-.9.1c-.2.1-.4.3-.5.4,0,.2-.1.4-.2.5,0,.1,0,.3,0,.4s0,.3,0,.4c0,.1,0,.3.2.5"/>
        <path class="cls-2" d="M406.4,675.2c.2.1.6.1.9.1s.7,0,.9-.1c.2-.1.4-.3.5-.4,0-.2.1-.4.2-.5,0-.1,0-.3,0-.4s0-.3,0-.4c0-.1,0-.3-.2-.5,0-.1-.3-.4-.5-.4-.2,0-.5-.1-.9-.1s-.7,0-.9.1c-.2.1-.4.3-.5.4,0,.2-.1.4-.2.5,0,.1,0,.3,0,.4s0,.3,0,.4c0,.1,0,.3.2.5,0,.1.3.3.5.4"/>
        <path class="cls-2" d="M403.5,672.8c0-.2-.3-.4-.5-.4-.2,0-.6-.1-.9-.1s-.7,0-.9.1c-.2.1-.4.3-.5.4,0,.2-.1.4-.2.5,0,.1,0,.3,0,.4s0,.3,0,.4c0,.1,0,.3.2.5,0,.1.3.4.5.4.2,0,.5.1.9.1s.7,0,.9-.1c.2-.1.4-.3.5-.4,0-.2.1-.4.2-.5,0-.1,0-.3,0-.4s0-.3,0-.4c0-.1-.1-.3-.2-.5"/>
        <path class="cls-2" d="M373.7,668.5c.5.3,1,.4,1.5.6.5,0,1.1.1,1.7.1h7.8v-2.5h0v-8.1c0-.8,0-1.6-.3-2.3-.2-.7-.5-1.2-.8-1.6-.4-.4-.7-.7-1.3-1s-1-.4-1.5-.6-1-.1-1.6-.1h-2.4c-.5,0-1,0-1.6.1-.5,0-1,.3-1.5.6-.5.3-.9.6-1.3,1-.4.4-.6,1-.8,1.6-.2.7-.3,1.4-.3,2.3v5c0,.8,0,1.6.3,2.3.2.7.5,1.2.8,1.6.2.3.6.7,1.1,1M374,659.1c0-1.3.2-2.1.7-2.7.4-.5,1.1-.8,2.1-.8h2.4c1,0,1.7.3,2.2.8.4.5.7,1.4.7,2.7v7.5h-5.1c-1,0-1.7-.3-2.2-.8-.4-.5-.7-1.5-.7-2.7v-4.1Z"/>
        <rect class="cls-2" x="702.1" y="643.1" width="2.7" height="26.1"/>
        <path class="cls-2" d="M630.8,649.4c0,.2.3.4.5.4s.5.1.9.1.7,0,.9-.1c.2-.1.4-.3.5-.4,0-.2.1-.4.2-.5,0-.1,0-.3,0-.4s0-.3,0-.4c0-.1,0-.3-.2-.5,0-.2-.3-.4-.5-.4s-.5-.1-.9-.1-.7,0-.9.1c-.2.1-.4.3-.5.4,0,.2-.1.4-.2.5,0,.1,0,.3,0,.4s0,.3,0,.4c0,.1,0,.3.2.5"/>
        <path class="cls-2" d="M625.5,649.4c0,.2.3.4.5.4s.5.1.9.1.7,0,.9-.1c.2-.1.4-.3.5-.4,0-.2.1-.4.2-.5,0-.1,0-.3,0-.4s0-.3,0-.4c0-.1,0-.3-.2-.5,0-.2-.3-.4-.5-.4s-.6-.1-.9-.1-.7,0-.9.1c-.2.1-.4.3-.5.4,0,.2-.1.4-.2.5,0,.1,0,.3,0,.4s0,.3,0,.4c0,.1,0,.3.2.5"/>
        <path class="cls-2" d="M693.7,643.1v23.4h-6c-1.6,0-3.1-.1-4.4-.4,2.4-2.1,4.4-5.2,4.6-7.8,0-1.3-.1-4.6-4.9-5.3-3.5-.5-7.9.7-8.1.8l-.7.2-.2.7c-.7,1.9-1,6.1,1.5,9.6.6.8,1.3,1.6,2.1,2.1-.3,0-.5,0-.8,0h-9.8v-23.4h-2.7v26.1h12.5c1.2,0,2.5-.4,3.8-1.1,1.9.7,4.2,1.1,6.8,1.1h9v-26.1h-2.7ZM680.3,665.1c-1.1-.6-2.1-1.4-2.7-2.4-1.6-2.1-1.6-4.8-1.3-6.5,1.3-.3,4.1-.9,6.3-.5,2.8.4,2.7,1.8,2.7,2.4-.2,2.3-2.5,5.2-4.9,6.9"/>
        <path class="cls-2" d="M659.1,669.3v-10.7c0-.8,0-1.6-.3-2.3-.2-.7-.4-1.2-.8-1.6-.4-.4-.7-.7-1.3-1s-1-.4-1.5-.6-1-.1-1.6-.1h-2.4c-.5,0-1,0-1.6.1-.5,0-1,.3-1.5.6-.5.3-.9.6-1.3,1-.4.4-.6,1-.8,1.6-.2.6-.3,1.3-.3,2.1h0v1.5c0,2.4-.4,4.1-1.2,5.2s-2.1,1.6-4.1,1.6h-4.1v-8c0-.8,0-1.6-.3-2.3-.2-.7-.5-1.2-.8-1.6-.4-.4-.7-.7-1.3-1s-1-.4-1.5-.6-1-.1-1.6-.1h-2.6c-.5,0-1,0-1.6.1-.5,0-1,.3-1.5.6-.5.3-.9.6-1.3,1s-.6,1-.8,1.6-.3,1.4-.3,2.3v5c0,.8,0,1.6.3,2.3.2.7.5,1.2.8,1.6.4.4.7.7,1.3,1s1,.4,1.5.6,1,.1,1.6.1h12c.9,0,1.7,0,2.5-.2.7-.1,1.5-.4,2.1-.9.6-.4,1-.8,1.5-1.3,0,.2.2.4.3.7.4.4.7.7,1.3,1,.4.3,1,.4,1.5.6.5,0,1,.1,1.6.1h8ZM626.3,665.8c-.4-.5-.7-1.4-.7-2.7v-4c0-1.3.2-2.1.7-2.7.4-.5,1.1-.8,2.1-.8h2.4c1,0,1.7.3,2.2.8.4.5.7,1.4.7,2.7v7.5h-5.1c-1-.1-1.8-.4-2.2-.9M649.2,665.8c-.4-.5-.7-1.4-.7-2.7v-4c0-1.3.2-2.1.7-2.7.4-.5,1.1-.8,2.1-.8h2.4c1,0,1.7.3,2.2.8.4.5.7,1.4.7,2.7v7.5h-5.1c-1-.1-1.8-.4-2.2-.9"/>
        <rect class="cls-2" x="337.8" y="643.1" width="2.7" height="26.1"/>
        <path class="cls-2" d="M270.7,666.5h-2.5c-1.9,0-3.3-.5-4.1-1.6-.8-1-1.2-2.7-1.2-5.2v-5.5h-2.7v5.5c0,2.4-.4,4.1-1.2,5.2s-2.2,1.6-4.1,1.6h-2.5v-12.3h-2.7v12.3h-7.3v-6.9c0-2.4-1.6-4.7-4.1-5.9-1.9-1-5.8-1.8-11.2,1.7v-12.3h-2.8v23.4h-7.2v-8c0-.8,0-1.6-.3-2.3-.2-.7-.5-1.2-.8-1.6-.4-.4-.7-.7-1.3-1s-1-.4-1.5-.6-1-.1-1.7-.1h-2.4c-.5,0-1,0-1.6.1-.5,0-1,.3-1.5.6-.4.3-.9.6-1.3,1-.4.4-.6,1-.8,1.6-.2.7-.3,1.4-.3,2.3v5c0,.8,0,1.6.3,2.3.2.7.5,1.2.8,1.6.4.4.7.7,1.3,1s1,.4,1.5.6,1,.1,1.6.1h45.6c.9,0,1.7,0,2.5-.2.7-.1,1.5-.4,2.1-.9.7-.4,1.3-1,1.8-1.6,0-.1.1-.3.2-.4,0,.1.1.3.2.4.4.6,1,1.1,1.8,1.6.7.4,1.4.7,2.1.9.7.1,1.4.2,2.2.2h5.5v-16.4h-2.7v13.7h0ZM214.4,666.5h-5.1c-1,0-1.7-.3-2.2-.8-.4-.5-.7-1.4-.7-2.7v-4c0-1.3.2-2.1.7-2.7.4-.5,1.1-.8,2.1-.8h2.4c1,0,1.7.3,2.2.8.4.5.7,1.4.7,2.7v7.5ZM239.6,666.5h-12.6v-7.8c3.8-2.9,7.5-3.8,10.1-2.6,1.8.8,2.5,2.4,2.5,3.5v6.9h0Z"/>
        <path class="cls-2" d="M211.6,649.4c0,.2.3.4.5.4.2,0,.5.1.9.1s.7,0,.9-.1c.2-.1.4-.3.5-.4,0-.2.1-.4.2-.5,0-.1,0-.3,0-.4s0-.3,0-.4c0-.1,0-.3-.2-.5,0-.2-.3-.4-.5-.4-.2,0-.6-.1-.9-.1s-.7,0-.9.1c-.2.1-.4.3-.5.4,0,.2-.1.4-.2.5,0,.1,0,.3,0,.4s0,.3,0,.4c0,.1.1.3.2.5"/>
        <path class="cls-2" d="M206.3,649.4c0,.2.3.4.5.4.2,0,.5.1.9.1s.7,0,.9-.1c.2-.1.4-.3.5-.4,0-.2.1-.4.2-.5,0-.1,0-.3,0-.4s0-.3,0-.4c0-.1,0-.3-.2-.5,0-.2-.3-.4-.5-.4-.2,0-.5-.1-.9-.1s-.7,0-.9.1c-.2.1-.4.3-.5.4,0,.2-.1.4-.2.5,0,.1,0,.3,0,.4s0,.3,0,.4c0,.1.1.3.2.5"/>
        <path class="cls-2" d="M301,649.4c0,.2.3.4.5.4s.6.1.9.1.7,0,.9-.1c.2-.1.4-.3.5-.4,0-.2.1-.4.2-.5,0-.1,0-.3,0-.4s0-.3,0-.4c0-.1,0-.3-.2-.5,0-.2-.3-.4-.5-.4s-.5-.1-.9-.1-.7,0-.9.1c-.2.1-.4.3-.5.4,0,.2-.1.4-.2.5,0,.1,0,.3,0,.4s0,.3,0,.4c0,.1,0,.3.2.5"/>
        <path class="cls-2" d="M295.8,649.4c0,.2.3.4.5.4s.5.1.9.1.7,0,.9-.1c.2-.1.4-.3.5-.4,0-.2.1-.4.2-.5,0-.1,0-.3,0-.4s0-.3,0-.4c0-.1,0-.3-.2-.5,0-.2-.3-.4-.5-.4s-.5-.1-.9-.1-.7,0-.9.1c-.2.1-.4.3-.5.4,0,.2-.1.4-.2.5,0,.1,0,.3,0,.4s0,.3,0,.4c0,.1,0,.3.2.5"/>
        <path class="cls-2" d="M359,669.3v-10.7c0-.8,0-1.6-.3-2.3s-.4-1.2-.8-1.6c-.4-.4-.7-.7-1.3-1s-1-.4-1.5-.6c-.5,0-1-.1-1.6-.1h-2.4c-.5,0-1,0-1.6.1-.5,0-1,.3-1.5.6-.5.3-.9.6-1.3,1-.4.4-.6,1-.8,1.6-.2.7-.3,1.4-.3,2.3v5c0,.8,0,1.6.3,2.3.2.7.5,1.2.8,1.6.4.4.7.7,1.3,1,.4.3,1,.4,1.5.6.5,0,1,.1,1.6.1h5c0,3.8-2.2,4.2-4.1,4.2h-2.9v3h2.9c7.2,0,6.8-6.1,6.8-7.2M356.3,660.6v6.1h-5.1c-1,0-1.7-.3-2.1-.8-.4-.5-.7-1.4-.7-2.7v-4c0-1.3.2-2.1.7-2.7.4-.5,1.1-.8,2.1-.8h2.4c1,0,1.7.3,2.2.8.4.5.7,1.4.7,2.7v1.4h0Z"/>
        <path class="cls-2" d="M329.4,643.1v23.4h-6.4v-8c0-.8,0-1.6-.3-2.3-.2-.7-.5-1.2-.8-1.6-.4-.4-.7-.7-1.3-1s-1-.4-1.5-.6c-.5-.1-1-.1-1.6-.1h-2.4c-.5,0-1,0-1.6.1-.5,0-1,.3-1.5.6-.5.3-.9.6-1.3,1-.4.4-.6,1-.8,1.6-.2.6-.3,1.3-.3,2.1h0v1.8c0,2.2-.4,3.8-1.2,4.8-.8,1-2.1,1.6-4.1,1.6h-3.2v-13.7h-2.7v13.7h-7.1v-8c0-.8,0-1.6-.3-2.3-.2-.7-.5-1.2-.8-1.6-.4-.4-.7-.7-1.3-1s-1-.4-1.5-.6-1.1-.1-1.7-.1h-2.4c-.5,0-1,0-1.6.1-.5,0-1,.3-1.5.6-.5.3-.9.6-1.3,1-.4.4-.6,1-.8,1.6s-.3,1.4-.3,2.3v5c0,.8,0,1.6.3,2.3.2.7.5,1.2.8,1.6.4.4.7.7,1.3,1s1,.4,1.5.6c.5,0,1,.1,1.6.1h5c0,3.8-2.2,4.2-4.1,4.2h-2.9v3h2.9c7.2,0,6.9-6.1,6.9-7.2h12.9c.9,0,1.7,0,2.5-.2.7-.1,1.5-.4,2.1-.9.6-.4,1-.8,1.5-1.3,0,.2.1.4.3.6.4.4.7.7,1.3,1,.4.3,1,.4,1.5.6.5,0,1,.1,1.6.1h17v-26.1h-2.7ZM288.8,660.6v6.1h-5.1c-1,0-1.7-.3-2.2-.8-.4-.5-.7-1.4-.7-2.7v-4c0-1.3.2-2.1.7-2.7.4-.5,1.1-.8,2.1-.8h2.4c1,0,1.7.3,2.2.8.4.5.7,1.4.7,2.7v1.4ZM320.3,666.5h-5.1c-1,0-1.7-.3-2.2-.8-.4-.5-.7-1.4-.7-2.7v-4c0-1.3.2-2.1.7-2.7.4-.5,1.1-.8,2.1-.8h2.4c1,0,1.7.3,2.2.8.4.5.7,1.4.7,2.7v7.5Z"/>
      </g>
    </g>
  </g>
</svg>